  0
SECTION
  2
HEADER
  9
$ACADVER
  1
AC1009
  9
$INSBASE
 10
0.0
 20
0.0
 30
0.0
  9
$EXTMIN
 10
-0.023034449633542
 20
-0.0230372695089045
 30
-0.0015258207003583
  9
$EXTMAX
 10
100.01169424936
 20
100.02393767317309
 30
0.0000000349246037
  9
$LIMMIN
 10
0.0
 20
0.0
  9
$LIMMAX
 10
420.0
 20
297.0
  9
$ORTHOMODE
 70
     0
  9
$REGENMODE
 70
     1
  9
$FILLMODE
 70
     1
  9
$QTEXTMODE
 70
     0
  9
$MIRRTEXT
 70
     0
  9
$DRAGMODE
 70
     2
  9
$LTSCALE
 40
1.0
  9
$OSMODE
 70
    47
  9
$ATTMODE
 70
     1
  9
$TEXTSIZE
 40
2.5
  9
$TRACEWID
 40
1.0
  9
$TEXTSTYLE
  7
STANDARD
  9
$CLAYER
  8
0
  9
$CELTYPE
  6
BYLAYER
  9
$CECOLOR
 62
     1
  9
$DIMSCALE
 40
1.0
  9
$DIMASZ
 40
2.5
  9
$DIMEXO
 40
0.625
  9
$DIMDLI
 40
3.75
  9
$DIMRND
 40
0.0
  9
$DIMDLE
 40
0.0
  9
$DIMEXE
 40
1.25
  9
$DIMTP
 40
0.0
  9
$DIMTM
 40
0.0
  9
$DIMTXT
 40
2.5
  9
$DIMCEN
 40
2.5
  9
$DIMTSZ
 40
0.0
  9
$DIMTOL
 70
     0
  9
$DIMLIM
 70
     0
  9
$DIMTIH
 70
     0
  9
$DIMTOH
 70
     0
  9
$DIMSE1
 70
     0
  9
$DIMSE2
 70
     0
  9
$DIMTAD
 70
     1
  9
$DIMZIN
 70
     8
  9
$DIMBLK
  1

  9
$DIMASO
 70
     1
  9
$DIMSHO
 70
     1
  9
$DIMPOST
  1

  9
$DIMAPOST
  1

  9
$DIMALT
 70
     0
  9
$DIMALTD
 70
     3
  9
$DIMALTF
 40
0.03937007874016
  9
$DIMLFAC
 40
1.0
  9
$DIMTOFL
 70
     1
  9
$DIMTVP
 40
0.0
  9
$DIMTIX
 70
     0
  9
$DIMSOXD
 70
     0
  9
$DIMSAH
 70
     0
  9
$DIMBLK1
  1

  9
$DIMBLK2
  1

  9
$DIMSTYLE
  2
ISO-25
  9
$DIMCLRD
 70
     0
  9
$DIMCLRE
 70
     0
  9
$DIMCLRT
 70
     0
  9
$DIMTFAC
 40
1.0
  9
$DIMGAP
 40
0.625
  9
$LUNITS
 70
     2
  9
$LUPREC
 70
     4
  9
$SKETCHINC
 40
1.0
  9
$FILLETRAD
 40
0.0
  9
$AUNITS
 70
     0
  9
$AUPREC
 70
     0
  9
$MENU
  1
.
  9
$ELEVATION
 40
0.0
  9
$PELEVATION
 40
0.0
  9
$THICKNESS
 40
0.0
  9
$LIMCHECK
 70
     0
  9
$BLIPMODE
 70
     0
  9
$CHAMFERA
 40
0.0
  9
$CHAMFERB
 40
0.0
  9
$SKPOLY
 70
     0
  9
$TDCREATE
 40
2458486.4517245372
  9
$TDUPDATE
 40
2458607.6435841671
  9
$TDINDWG
 40
0.4314894097
  9
$TDUSRTIMER
 40
0.4314889699
  9
$USRTIMER
 70
     1
  9
$ANGBASE
 50
0.0
  9
$ANGDIR
 70
     0
  9
$PDMODE
 70
     0
  9
$PDSIZE
 40
0.0
  9
$PLINEWID
 40
0.0
  9
$COORDS
 70
     1
  9
$SPLFRAME
 70
     0
  9
$SPLINETYPE
 70
     6
  9
$SPLINESEGS
 70
     8
  9
$ATTDIA
 70
     0
  9
$ATTREQ
 70
     1
  9
$HANDLING
 70
     1
  9
$HANDSEED
  5
2BA6
  9
$SURFTAB1
 70
     6
  9
$SURFTAB2
 70
     6
  9
$SURFTYPE
 70
     6
  9
$SURFU
 70
     6
  9
$SURFV
 70
     6
  9
$UCSNAME
  2

  9
$UCSORG
 10
0.0
 20
0.0
 30
0.0
  9
$UCSXDIR
 10
1.0
 20
0.0
 30
0.0
  9
$UCSYDIR
 10
0.0
 20
1.0
 30
0.0
  9
$PUCSNAME
  2

  9
$PUCSORG
 10
0.0
 20
0.0
 30
0.0
  9
$PUCSXDIR
 10
1.0
 20
0.0
 30
0.0
  9
$PUCSYDIR
 10
0.0
 20
1.0
 30
0.0
  9
$USERI1
 70
     0
  9
$USERI2
 70
     0
  9
$USERI3
 70
     0
  9
$USERI4
 70
     0
  9
$USERI5
 70
     0
  9
$USERR1
 40
0.0
  9
$USERR2
 40
0.0
  9
$USERR3
 40
0.0
  9
$USERR4
 40
0.0
  9
$USERR5
 40
0.0
  9
$WORLDVIEW
 70
     1
  9
$SHADEDGE
 70
     3
  9
$SHADEDIF
 70
    70
  9
$TILEMODE
 70
     1
  9
$MAXACTVP
 70
    64
  9
$PLIMCHECK
 70
     0
  9
$PEXTMIN
 10
0.0
 20
0.0
 30
0.0
  9
$PEXTMAX
 10
0.0
 20
0.0
 30
0.0
  9
$PLIMMIN
 10
0.0
 20
0.0
  9
$PLIMMAX
 10
12.0
 20
9.0
  9
$UNITMODE
 70
     0
  9
$VISRETAIN
 70
     1
  9
$PLINEGEN
 70
     0
  9
$PSLTSCALE
 70
     1
  0
ENDSEC
  0
SECTION
  2
TABLES
  0
TABLE
  2
VPORT
 70
     1
  0
VPORT
  2
*ACTIVE
 70
     0
 10
0.0
 20
0.0
 11
1.0
 21
1.0
 12
-422.58034542194372
 22
-446.8872601811612
 13
0.0
 23
0.0
 14
10.0
 24
10.0
 15
10.0
 25
10.0
 16
-0.0000000000005116
 26
0.0
 36
2336.4155792534038
 17
504.85044860839838
 27
488.71987133059662
 37
0.0
 40
161.28882952477721
 41
2.0335917312661489
 42
50.0
 43
0.0
 44
0.0
 50
0.0
 51
0.0
 71
     0
 72
  1000
 73
     1
 74
     3
 75
     0
 76
     0
 77
     0
 78
     0
  0
ENDTAB
  0
TABLE
  2
LTYPE
 70
     2
  0
LTYPE
  2
CONTINUOUS
 70
     0
  3
Solid line
 72
    65
 73
     0
 40
0.0
  0
ENDTAB
  0
TABLE
  2
LAYER
 70
     1
  0
LAYER
  2
0
 70
     0
 62
     7
  6
CONTINUOUS
  0
ENDTAB
  0
TABLE
  2
STYLE
 70
     2
  0
STYLE
  2
STANDARD
 70
     0
 40
0.0
 41
1.0
 50
0.0
 71
     0
 42
2.5
  3
txt
  4

  0
ENDTAB
  0
TABLE
  2
VIEW
 70
     0
  0
ENDTAB
  0
TABLE
  2
UCS
 70
     0
  0
ENDTAB
  0
TABLE
  2
APPID
 70
     9
  0
APPID
  2
ACAD
 70
     0
  0
APPID
  2
ACAD_PSEXT
 70
     0
  0
APPID
  2
ACADANNOPO
 70
     0
  0
APPID
  2
ACADANNOTATIVE
 70
     0
  0
APPID
  2
ACAD_DSTYLE_DIMJAG
 70
     0
  0
APPID
  2
ACAD_DSTYLE_DIMTALN
 70
     0
  0
APPID
  2
ACAD_MLEADERVER
 70
     0
  0
APPID
  2
ACAD_NAV_VCDISPLAY
 70
     0
  0
APPID
  2
ACAD_EXEMPT_FROM_CAD_STANDARDS
 70
     0
  0
ENDTAB
  0
TABLE
  2
DIMSTYLE
 70
     4
  0
DIMSTYLE
  2
STANDARD
 70
     0
  3

  4

  5

  6

  7

 40
1.0
 41
0.18
 42
0.0625
 43
0.38
 44
0.18
 45
0.0
 46
0.0
 47
0.0
 48
0.0
140
0.18
141
0.09
142
0.0
143
25.399999999999999
144
1.0
145
0.0
146
1.0
147
0.09
 71
     0
 72
     0
 73
     1
 74
     1
 75
     0
 76
     0
 77
     0
 78
     0
170
     0
171
     2
172
     0
173
     0
174
     0
175
     0
176
     0
177
     0
178
     0
  0
DIMSTYLE
  2
ISO-25
 70
     0
  3

  4

  5

  6

  7

 40
1.0
 41
2.5
 42
0.625
 43
3.75
 44
1.25
 45
0.0
 46
0.0
 47
0.0
 48
0.0
140
2.5
141
2.5
142
0.0
143
0.03937007874016
144
1.0
145
0.0
146
1.0
147
0.625
 71
     0
 72
     0
 73
     0
 74
     0
 75
     0
 76
     0
 77
     1
 78
     8
170
     0
171
     3
172
     1
173
     0
174
     0
175
     0
176
     0
177
     0
178
     0
  0
ENDTAB
  0
ENDSEC
  0
SECTION
  2
BLOCKS
  0
BLOCK
  8
0
  2
$MODEL_SPACE
 70
     0
 10
0.0
 20
0.0
 30
0.0
  3
$MODEL_SPACE
  1

  0
ENDBLK
  5
21
  8
0
  0
BLOCK
 67
     1
  8
0
  2
$PAPER_SPACE
 70
     0
 10
0.0
 20
0.0
 30
0.0
  3
$PAPER_SPACE
  1

  0
ENDBLK
  5
D5
 67
     1
  8
0
  0
ENDSEC
  0
SECTION
  2
ENTITIES
  0
POLYLINE
  5
1E3A
  8
0
 66
     1
 10
0.0
 20
0.0
 30
0.0
 70
     1
  0
VERTEX
  5
2549
  8
0
 10
6.2131099484898193
 20
89.817103323870995
 30
0.0
  0
VERTEX
  5
254A
  8
0
 10
7.375833561151194
 20
88.654379711209572
 30
0.0
  0
VERTEX
  5
254B
  8
0
 10
8.5385571738125581
 20
89.817103323871137
 30
0.0
  0
VERTEX
  5
254C
  8
0
 10
10.18289667612876
 20
89.817103323870015
 30
0.0
  0
VERTEX
  5
254D
  8
0
 10
10.18289667612895
 20
91.461442826187039
 30
0.0
  0
VERTEX
  5
254E
  8
0
 10
11.345620288790331
 20
92.624166438848519
 30
0.0
  0
VERTEX
  5
254F
  8
0
 10
10.18289667612876
 20
93.786890051510085
 30
0.0
  0
VERTEX
  5
2550
  8
0
 10
10.18289667612895
 20
95.431229553827535
 30
0.0
  0
VERTEX
  5
2551
  8
0
 10
8.5385571738116592
 20
95.431229553827109
 30
0.0
  0
VERTEX
  5
2552
  8
0
 10
7.3758335611503858
 20
96.593953166488504
 30
0.0
  0
VERTEX
  5
2553
  8
0
 10
6.2131099484889551
 20
95.431229553827109
 30
0.0
  0
VERTEX
  5
2554
  8
0
 10
4.5687704461719481
 20
95.431229553827109
 30
0.0
  0
VERTEX
  5
2555
  8
0
 10
4.5687704461727199
 20
93.786890051511023
 30
0.0
  0
VERTEX
  5
2556
  8
0
 10
3.406046833511311
 20
92.624166438849656
 30
0.0
  0
VERTEX
  5
2557
  8
0
 10
4.5687704461727199
 20
91.461442826188346
 30
0.0
  0
VERTEX
  5
2558
  8
0
 10
4.5687704461722998
 20
89.817103323871095
 30
0.0
  0
SEQEND
  5
2559
  8
0
  0
POLYLINE
  5
1EE0
  8
0
 66
     1
 10
0.0
 20
0.0
 30
0.0
 70
     1
  0
VERTEX
  5
255A
  8
0
 10
17.053099753686649
 20
82.946900246311955
 30
0.0
  0
VERTEX
  5
255B
  8
0
 10
21.02288648132679
 20
82.946900246311984
 30
0.0
  0
VERTEX
  5
255C
  8
0
 10
23.829949596305141
 20
80.139837131333579
 30
0.0
  0
VERTEX
  5
255D
  8
0
 10
22.667225983644119
 20
78.977113518672567
 30
0.0
  0
VERTEX
  5
255E
  8
0
 10
22.667225983644691
 20
77.332774016355401
 30
0.0
  0
VERTEX
  5
255F
  8
0
 10
21.022886481326982
 20
77.332774016355401
 30
0.0
  0
VERTEX
  5
2560
  8
0
 10
19.860162868665888
 20
76.170050403694475
 30
0.0
  0
VERTEX
  5
2561
  8
0
 10
17.053099753687501
 20
78.977113518672823
 30
0.0
  0
SEQEND
  5
2562
  8
0
  0
POLYLINE
  5
1F8E
  8
0
 66
     1
 10
0.0
 20
0.0
 30
0.0
 70
     1
  0
VERTEX
  5
2563
  8
0
 10
93.786890051510156
 20
89.817103323870995
 30
0.0
  0
VERTEX
  5
2564
  8
0
 10
92.624166438848789
 20
88.654379711209572
 30
0.0
  0
VERTEX
  5
2565
  8
0
 10
91.461442826187437
 20
89.817103323871137
 30
0.0
  0
VERTEX
  5
2566
  8
0
 10
89.817103323871251
 20
89.817103323870015
 30
0.0
  0
VERTEX
  5
2567
  8
0
 10
89.817103323871066
 20
91.461442826187039
 30
0.0
  0
VERTEX
  5
2568
  8
0
 10
88.654379711209685
 20
92.624166438848519
 30
0.0
  0
VERTEX
  5
2569
  8
0
 10
89.817103323871251
 20
93.786890051510085
 30
0.0
  0
VERTEX
  5
256A
  8
0
 10
89.817103323871066
 20
95.431229553827535
 30
0.0
  0
VERTEX
  5
256B
  8
0
 10
91.461442826188318
 20
95.431229553827109
 30
0.0
  0
VERTEX
  5
256C
  8
0
 10
92.624166438849613
 20
96.593953166488504
 30
0.0
  0
VERTEX
  5
256D
  8
0
 10
93.786890051511051
 20
95.431229553827109
 30
0.0
  0
VERTEX
  5
256E
  8
0
 10
95.431229553828061
 20
95.431229553827109
 30
0.0
  0
VERTEX
  5
256F
  8
0
 10
95.431229553827336
 20
93.786890051511023
 30
0.0
  0
VERTEX
  5
2570
  8
0
 10
96.593953166488674
 20
92.624166438849656
 30
0.0
  0
VERTEX
  5
2571
  8
0
 10
95.431229553827336
 20
91.461442826188346
 30
0.0
  0
VERTEX
  5
2572
  8
0
 10
95.431229553827677
 20
89.817103323871095
 30
0.0
  0
SEQEND
  5
2573
  8
0
  0
POLYLINE
  5
2034
  8
0
 66
     1
 10
0.0
 20
0.0
 30
0.0
 70
     1
  0
VERTEX
  5
2574
  8
0
 10
82.946900246313362
 20
82.946900246311955
 30
0.0
  0
VERTEX
  5
2575
  8
0
 10
78.977113518673178
 20
82.946900246311984
 30
0.0
  0
VERTEX
  5
2576
  8
0
 10
76.170050403694859
 20
80.139837131333579
 30
0.0
  0
VERTEX
  5
2577
  8
0
 10
77.33277401635587
 20
78.977113518672567
 30
0.0
  0
VERTEX
  5
2578
  8
0
 10
77.332774016355302
 20
77.332774016355401
 30
0.0
  0
VERTEX
  5
2579
  8
0
 10
78.977113518673022
 20
77.332774016355401
 30
0.0
  0
VERTEX
  5
257A
  8
0
 10
80.139837131334104
 20
76.170050403694475
 30
0.0
  0
VERTEX
  5
257B
  8
0
 10
82.946900246312524
 20
78.977113518672823
 30
0.0
  0
SEQEND
  5
257C
  8
0
  0
POLYLINE
  5
20E2
  8
0
 66
     1
 10
0.0
 20
0.0
 30
0.0
 70
     1
  0
VERTEX
  5
257D
  8
0
 10
6.2131099484898193
 20
10.18289667612907
 30
0.0
  0
VERTEX
  5
257E
  8
0
 10
7.375833561151194
 20
11.345620288790441
 30
0.0
  0
VERTEX
  5
257F
  8
0
 10
8.5385571738125581
 20
10.182896676128861
 30
0.0
  0
VERTEX
  5
2580
  8
0
 10
10.18289667612876
 20
10.18289667612998
 30
0.0
  0
VERTEX
  5
2581
  8
0
 10
10.18289667612895
 20
8.5385571738129382
 30
0.0
  0
VERTEX
  5
2582
  8
0
 10
11.345620288790331
 20
7.375833561151472
 30
0.0
  0
VERTEX
  5
2583
  8
0
 10
10.18289667612876
 20
6.2131099484899721
 30
0.0
  0
VERTEX
  5
2584
  8
0
 10
10.18289667612895
 20
4.568770446172544
 30
0.0
  0
VERTEX
  5
2585
  8
0
 10
8.5385571738116592
 20
4.568770446172862
 30
0.0
  0
VERTEX
  5
2586
  8
0
 10
7.3758335611503858
 20
3.4060468335114762
 30
0.0
  0
VERTEX
  5
2587
  8
0
 10
6.2131099484889551
 20
4.5687704461728744
 30
0.0
  0
VERTEX
  5
2588
  8
0
 10
4.5687704461719481
 20
4.5687704461728744
 30
0.0
  0
VERTEX
  5
2589
  8
0
 10
4.5687704461727199
 20
6.213109948488972
 30
0.0
  0
VERTEX
  5
258A
  8
0
 10
3.406046833511311
 20
7.3758335611503814
 30
0.0
  0
VERTEX
  5
258B
  8
0
 10
4.5687704461727199
 20
8.5385571738116663
 30
0.0
  0
VERTEX
  5
258C
  8
0
 10
4.5687704461722998
 20
10.18289667612893
 30
0.0
  0
SEQEND
  5
258D
  8
0
  0
POLYLINE
  5
2188
  8
0
 66
     1
 10
0.0
 20
0.0
 30
0.0
 70
     1
  0
VERTEX
  5
258E
  8
0
 10
17.053099753686649
 20
17.053099753688059
 30
0.0
  0
VERTEX
  5
258F
  8
0
 10
21.02288648132679
 20
17.053099753688041
 30
0.0
  0
VERTEX
  5
2590
  8
0
 10
23.829949596305141
 20
19.860162868666499
 30
0.0
  0
VERTEX
  5
2591
  8
0
 10
22.667225983644119
 20
21.022886481327479
 30
0.0
  0
VERTEX
  5
2592
  8
0
 10
22.667225983644691
 20
22.667225983644581
 30
0.0
  0
VERTEX
  5
2593
  8
0
 10
21.022886481326982
 20
22.667225983644581
 30
0.0
  0
VERTEX
  5
2594
  8
0
 10
19.860162868665888
 20
23.829949596305511
 30
0.0
  0
VERTEX
  5
2595
  8
0
 10
17.053099753687501
 20
21.022886481327209
 30
0.0
  0
SEQEND
  5
2596
  8
0
  0
POLYLINE
  5
2236
  8
0
 66
     1
 10
0.0
 20
0.0
 30
0.0
 70
     1
  0
VERTEX
  5
2597
  8
0
 10
93.786890051510156
 20
10.18289667612907
 30
0.0
  0
VERTEX
  5
2598
  8
0
 10
92.624166438848789
 20
11.345620288790441
 30
0.0
  0
VERTEX
  5
2599
  8
0
 10
91.461442826187437
 20
10.182896676128861
 30
0.0
  0
VERTEX
  5
259A
  8
0
 10
89.817103323871251
 20
10.18289667612998
 30
0.0
  0
VERTEX
  5
259B
  8
0
 10
89.817103323871066
 20
8.5385571738129382
 30
0.0
  0
VERTEX
  5
259C
  8
0
 10
88.654379711209685
 20
7.375833561151472
 30
0.0
  0
VERTEX
  5
259D
  8
0
 10
89.817103323871251
 20
6.2131099484899721
 30
0.0
  0
VERTEX
  5
259E
  8
0
 10
89.817103323871066
 20
4.568770446172544
 30
0.0
  0
VERTEX
  5
259F
  8
0
 10
91.461442826188318
 20
4.568770446172862
 30
0.0
  0
VERTEX
  5
25A0
  8
0
 10
92.624166438849613
 20
3.4060468335114762
 30
0.0
  0
VERTEX
  5
25A1
  8
0
 10
93.786890051511051
 20
4.5687704461728744
 30
0.0
  0
VERTEX
  5
25A2
  8
0
 10
95.431229553828061
 20
4.5687704461728744
 30
0.0
  0
VERTEX
  5
25A3
  8
0
 10
95.431229553827336
 20
6.213109948488972
 30
0.0
  0
VERTEX
  5
25A4
  8
0
 10
96.593953166488674
 20
7.3758335611503814
 30
0.0
  0
VERTEX
  5
25A5
  8
0
 10
95.431229553827336
 20
8.5385571738116663
 30
0.0
  0
VERTEX
  5
25A6
  8
0
 10
95.431229553827677
 20
10.18289667612893
 30
0.0
  0
SEQEND
  5
25A7
  8
0
  0
POLYLINE
  5
22DC
  8
0
 66
     1
 10
0.0
 20
0.0
 30
0.0
 70
     1
  0
VERTEX
  5
25A8
  8
0
 10
82.946900246313362
 20
17.053099753688059
 30
0.0
  0
VERTEX
  5
25A9
  8
0
 10
78.977113518673178
 20
17.053099753688041
 30
0.0
  0
VERTEX
  5
25AA
  8
0
 10
76.170050403694859
 20
19.860162868666499
 30
0.0
  0
VERTEX
  5
25AB
  8
0
 10
77.33277401635587
 20
21.022886481327479
 30
0.0
  0
VERTEX
  5
25AC
  8
0
 10
77.332774016355302
 20
22.667225983644581
 30
0.0
  0
VERTEX
  5
25AD
  8
0
 10
78.977113518673022
 20
22.667225983644581
 30
0.0
  0
VERTEX
  5
25AE
  8
0
 10
80.139837131334104
 20
23.829949596305511
 30
0.0
  0
VERTEX
  5
25AF
  8
0
 10
82.946900246312524
 20
21.022886481327209
 30
0.0
  0
SEQEND
  5
25B0
  8
0
  0
POLYLINE
  5
230F
  8
0
 66
     1
 10
0.0
 20
0.0
 30
0.0
 70
     1
  0
VERTEX
  5
25B1
  8
0
 10
100.0
 20
100.0
 30
0.0
  0
VERTEX
  5
25B2
  8
0
 10
100.0
 20
0.0
 30
0.0
  0
VERTEX
  5
25B3
  8
0
 10
0.0000000000000057
 20
0.0
 30
0.0
  0
VERTEX
  5
25B4
  8
0
 10
0.0000000000000057
 20
100.0
 30
0.0
  0
SEQEND
  5
25B5
  8
0
  0
POLYLINE
  5
2310
  8
0
 66
     1
 10
0.0
 20
0.0
 30
0.0
 70
     1
  0
VERTEX
  5
25B6
  8
0
 10
97.009525573772862
 20
2.990474426227177
 30
0.0
  0
VERTEX
  5
25B7
  8
0
 10
97.009525573772862
 20
4.8391106153648771
 30
0.0
  0
VERTEX
  5
25B8
  8
0
 10
98.421703980054275
 20
6.2512890216461132
 30
0.0
  0
VERTEX
  5
25B9
  8
0
 10
98.421703980054275
 20
1.5782960199457809
 30
0.0
  0
VERTEX
  5
25BA
  8
0
 10
93.748710978353699
 20
1.5782960199457809
 30
0.0
  0
VERTEX
  5
25BB
  8
0
 10
95.160889384635155
 20
2.9904744262272458
 30
0.0
  0
SEQEND
  5
25BC
  8
0
  0
POLYLINE
  5
2311
  8
0
 66
     1
 10
0.0
 20
0.0
 30
0.0
 70
     1
  0
VERTEX
  5
25BD
  8
0
 10
95.160889384635155
 20
97.009525573772777
 30
0.0
  0
VERTEX
  5
25BE
  8
0
 10
93.748710978353756
 20
98.421703980054303
 30
0.0
  0
VERTEX
  5
25BF
  8
0
 10
98.421703980054275
 20
98.421703980054247
 30
0.0
  0
VERTEX
  5
25C0
  8
0
 10
98.421703980054275
 20
93.748710978353927
 30
0.0
  0
VERTEX
  5
25C1
  8
0
 10
97.009525573772862
 20
95.160889384635183
 30
0.0
  0
VERTEX
  5
25C2
  8
0
 10
97.009525573772862
 20
97.009525573772862
 30
0.0
  0
SEQEND
  5
25C3
  8
0
  0
POLYLINE
  5
2312
  8
0
 66
     1
 10
0.0
 20
0.0
 30
0.0
 70
     1
  0
VERTEX
  5
25C4
  8
0
 10
4.8391106153648593
 20
2.9904744262272458
 30
0.0
  0
VERTEX
  5
25C5
  8
0
 10
6.2512890216462429
 20
1.5782960199457241
 30
0.0
  0
VERTEX
  5
25C6
  8
0
 10
1.5782960199457641
 20
1.5782960199457241
 30
0.0
  0
VERTEX
  5
25C7
  8
0
 10
1.5782960199457641
 20
6.2512890216461132
 30
0.0
  0
VERTEX
  5
25C8
  8
0
 10
2.9904744262271832
 20
4.8391106153648771
 30
0.0
  0
VERTEX
  5
25C9
  8
0
 10
2.9904744262271832
 20
2.990474426227177
 30
0.0
  0
SEQEND
  5
25CA
  8
0
  0
POLYLINE
  5
2313
  8
0
 66
     1
 10
0.0
 20
0.0
 30
0.0
 70
     1
  0
VERTEX
  5
25CB
  8
0
 10
2.9904744262271832
 20
97.009525573772862
 30
0.0
  0
VERTEX
  5
25CC
  8
0
 10
2.9904744262271832
 20
95.160889384635183
 30
0.0
  0
VERTEX
  5
25CD
  8
0
 10
1.578296019945719
 20
93.748710978353827
 30
0.0
  0
VERTEX
  5
25CE
  8
0
 10
1.578296019945719
 20
98.421703980054275
 30
0.0
  0
VERTEX
  5
25CF
  8
0
 10
6.2512890216463797
 20
98.421703980054403
 30
0.0
  0
VERTEX
  5
25D0
  8
0
 10
4.8391106153648593
 20
97.009525573772777
 30
0.0
  0
SEQEND
  5
25D1
  8
0
  0
POLYLINE
  5
2314
  8
0
 66
     1
 10
0.0
 20
0.0
 30
0.0
 70
     1
  0
VERTEX
  5
25D2
  8
0
 10
84.525196266258973
 20
15.47480373374235
 30
0.0
  0
VERTEX
  5
25D3
  8
0
 10
80.555409538618946
 20
15.47480373374235
 30
0.0
  0
VERTEX
  5
25D4
  8
0
 10
84.269020576285655
 20
11.76119269607557
 30
0.0
  0
VERTEX
  5
25D5
  8
0
 10
88.238807303924759
 20
11.76119269607557
 30
0.0
  0
VERTEX
  5
25D6
  8
0
 10
88.238807303924759
 20
15.73097942371456
 30
0.0
  0
VERTEX
  5
25D7
  8
0
 10
84.525196266258178
 20
19.44459046138137
 30
0.0
  0
SEQEND
  5
25D8
  8
0
  0
POLYLINE
  5
2315
  8
0
 66
     1
 10
0.0
 20
0.0
 30
0.0
 70
     1
  0
VERTEX
  5
25D9
  8
0
 10
70.919599553276825
 20
29.08040044672434
 30
0.0
  0
VERTEX
  5
25DA
  8
0
 10
69.756875940615487
 20
26.273337331745829
 30
0.0
  0
VERTEX
  5
25DB
  8
0
 10
71.784691268770246
 20
24.245522003590949
 30
0.0
  0
VERTEX
  5
25DC
  8
0
 10
75.754477996409676
 20
24.245522003590949
 30
0.0
  0
VERTEX
  5
25DD
  8
0
 10
75.754477996409761
 20
28.215308731230309
 30
0.0
  0
VERTEX
  5
25DE
  8
0
 10
73.726662668254946
 20
30.243124059385149
 30
0.0
  0
SEQEND
  5
25DF
  8
0
  0
POLYLINE
  5
2316
  8
0
 66
     1
 10
0.0
 20
0.0
 30
0.0
 70
     1
  0
VERTEX
  5
25E0
  8
0
 10
15.474803733741
 20
15.47480373374235
 30
0.0
  0
VERTEX
  5
25E1
  8
0
 10
19.444590461381079
 20
15.47480373374235
 30
0.0
  0
VERTEX
  5
25E2
  8
0
 10
15.730979423714359
 20
11.76119269607557
 30
0.0
  0
VERTEX
  5
25E3
  8
0
 10
11.76119269607525
 20
11.76119269607557
 30
0.0
  0
VERTEX
  5
25E4
  8
0
 10
11.76119269607525
 20
15.73097942371456
 30
0.0
  0
VERTEX
  5
25E5
  8
0
 10
15.474803733741879
 20
19.44459046138137
 30
0.0
  0
SEQEND
  5
25E6
  8
0
  0
POLYLINE
  5
2317
  8
0
 66
     1
 10
0.0
 20
0.0
 30
0.0
 70
     1
  0
VERTEX
  5
25E7
  8
0
 10
29.080400446723161
 20
29.08040044672434
 30
0.0
  0
VERTEX
  5
25E8
  8
0
 10
30.243124059384531
 20
26.273337331745829
 30
0.0
  0
VERTEX
  5
25E9
  8
0
 10
28.215308731229761
 20
24.245522003590949
 30
0.0
  0
VERTEX
  5
25EA
  8
0
 10
24.24552200359031
 20
24.245522003590949
 30
0.0
  0
VERTEX
  5
25EB
  8
0
 10
24.245522003590189
 20
28.215308731230309
 30
0.0
  0
VERTEX
  5
25EC
  8
0
 10
26.273337331745061
 20
30.243124059385149
 30
0.0
  0
SEQEND
  5
25ED
  8
0
  0
POLYLINE
  5
2318
  8
0
 66
     1
 10
0.0
 20
0.0
 30
0.0
 70
     1
  0
VERTEX
  5
25EE
  8
0
 10
84.525196266258973
 20
84.525196266257652
 30
0.0
  0
VERTEX
  5
25EF
  8
0
 10
80.555409538618946
 20
84.525196266257652
 30
0.0
  0
VERTEX
  5
25F0
  8
0
 10
84.269020576285655
 20
88.238807303924418
 30
0.0
  0
VERTEX
  5
25F1
  8
0
 10
88.238807303924759
 20
88.238807303924418
 30
0.0
  0
VERTEX
  5
25F2
  8
0
 10
88.238807303924759
 20
84.269020576285456
 30
0.0
  0
VERTEX
  5
25F3
  8
0
 10
84.525196266258178
 20
80.555409538618633
 30
0.0
  0
SEQEND
  5
25F4
  8
0
  0
POLYLINE
  5
2319
  8
0
 66
     1
 10
0.0
 20
0.0
 30
0.0
 70
     1
  0
VERTEX
  5
25F5
  8
0
 10
70.919599553276825
 20
70.91959955327566
 30
0.0
  0
VERTEX
  5
25F6
  8
0
 10
69.756875940615487
 20
73.726662668254207
 30
0.0
  0
VERTEX
  5
25F7
  8
0
 10
71.784691268770246
 20
75.754477996409065
 30
0.0
  0
VERTEX
  5
25F8
  8
0
 10
75.754477996409676
 20
75.754477996409065
 30
0.0
  0
VERTEX
  5
25F9
  8
0
 10
75.754477996409761
 20
71.784691268769691
 30
0.0
  0
VERTEX
  5
25FA
  8
0
 10
73.726662668254946
 20
69.756875940614918
 30
0.0
  0
SEQEND
  5
25FB
  8
0
  0
POLYLINE
  5
231A
  8
0
 66
     1
 10
0.0
 20
0.0
 30
0.0
 70
     1
  0
VERTEX
  5
25FC
  8
0
 10
15.474803733741
 20
84.525196266257652
 30
0.0
  0
VERTEX
  5
25FD
  8
0
 10
19.444590461381079
 20
84.525196266257652
 30
0.0
  0
VERTEX
  5
25FE
  8
0
 10
15.730979423714359
 20
88.238807303924418
 30
0.0
  0
VERTEX
  5
25FF
  8
0
 10
11.76119269607525
 20
88.238807303924418
 30
0.0
  0
VERTEX
  5
2600
  8
0
 10
11.76119269607525
 20
84.269020576285456
 30
0.0
  0
VERTEX
  5
2601
  8
0
 10
15.474803733741879
 20
80.555409538618633
 30
0.0
  0
SEQEND
  5
2602
  8
0
  0
POLYLINE
  5
231B
  8
0
 66
     1
 10
0.0
 20
0.0
 30
0.0
 70
     1
  0
VERTEX
  5
2603
  8
0
 10
29.080400446723161
 20
70.91959955327566
 30
0.0
  0
VERTEX
  5
2604
  8
0
 10
30.243124059384531
 20
73.726662668254207
 30
0.0
  0
VERTEX
  5
2605
  8
0
 10
28.215308731229761
 20
75.754477996409065
 30
0.0
  0
VERTEX
  5
2606
  8
0
 10
24.24552200359031
 20
75.754477996409065
 30
0.0
  0
VERTEX
  5
2607
  8
0
 10
24.245522003590189
 20
71.784691268769691
 30
0.0
  0
VERTEX
  5
2608
  8
0
 10
26.273337331745061
 20
69.756875940614918
 30
0.0
  0
SEQEND
  5
2609
  8
0
  0
POLYLINE
  5
231C
  8
0
 66
     1
 10
0.0
 20
0.0
 30
0.0
 70
     1
  0
VERTEX
  5
260A
  8
0
 10
93.880289639986572
 20
24.68319304655617
 30
0.0
  0
VERTEX
  5
260B
  8
0
 10
92.670866233087281
 20
25.89261645345557
 30
0.0
  0
VERTEX
  5
260C
  8
0
 10
91.461442826187863
 20
24.683193046556259
 30
0.0
  0
VERTEX
  5
260D
  8
0
 10
92.670866233087196
 20
23.47376963965678
 30
0.0
  0
SEQEND
  5
260E
  8
0
  0
POLYLINE
  5
231D
  8
0
 66
     1
 10
0.0
 20
0.0
 30
0.0
 70
     1
  0
VERTEX
  5
260F
  8
0
 10
95.431229553828061
 20
40.991102520534959
 30
0.0
  0
VERTEX
  5
2610
  8
0
 10
95.431229553827976
 20
35.739263425688563
 30
0.0
  0
VERTEX
  5
2611
  8
0
 10
92.624166438849471
 20
38.546326540667117
 30
0.0
  0
VERTEX
  5
2612
  8
0
 10
89.817103323870882
 20
35.739263425688733
 30
0.0
  0
VERTEX
  5
2613
  8
0
 10
89.817103323871066
 20
40.991102520535172
 30
0.0
  0
VERTEX
  5
2614
  8
0
 10
92.624166438849514
 20
43.798165635513463
 30
0.0
  0
SEQEND
  5
2615
  8
0
  0
POLYLINE
  5
231E
  8
0
 66
     1
 10
0.0
 20
0.0
 30
0.0
 70
     1
  0
VERTEX
  5
2616
  8
0
 10
94.440641668411203
 20
11.761192696074589
 30
0.0
  0
VERTEX
  5
2617
  8
0
 10
95.431229553827336
 20
11.761192696074479
 30
0.0
  0
VERTEX
  5
2618
  8
0
 10
95.431229553827393
 20
14.15268340376865
 30
0.0
  0
VERTEX
  5
2619
  8
0
 10
93.740190257272204
 20
12.46164410721372
 30
0.0
  0
SEQEND
  5
261A
  8
0
  0
POLYLINE
  5
231F
  8
0
 66
     1
 10
0.0
 20
0.0
 30
0.0
 70
     1
  0
VERTEX
  5
261B
  8
0
 10
91.508142620425474
 20
12.461644107213621
 30
0.0
  0
VERTEX
  5
261C
  8
0
 10
90.807691209286475
 20
11.761192696074669
 30
0.0
  0
VERTEX
  5
261D
  8
0
 10
89.817103323870271
 20
11.761192696074669
 30
0.0
  0
VERTEX
  5
261E
  8
0
 10
89.817103323870356
 20
14.15268340376884
 30
0.0
  0
SEQEND
  5
261F
  8
0
  0
POLYLINE
  5
2320
  8
0
 66
     1
 10
0.0
 20
0.0
 30
0.0
 70
     1
  0
VERTEX
  5
2620
  8
0
 10
92.624166438849059
 20
21.19502220857192
 30
0.0
  0
VERTEX
  5
2621
  8
0
 10
93.786890051510284
 20
20.03229859591065
 30
0.0
  0
VERTEX
  5
2622
  8
0
 10
95.431229553827492
 20
20.03229859591055
 30
0.0
  0
VERTEX
  5
2623
  8
0
 10
95.431229553827492
 20
16.38473104061541
 30
0.0
  0
VERTEX
  5
2624
  8
0
 10
92.624166438848874
 20
13.5776679256369
 30
0.0
  0
VERTEX
  5
2625
  8
0
 10
89.817103323870498
 20
16.384731040615598
 30
0.0
  0
VERTEX
  5
2626
  8
0
 10
89.817103323870541
 20
20.032298595910731
 30
0.0
  0
VERTEX
  5
2627
  8
0
 10
91.461442826187806
 20
20.03229859591065
 30
0.0
  0
SEQEND
  5
2628
  8
0
  0
POLYLINE
  5
2321
  8
0
 66
     1
 10
0.0
 20
0.0
 30
0.0
 70
     1
  0
VERTEX
  5
2629
  8
0
 10
95.431229553827876
 20
33.507215788841762
 30
0.0
  0
VERTEX
  5
262A
  8
0
 10
92.624166438849471
 20
36.314278903820359
 30
0.0
  0
VERTEX
  5
262B
  8
0
 10
89.817103323870882
 20
33.507215788842011
 30
0.0
  0
VERTEX
  5
262C
  8
0
 10
89.817103323870768
 20
29.3340874972018
 30
0.0
  0
VERTEX
  5
262D
  8
0
 10
91.46144282618809
 20
29.334087497201569
 30
0.0
  0
VERTEX
  5
262E
  8
0
 10
92.624166438849286
 20
28.171363884540419
 30
0.0
  0
VERTEX
  5
262F
  8
0
 10
93.786890051510625
 20
29.334087497201711
 30
0.0
  0
VERTEX
  5
2630
  8
0
 10
95.431229553827748
 20
29.334087497201569
 30
0.0
  0
SEQEND
  5
2631
  8
0
  0
POLYLINE
  5
2322
  8
0
 66
     1
 10
0.0
 20
0.0
 30
0.0
 70
     1
  0
VERTEX
  5
2632
  8
0
 10
88.238807303925114
 20
31.928919768896321
 30
0.0
  0
VERTEX
  5
2633
  8
0
 10
88.238807303924986
 20
27.689747994884581
 30
0.0
  0
VERTEX
  5
2634
  8
0
 10
90.873734691658456
 20
27.689747994884581
 30
0.0
  0
VERTEX
  5
2635
  8
0
 10
91.508142620425886
 20
27.055340066117019
 30
0.0
  0
VERTEX
  5
2636
  8
0
 10
89.13599560086503
 20
24.683193046556259
 30
0.0
  0
VERTEX
  5
2637
  8
0
 10
91.508142620425787
 20
22.311046026995299
 30
0.0
  0
VERTEX
  5
2638
  8
0
 10
90.873734691658115
 20
21.676638098227851
 30
0.0
  0
VERTEX
  5
2639
  8
0
 10
88.238807303924929
 20
21.67663809822794
 30
0.0
  0
VERTEX
  5
263A
  8
0
 10
88.238807303924844
 20
17.96302706056111
 30
0.0
  0
VERTEX
  5
263B
  8
0
 10
84.525196266258277
 20
21.676638098228018
 30
0.0
  0
VERTEX
  5
263C
  8
0
 10
84.525196266258448
 20
28.215308731229769
 30
0.0
  0
SEQEND
  5
263D
  8
0
  0
POLYLINE
  5
2323
  8
0
 66
     1
 10
0.0
 20
0.0
 30
0.0
 70
     1
  0
VERTEX
  5
263E
  8
0
 10
94.467997774516178
 20
27.68974799488447
 30
0.0
  0
VERTEX
  5
263F
  8
0
 10
97.009525573773416
 20
27.689747994884382
 30
0.0
  0
VERTEX
  5
2640
  8
0
 10
97.009525573773956
 20
48.183524770437678
 30
0.0
  0
VERTEX
  5
2641
  8
0
 10
98.421703980054346
 20
49.595703176717969
 30
0.0
  0
VERTEX
  5
2642
  8
0
 10
98.421703980054275
 20
7.7801303844314083
 30
0.0
  0
VERTEX
  5
2643
  8
0
 10
97.009525573773061
 20
9.1923087907126781
 30
0.0
  0
VERTEX
  5
2644
  8
0
 10
97.009525573773303
 20
21.67663809822767
 30
0.0
  0
VERTEX
  5
2645
  8
0
 10
94.467997774515993
 20
21.67663809822777
 30
0.0
  0
VERTEX
  5
2646
  8
0
 10
93.786890051510568
 20
22.357745821233401
 30
0.0
  0
VERTEX
  5
2647
  8
0
 10
96.112337276833273
 20
24.68319304655606
 30
0.0
  0
VERTEX
  5
2648
  8
0
 10
93.786890051510568
 20
27.008640271878921
 30
0.0
  0
SEQEND
  5
2649
  8
0
  0
POLYLINE
  5
2324
  8
0
 66
     1
 10
0.0
 20
0.0
 30
0.0
 70
     1
  0
VERTEX
  5
264A
  8
0
 10
81.255860949757505
 20
24.945973414728879
 30
0.0
  0
VERTEX
  5
264B
  8
0
 10
82.946900246312666
 20
26.637012711284012
 30
0.0
  0
VERTEX
  5
264C
  8
0
 10
82.946900246312524
 20
23.254934118173871
 30
0.0
  0
SEQEND
  5
264D
  8
0
  0
POLYLINE
  5
2325
  8
0
 66
     1
 10
0.0
 20
0.0
 30
0.0
 70
     1
  0
VERTEX
  5
264E
  8
0
 10
82.044385551004382
 20
33.688437685480771
 30
0.0
  0
VERTEX
  5
264F
  8
0
 10
84.525196266258547
 20
32.660852241541953
 30
0.0
  0
VERTEX
  5
2650
  8
0
 10
84.525196266258448
 20
30.447356368076509
 30
0.0
  0
VERTEX
  5
2651
  8
0
 10
88.238807303925171
 20
34.160967405743023
 30
0.0
  0
VERTEX
  5
2652
  8
0
 10
88.238807303925327
 20
39.412806500589511
 30
0.0
  0
VERTEX
  5
2653
  8
0
 10
86.673629361669555
 20
37.847628558333923
 30
0.0
  0
VERTEX
  5
2654
  8
0
 10
84.192818646415191
 20
38.875214002272642
 30
0.0
  0
VERTEX
  5
2655
  8
0
 10
85.711990257105754
 20
35.207609296171263
 30
0.0
  0
SEQEND
  5
2656
  8
0
  0
POLYLINE
  5
2326
  8
0
 66
     1
 10
0.0
 20
0.0
 30
0.0
 70
     1
  0
VERTEX
  5
2657
  8
0
 10
77.3327740163556
 20
31.736824287195869
 30
0.0
  0
VERTEX
  5
2658
  8
0
 10
77.332774016355472
 20
28.869060348131061
 30
0.0
  0
VERTEX
  5
2659
  8
0
 10
80.139837131334104
 20
26.061997233152269
 30
0.0
  0
VERTEX
  5
265A
  8
0
 10
82.946900246312737
 20
28.869060348130741
 30
0.0
  0
VERTEX
  5
265B
  8
0
 10
82.946900246312737
 20
31.606268556701149
 30
0.0
  0
VERTEX
  5
265C
  8
0
 10
79.982242423731449
 20
32.834270034609773
 30
0.0
  0
SEQEND
  5
265D
  8
0
  0
POLYLINE
  5
2327
  8
0
 66
     1
 10
0.0
 20
0.0
 30
0.0
 70
     1
  0
VERTEX
  5
265E
  8
0
 10
77.332774016355401
 20
26.63701271128441
 30
0.0
  0
VERTEX
  5
265F
  8
0
 10
77.332774016355302
 20
23.254934118173662
 30
0.0
  0
VERTEX
  5
2660
  8
0
 10
79.023813312910718
 20
24.945973414729071
 30
0.0
  0
SEQEND
  5
2661
  8
0
  0
POLYLINE
  5
2328
  8
0
 66
     1
 10
0.0
 20
0.0
 30
0.0
 70
     1
  0
VERTEX
  5
2662
  8
0
 10
95.431229553828132
 20
45.61464086507609
 30
0.0
  0
VERTEX
  5
2663
  8
0
 10
95.431229553828132
 20
43.223150157381632
 30
0.0
  0
VERTEX
  5
2664
  8
0
 10
93.740190257273014
 20
44.914189453936849
 30
0.0
  0
VERTEX
  5
2665
  8
0
 10
94.440641668412354
 20
45.614640865076183
 30
0.0
  0
SEQEND
  5
2666
  8
0
  0
POLYLINE
  5
2329
  8
0
 66
     1
 10
0.0
 20
0.0
 30
0.0
 70
     1
  0
VERTEX
  5
2667
  8
0
 10
84.269020576285286
 20
45.614640865076368
 30
0.0
  0
VERTEX
  5
2668
  8
0
 10
88.238807303925498
 20
45.614640865076261
 30
0.0
  0
VERTEX
  5
2669
  8
0
 10
88.238807303925412
 20
41.64485413743617
 30
0.0
  0
VERTEX
  5
266A
  8
0
 10
86.303308818125956
 20
39.709355651636812
 30
0.0
  0
VERTEX
  5
266B
  8
0
 10
83.338650995544427
 20
40.937357129545681
 30
0.0
  0
VERTEX
  5
266C
  8
0
 10
82.241205248130314
 20
43.586825536921602
 30
0.0
  0
SEQEND
  5
266D
  8
0
  0
POLYLINE
  5
232A
  8
0
 66
     1
 10
0.0
 20
0.0
 30
0.0
 70
     1
  0
VERTEX
  5
266E
  8
0
 10
85.847316596230968
 20
47.192936885022071
 30
0.0
  0
VERTEX
  5
266F
  8
0
 10
87.538355892786171
 20
48.883976181577182
 30
0.0
  0
VERTEX
  5
2670
  8
0
 10
88.238807303925498
 20
48.183524770437678
 30
0.0
  0
VERTEX
  5
2671
  8
0
 10
88.238807303925498
 20
47.192936885021879
 30
0.0
  0
SEQEND
  5
2672
  8
0
  0
POLYLINE
  5
232B
  8
0
 66
     1
 10
0.0
 20
0.0
 30
0.0
 70
     1
  0
VERTEX
  5
2673
  8
0
 10
89.817103323871137
 20
45.614640865076261
 30
0.0
  0
VERTEX
  5
2674
  8
0
 10
89.817103323871066
 20
43.223150157381717
 30
0.0
  0
VERTEX
  5
2675
  8
0
 10
91.508142620426284
 20
44.914189453936849
 30
0.0
  0
VERTEX
  5
2676
  8
0
 10
90.807691209287086
 20
45.614640865076261
 30
0.0
  0
SEQEND
  5
2677
  8
0
  0
POLYLINE
  5
232C
  8
0
 66
     1
 10
0.0
 20
0.0
 30
0.0
 70
     1
  0
VERTEX
  5
2678
  8
0
 10
65.773969816202225
 20
40.427864548284887
 30
0.0
  0
VERTEX
  5
2679
  8
0
 10
60.587193499410567
 20
45.614640865076801
 30
0.0
  0
VERTEX
  5
267A
  8
0
 10
67.922402911613332
 20
45.614640865076609
 30
0.0
  0
VERTEX
  5
267B
  8
0
 10
75.75447799641006
 20
42.370489143429268
 30
0.0
  0
VERTEX
  5
267C
  8
0
 10
75.754477996409975
 20
39.332145922048312
 30
0.0
  0
VERTEX
  5
267D
  8
0
 10
73.606044900999066
 20
37.183712826637382
 30
0.0
  0
SEQEND
  5
267E
  8
0
  0
POLYLINE
  5
232D
  8
0
 66
     1
 10
0.0
 20
0.0
 30
0.0
 70
     1
  0
VERTEX
  5
267F
  8
0
 10
83.649847129832892
 20
36.06177694704224
 30
0.0
  0
VERTEX
  5
2680
  8
0
 10
82.130675519142329
 20
39.729381653143733
 30
0.0
  0
VERTEX
  5
2681
  8
0
 10
79.481207111766508
 20
40.826827400557882
 30
0.0
  0
VERTEX
  5
2682
  8
0
 10
77.332774016355671
 20
38.678394305147208
 30
0.0
  0
VERTEX
  5
2683
  8
0
 10
77.3327740163556
 20
35.640051083765798
 30
0.0
  0
VERTEX
  5
2684
  8
0
 10
79.982242423731634
 20
34.542605336351713
 30
0.0
  0
SEQEND
  5
2685
  8
0
  0
POLYLINE
  5
232E
  8
0
 66
     1
 10
0.0
 20
0.0
 30
0.0
 70
     1
  0
VERTEX
  5
2686
  8
0
 10
81.276507868271537
 20
41.791524780416502
 30
0.0
  0
VERTEX
  5
2687
  8
0
 10
79.110886568222853
 20
42.688554493860963
 30
0.0
  0
VERTEX
  5
2688
  8
0
 10
77.332774016355785
 20
40.910441941993831
 30
0.0
  0
VERTEX
  5
2689
  8
0
 10
77.33277401635587
 20
43.425072828270103
 30
0.0
  0
VERTEX
  5
268A
  8
0
 10
72.046689166159155
 20
45.614640865076723
 30
0.0
  0
VERTEX
  5
268B
  8
0
 10
77.768306178095827
 20
45.614640865076453
 30
0.0
  0
VERTEX
  5
268C
  8
0
 10
78.73061375678742
 20
47.937856872727849
 30
0.0
  0
VERTEX
  5
268D
  8
0
 10
79.692921335478772
 20
45.614640865076538
 30
0.0
  0
VERTEX
  5
268E
  8
0
 10
82.036972939438499
 20
45.614640865076453
 30
0.0
  0
VERTEX
  5
268F
  8
0
 10
80.379478154827353
 20
43.957146080465272
 30
0.0
  0
SEQEND
  5
2690
  8
0
  0
POLYLINE
  5
232F
  8
0
 66
     1
 10
0.0
 20
0.0
 30
0.0
 70
     1
  0
VERTEX
  5
2691
  8
0
 10
80.747505020319579
 20
52.807063114977929
 30
0.0
  0
VERTEX
  5
2692
  8
0
 10
79.58478140765834
 20
50.000000000000682
 30
0.0
  0
VERTEX
  5
2693
  8
0
 10
80.747505020319579
 20
47.192936885022071
 30
0.0
  0
VERTEX
  5
2694
  8
0
 10
83.615268959384295
 20
47.192936885022171
 30
0.0
  0
VERTEX
  5
2695
  8
0
 10
86.422332074362942
 20
50.000000000000512
 30
0.0
  0
VERTEX
  5
2696
  8
0
 10
83.615268959384295
 20
52.807063114977808
 30
0.0
  0
SEQEND
  5
2697
  8
0
  0
POLYLINE
  5
2330
  8
0
 66
     1
 10
0.0
 20
0.0
 30
0.0
 70
     1
  0
VERTEX
  5
2698
  8
0
 10
75.754477996409975
 20
37.100098285201582
 30
0.0
  0
VERTEX
  5
2699
  8
0
 10
75.754477996409875
 20
34.585467398925168
 30
0.0
  0
VERTEX
  5
269A
  8
0
 10
77.920099296458588
 20
33.688437685480856
 30
0.0
  0
VERTEX
  5
269B
  8
0
 10
75.754477996409875
 20
32.791407972036723
 30
0.0
  0
VERTEX
  5
269C
  8
0
 10
75.754477996409761
 20
30.44735636807685
 30
0.0
  0
VERTEX
  5
269D
  8
0
 10
74.09698321179863
 20
32.104851152688198
 30
0.0
  0
VERTEX
  5
269E
  8
0
 10
71.77376720414729
 20
31.142543573996772
 30
0.0
  0
VERTEX
  5
269F
  8
0
 10
72.736074782838841
 20
33.465759581647987
 30
0.0
  0
VERTEX
  5
26A0
  8
0
 10
68.690280594346063
 20
37.511553770140921
 30
0.0
  0
VERTEX
  5
26A1
  8
0
 10
73.976365444542765
 20
35.321985733334309
 30
0.0
  0
SEQEND
  5
26A2
  8
0
  0
POLYLINE
  5
2331
  8
0
 66
     1
 10
0.0
 20
0.0
 30
0.0
 70
     1
  0
VERTEX
  5
26A3
  8
0
 10
58.103087094935503
 20
41.896912905065442
 30
0.0
  0
VERTEX
  5
26A4
  8
0
 10
64.879936937553765
 20
39.089849790086639
 30
0.0
  0
VERTEX
  5
26A5
  8
0
 10
70.874347689535881
 20
33.09543903810431
 30
0.0
  0
VERTEX
  5
26A6
  8
0
 10
69.711624076874529
 20
30.288375923125962
 30
0.0
  0
VERTEX
  5
26A7
  8
0
 10
66.904560961896351
 20
29.125652310464918
 30
0.0
  0
VERTEX
  5
26A8
  8
0
 10
60.910150209914057
 20
35.120063062447159
 30
0.0
  0
SEQEND
  5
26A9
  8
0
  0
POLYLINE
  5
2332
  8
0
 66
     1
 10
0.0
 20
0.0
 30
0.0
 70
     1
  0
VERTEX
  5
26AA
  8
0
 10
76.713722493255133
 20
52.807063114977723
 30
0.0
  0
VERTEX
  5
26AB
  8
0
 10
77.876446105916585
 20
50.000000000000682
 30
0.0
  0
VERTEX
  5
26AC
  8
0
 10
76.713722493255133
 20
47.192936885022249
 30
0.0
  0
VERTEX
  5
26AD
  8
0
 10
68.236345509366586
 20
47.192936885022569
 30
0.0
  0
VERTEX
  5
26AE
  8
0
 10
61.459495666748438
 20
50.000000000001037
 30
0.0
  0
VERTEX
  5
26AF
  8
0
 10
68.236345509366771
 20
52.807063114977467
 30
0.0
  0
SEQEND
  5
26B0
  8
0
  0
POLYLINE
  5
2333
  8
0
 66
     1
 10
0.0
 20
0.0
 30
0.0
 70
     1
  0
VERTEX
  5
26B1
  8
0
 10
64.112059254820679
 20
47.192936885022569
 30
0.0
  0
VERTEX
  5
26B2
  8
0
 10
59.397352539475648
 20
49.145832349130181
 30
0.0
  0
VERTEX
  5
26B3
  8
0
 10
57.741767706736887
 20
48.460066657750588
 30
0.0
  0
VERTEX
  5
26B4
  8
0
 10
59.008897479464849
 20
47.192936885022768
 30
0.0
  0
SEQEND
  5
26B5
  8
0
  0
POLYLINE
  5
2334
  8
0
 66
     1
 10
0.0
 20
0.0
 30
0.0
 70
     1
  0
VERTEX
  5
26B6
  8
0
 10
58.355145862563951
 20
45.614640865076801
 30
0.0
  0
VERTEX
  5
26B7
  8
0
 10
61.963626159410069
 20
42.006160568230612
 30
0.0
  0
VERTEX
  5
26B8
  8
0
 10
57.248919444064633
 20
43.95905603233831
 30
0.0
  0
VERTEX
  5
26B9
  8
0
 10
56.563153752685047
 20
45.614640865076943
 30
0.0
  0
SEQEND
  5
26BA
  8
0
  0
POLYLINE
  5
2335
  8
0
 66
     1
 10
0.0
 20
0.0
 30
0.0
 70
     1
  0
VERTEX
  5
26BB
  8
0
 10
75.316806953443944
 20
6.119710360014011
 30
0.0
  0
VERTEX
  5
26BC
  8
0
 10
74.107383546544568
 20
7.3291337669133716
 30
0.0
  0
VERTEX
  5
26BD
  8
0
 10
75.316806953443844
 20
8.5385571738127108
 30
0.0
  0
VERTEX
  5
26BE
  8
0
 10
76.52623036034332
 20
7.3291337669133716
 30
0.0
  0
SEQEND
  5
26BF
  8
0
  0
POLYLINE
  5
2336
  8
0
 66
     1
 10
0.0
 20
0.0
 30
0.0
 70
     1
  0
VERTEX
  5
26C0
  8
0
 10
59.008897479465041
 20
4.5687704461729544
 30
0.0
  0
VERTEX
  5
26C1
  8
0
 10
64.26073657431148
 20
4.5687704461729419
 30
0.0
  0
VERTEX
  5
26C2
  8
0
 10
61.45367345933294
 20
7.3758335611514161
 30
0.0
  0
VERTEX
  5
26C3
  8
0
 10
64.26073657431148
 20
10.182896676129941
 30
0.0
  0
VERTEX
  5
26C4
  8
0
 10
59.008897479465041
 20
10.182896676129941
 30
0.0
  0
VERTEX
  5
26C5
  8
0
 10
56.20183436448665
 20
7.375833561151472
 30
0.0
  0
SEQEND
  5
26C6
  8
0
  0
POLYLINE
  5
2337
  8
0
 66
     1
 10
0.0
 20
0.0
 30
0.0
 70
     1
  0
VERTEX
  5
26C7
  8
0
 10
88.238807303925498
 20
5.5593583315890163
 30
0.0
  0
VERTEX
  5
26C8
  8
0
 10
88.238807303925498
 20
4.5687704461729544
 30
0.0
  0
VERTEX
  5
26C9
  8
0
 10
85.84731659623138
 20
4.5687704461729544
 30
0.0
  0
VERTEX
  5
26CA
  8
0
 10
87.538355892786399
 20
6.2598097427280841
 30
0.0
  0
SEQEND
  5
26CB
  8
0
  0
POLYLINE
  5
2338
  8
0
 66
     1
 10
0.0
 20
0.0
 30
0.0
 70
     1
  0
VERTEX
  5
26CC
  8
0
 10
87.538355892786484
 20
8.4918573795747712
 30
0.0
  0
VERTEX
  5
26CD
  8
0
 10
88.238807303925498
 20
9.192308790713815
 30
0.0
  0
VERTEX
  5
26CE
  8
0
 10
88.238807303925498
 20
10.182896676129941
 30
0.0
  0
VERTEX
  5
26CF
  8
0
 10
85.84731659623138
 20
10.182896676129911
 30
0.0
  0
SEQEND
  5
26D0
  8
0
  0
POLYLINE
  5
2339
  8
0
 66
     1
 10
0.0
 20
0.0
 30
0.0
 70
     1
  0
VERTEX
  5
26D1
  8
0
 10
78.8049777914282
 20
7.3758335611514161
 30
0.0
  0
VERTEX
  5
26D2
  8
0
 10
79.967701404089496
 20
6.2131099484901648
 30
0.0
  0
VERTEX
  5
26D3
  8
0
 10
79.967701404089496
 20
4.5687704461729419
 30
0.0
  0
VERTEX
  5
26D4
  8
0
 10
83.615268959384579
 20
4.5687704461729544
 30
0.0
  0
VERTEX
  5
26D5
  8
0
 10
86.422332074363212
 20
7.3758335611513699
 30
0.0
  0
VERTEX
  5
26D6
  8
0
 10
83.615268959384579
 20
10.182896676129911
 30
0.0
  0
VERTEX
  5
26D7
  8
0
 10
79.967701404089496
 20
10.182896676129911
 30
0.0
  0
VERTEX
  5
26D8
  8
0
 10
79.967701404089496
 20
8.5385571738127108
 30
0.0
  0
SEQEND
  5
26D9
  8
0
  0
POLYLINE
  5
233A
  8
0
 66
     1
 10
0.0
 20
0.0
 30
0.0
 70
     1
  0
VERTEX
  5
26DA
  8
0
 10
66.492784211158209
 20
4.5687704461729419
 30
0.0
  0
VERTEX
  5
26DB
  8
0
 10
63.685721096179691
 20
7.375833561151472
 30
0.0
  0
VERTEX
  5
26DC
  8
0
 10
66.492784211158209
 20
10.182896676129941
 30
0.0
  0
VERTEX
  5
26DD
  8
0
 10
70.665912502798435
 20
10.182896676129941
 30
0.0
  0
VERTEX
  5
26DE
  8
0
 10
70.665912502798534
 20
8.5385571738125972
 30
0.0
  0
VERTEX
  5
26DF
  8
0
 10
71.828636115459702
 20
7.3758335611513699
 30
0.0
  0
VERTEX
  5
26E0
  8
0
 10
70.665912502798435
 20
6.2131099484900627
 30
0.0
  0
VERTEX
  5
26E1
  8
0
 10
70.665912502798435
 20
4.5687704461729082
 30
0.0
  0
SEQEND
  5
26E2
  8
0
  0
POLYLINE
  5
233B
  8
0
 66
     1
 10
0.0
 20
0.0
 30
0.0
 70
     1
  0
VERTEX
  5
26E3
  8
0
 10
68.071080231103863
 20
11.76119269607557
 30
0.0
  0
VERTEX
  5
26E4
  8
0
 10
72.310252005115629
 20
11.76119269607562
 30
0.0
  0
VERTEX
  5
26E5
  8
0
 10
72.310252005115629
 20
9.1262653083421732
 30
0.0
  0
VERTEX
  5
26E6
  8
0
 10
72.944659933883102
 20
8.4918573795747143
 30
0.0
  0
VERTEX
  5
26E7
  8
0
 10
75.316806953443944
 20
10.86400439913556
 30
0.0
  0
VERTEX
  5
26E8
  8
0
 10
77.688953973004857
 20
8.4918573795747712
 30
0.0
  0
VERTEX
  5
26E9
  8
0
 10
78.323361901772373
 20
9.1262653083423118
 30
0.0
  0
VERTEX
  5
26EA
  8
0
 10
78.323361901772273
 20
11.76119269607562
 30
0.0
  0
VERTEX
  5
26EB
  8
0
 10
82.036972939439096
 20
11.76119269607557
 30
0.0
  0
VERTEX
  5
26EC
  8
0
 10
78.323361901772273
 20
15.47480373374235
 30
0.0
  0
VERTEX
  5
26ED
  8
0
 10
71.784691268770572
 20
15.47480373374227
 30
0.0
  0
SEQEND
  5
26EE
  8
0
  0
POLYLINE
  5
233C
  8
0
 66
     1
 10
0.0
 20
0.0
 30
0.0
 70
     1
  0
VERTEX
  5
26EF
  8
0
 10
72.310252005115629
 20
5.5320022254845007
 30
0.0
  0
VERTEX
  5
26F0
  8
0
 10
72.310252005115629
 20
2.9904744262272458
 30
0.0
  0
VERTEX
  5
26F1
  8
0
 10
51.8164752295623
 20
2.9904744262272458
 30
0.0
  0
VERTEX
  5
26F2
  8
0
 10
50.404296823280859
 20
1.5782960199457241
 30
0.0
  0
VERTEX
  5
26F3
  8
0
 10
92.219869615568697
 20
1.5782960199457809
 30
0.0
  0
VERTEX
  5
26F4
  8
0
 10
90.807691209287356
 20
2.9904744262272231
 30
0.0
  0
VERTEX
  5
26F5
  8
0
 10
78.323361901772373
 20
2.9904744262272458
 30
0.0
  0
VERTEX
  5
26F6
  8
0
 10
78.323361901772373
 20
5.5320022254844439
 30
0.0
  0
VERTEX
  5
26F7
  8
0
 10
77.642254178766677
 20
6.2131099484900059
 30
0.0
  0
VERTEX
  5
26F8
  8
0
 10
75.316806953443944
 20
3.8876627231672778
 30
0.0
  0
VERTEX
  5
26F9
  8
0
 10
72.991359728121154
 20
6.2131099484900627
 30
0.0
  0
SEQEND
  5
26FA
  8
0
  0
POLYLINE
  5
233D
  8
0
 66
     1
 10
0.0
 20
0.0
 30
0.0
 70
     1
  0
VERTEX
  5
26FB
  8
0
 10
75.054026585271501
 20
18.744139050243181
 30
0.0
  0
VERTEX
  5
26FC
  8
0
 10
73.362987288716369
 20
17.053099753688041
 30
0.0
  0
VERTEX
  5
26FD
  8
0
 10
76.745065881826534
 20
17.053099753688041
 30
0.0
  0
SEQEND
  5
26FE
  8
0
  0
POLYLINE
  5
233E
  8
0
 66
     1
 10
0.0
 20
0.0
 30
0.0
 70
     1
  0
VERTEX
  5
26FF
  8
0
 10
66.311562314519577
 20
17.955614448996471
 30
0.0
  0
VERTEX
  5
2700
  8
0
 10
67.339147758458338
 20
15.47480373374227
 30
0.0
  0
VERTEX
  5
2701
  8
0
 10
69.5526436319238
 20
15.47480373374227
 30
0.0
  0
VERTEX
  5
2702
  8
0
 10
65.839032594257205
 20
11.76119269607562
 30
0.0
  0
VERTEX
  5
2703
  8
0
 10
60.587193499410638
 20
11.76119269607562
 30
0.0
  0
VERTEX
  5
2704
  8
0
 10
62.152371441666403
 20
13.326370638331371
 30
0.0
  0
VERTEX
  5
2705
  8
0
 10
61.12478599772767
 20
15.80718135358569
 30
0.0
  0
VERTEX
  5
2706
  8
0
 10
64.792390703828985
 20
14.28800974289512
 30
0.0
  0
SEQEND
  5
2707
  8
0
  0
POLYLINE
  5
233F
  8
0
 66
     1
 10
0.0
 20
0.0
 30
0.0
 70
     1
  0
VERTEX
  5
2708
  8
0
 10
68.263175712804653
 20
22.667225983645171
 30
0.0
  0
VERTEX
  5
2709
  8
0
 10
71.130939651869454
 20
22.667225983645221
 30
0.0
  0
VERTEX
  5
270A
  8
0
 10
73.938002766848157
 20
19.860162868666521
 30
0.0
  0
VERTEX
  5
270B
  8
0
 10
71.130939651869639
 20
17.053099753688041
 30
0.0
  0
VERTEX
  5
270C
  8
0
 10
68.393731443299174
 20
17.053099753688041
 30
0.0
  0
VERTEX
  5
270D
  8
0
 10
67.165729965390597
 20
20.017757576269389
 30
0.0
  0
SEQEND
  5
270E
  8
0
  0
POLYLINE
  5
2340
  8
0
 66
     1
 10
0.0
 20
0.0
 30
0.0
 70
     1
  0
VERTEX
  5
270F
  8
0
 10
73.362987288716099
 20
22.667225983645171
 30
0.0
  0
VERTEX
  5
2710
  8
0
 10
76.745065881826847
 20
22.667225983645171
 30
0.0
  0
VERTEX
  5
2711
  8
0
 10
75.054026585271373
 20
20.976186687089861
 30
0.0
  0
SEQEND
  5
2712
  8
0
  0
POLYLINE
  5
2341
  8
0
 66
     1
 10
0.0
 20
0.0
 30
0.0
 70
     1
  0
VERTEX
  5
2713
  8
0
 10
54.385359134923966
 20
4.5687704461729419
 30
0.0
  0
VERTEX
  5
2714
  8
0
 10
56.77684984261839
 20
4.5687704461729419
 30
0.0
  0
VERTEX
  5
2715
  8
0
 10
55.0858105460633
 20
6.2598097427281063
 30
0.0
  0
VERTEX
  5
2716
  8
0
 10
54.385359134923966
 20
5.5593583315887773
 30
0.0
  0
SEQEND
  5
2717
  8
0
  0
POLYLINE
  5
2342
  8
0
 66
     1
 10
0.0
 20
0.0
 30
0.0
 70
     1
  0
VERTEX
  5
2718
  8
0
 10
54.385359134923966
 20
15.730979423715841
 30
0.0
  0
VERTEX
  5
2719
  8
0
 10
54.385359134923966
 20
11.76119269607562
 30
0.0
  0
VERTEX
  5
271A
  8
0
 10
58.355145862564058
 20
11.76119269607562
 30
0.0
  0
VERTEX
  5
271B
  8
0
 10
60.2906443483635
 20
13.696691181875041
 30
0.0
  0
VERTEX
  5
271C
  8
0
 10
59.062642870454667
 20
16.661349004456579
 30
0.0
  0
VERTEX
  5
271D
  8
0
 10
56.413174463078761
 20
17.758794751870742
 30
0.0
  0
SEQEND
  5
271E
  8
0
  0
POLYLINE
  5
2343
  8
0
 66
     1
 10
0.0
 20
0.0
 30
0.0
 70
     1
  0
VERTEX
  5
271F
  8
0
 10
52.807063114978249
 20
14.152683403770119
 30
0.0
  0
VERTEX
  5
2720
  8
0
 10
51.116023818423017
 20
12.46164410721495
 30
0.0
  0
VERTEX
  5
2721
  8
0
 10
51.816475229562478
 20
11.76119269607562
 30
0.0
  0
VERTEX
  5
2722
  8
0
 10
52.80706311497832
 20
11.76119269607562
 30
0.0
  0
SEQEND
  5
2723
  8
0
  0
POLYLINE
  5
2344
  8
0
 66
     1
 10
0.0
 20
0.0
 30
0.0
 70
     1
  0
VERTEX
  5
2724
  8
0
 10
54.385359134923966
 20
10.182896676129941
 30
0.0
  0
VERTEX
  5
2725
  8
0
 10
56.776849842618503
 20
10.18289667612998
 30
0.0
  0
VERTEX
  5
2726
  8
0
 10
55.0858105460633
 20
8.4918573795747712
 30
0.0
  0
VERTEX
  5
2727
  8
0
 10
54.385359134923966
 20
9.1923087907140655
 30
0.0
  0
SEQEND
  5
2728
  8
0
  0
POLYLINE
  5
2345
  8
0
 66
     1
 10
0.0
 20
0.0
 30
0.0
 70
     1
  0
VERTEX
  5
2729
  8
0
 10
59.572135451715873
 20
34.226030183798677
 30
0.0
  0
VERTEX
  5
272A
  8
0
 10
54.385359134924151
 20
39.41280650059052
 30
0.0
  0
VERTEX
  5
272B
  8
0
 10
54.385359134924151
 20
32.077597088387783
 30
0.0
  0
VERTEX
  5
272C
  8
0
 10
57.629510856571329
 20
24.245522003590949
 30
0.0
  0
VERTEX
  5
272D
  8
0
 10
60.667854077952263
 20
24.245522003590949
 30
0.0
  0
VERTEX
  5
272E
  8
0
 10
62.816287173363179
 20
26.39395509900179
 30
0.0
  0
SEQEND
  5
272F
  8
0
  0
POLYLINE
  5
2346
  8
0
 66
     1
 10
0.0
 20
0.0
 30
0.0
 70
     1
  0
VERTEX
  5
2730
  8
0
 10
63.938223052958172
 20
16.350152870167971
 30
0.0
  0
VERTEX
  5
2731
  8
0
 10
60.270618346856651
 20
17.869324480858591
 30
0.0
  0
VERTEX
  5
2732
  8
0
 10
59.173172599442552
 20
20.518792888234469
 30
0.0
  0
VERTEX
  5
2733
  8
0
 10
61.321605694853289
 20
22.667225983645221
 30
0.0
  0
VERTEX
  5
2734
  8
0
 10
64.359948916234686
 20
22.667225983645292
 30
0.0
  0
VERTEX
  5
2735
  8
0
 10
65.457394663648685
 20
20.017757576269268
 30
0.0
  0
SEQEND
  5
2736
  8
0
  0
POLYLINE
  5
2347
  8
0
 66
     1
 10
0.0
 20
0.0
 30
0.0
 70
     1
  0
VERTEX
  5
2737
  8
0
 10
58.208475219583903
 20
18.72349213172944
 30
0.0
  0
VERTEX
  5
2738
  8
0
 10
57.311445506139542
 20
20.889113431778181
 30
0.0
  0
VERTEX
  5
2739
  8
0
 10
59.089558058006652
 20
22.667225983645221
 30
0.0
  0
VERTEX
  5
273A
  8
0
 10
56.574927171730337
 20
22.667225983645221
 30
0.0
  0
VERTEX
  5
273B
  8
0
 10
54.385359134923966
 20
27.953310833842
 30
0.0
  0
VERTEX
  5
273C
  8
0
 10
54.385359134924038
 20
22.23169382190526
 30
0.0
  0
VERTEX
  5
273D
  8
0
 10
52.062143127272662
 20
21.269386243213749
 30
0.0
  0
VERTEX
  5
273E
  8
0
 10
54.385359134923966
 20
20.30707866452228
 30
0.0
  0
VERTEX
  5
273F
  8
0
 10
54.385359134923966
 20
17.963027060562538
 30
0.0
  0
VERTEX
  5
2740
  8
0
 10
56.042853919535062
 20
19.620521845173698
 30
0.0
  0
SEQEND
  5
2741
  8
0
  0
POLYLINE
  5
2348
  8
0
 66
     1
 10
0.0
 20
0.0
 30
0.0
 70
     1
  0
VERTEX
  5
2742
  8
0
 10
47.192936885021659
 20
19.252494979681561
 30
0.0
  0
VERTEX
  5
2743
  8
0
 10
49.999999999999808
 20
20.415218592342871
 30
0.0
  0
VERTEX
  5
2744
  8
0
 10
52.80706311497832
 20
19.252494979681561
 30
0.0
  0
VERTEX
  5
2745
  8
0
 10
52.807063114978249
 20
16.38473104061681
 30
0.0
  0
VERTEX
  5
2746
  8
0
 10
49.999999999999808
 20
13.577667925638311
 30
0.0
  0
VERTEX
  5
2747
  8
0
 10
47.192936885021737
 20
16.38473104061681
 30
0.0
  0
SEQEND
  5
2748
  8
0
  0
POLYLINE
  5
2349
  8
0
 66
     1
 10
0.0
 20
0.0
 30
0.0
 70
     1
  0
VERTEX
  5
2749
  8
0
 10
62.899901714799029
 20
24.245522003590949
 30
0.0
  0
VERTEX
  5
274A
  8
0
 10
65.414532601075422
 20
24.245522003590949
 30
0.0
  0
VERTEX
  5
274B
  8
0
 10
66.311562314519577
 20
22.07990070354224
 30
0.0
  0
VERTEX
  5
274C
  8
0
 10
67.208592027963888
 20
24.245522003590949
 30
0.0
  0
VERTEX
  5
274D
  8
0
 10
69.552643631923729
 20
24.245522003590899
 30
0.0
  0
VERTEX
  5
274E
  8
0
 10
67.895148847312313
 20
25.903016788202169
 30
0.0
  0
VERTEX
  5
274F
  8
0
 10
68.857456426003864
 20
28.226232795853409
 30
0.0
  0
VERTEX
  5
2750
  8
0
 10
66.53424041835261
 20
27.263925217162029
 30
0.0
  0
VERTEX
  5
2751
  8
0
 10
62.48844622985969
 20
31.30971940565486
 30
0.0
  0
VERTEX
  5
2752
  8
0
 10
64.678014266666267
 20
26.023634555458081
 30
0.0
  0
SEQEND
  5
2753
  8
0
  0
POLYLINE
  5
234A
  8
0
 66
     1
 10
0.0
 20
0.0
 30
0.0
 70
     1
  0
VERTEX
  5
2754
  8
0
 10
47.192936885021737
 20
23.286277506745979
 30
0.0
  0
VERTEX
  5
2755
  8
0
 10
49.999999999999808
 20
22.123553894084701
 30
0.0
  0
VERTEX
  5
2756
  8
0
 10
52.807063114978249
 20
23.286277506745979
 30
0.0
  0
VERTEX
  5
2757
  8
0
 10
52.807063114978249
 20
31.763654490634568
 30
0.0
  0
VERTEX
  5
2758
  8
0
 10
49.999999999999808
 20
38.540504333252699
 30
0.0
  0
VERTEX
  5
2759
  8
0
 10
47.192936885021737
 20
31.763654490634408
 30
0.0
  0
SEQEND
  5
275A
  8
0
  0
POLYLINE
  5
234B
  8
0
 66
     1
 10
0.0
 20
0.0
 30
0.0
 70
     1
  0
VERTEX
  5
275B
  8
0
 10
52.80706311497832
 20
35.887940745180423
 30
0.0
  0
VERTEX
  5
275C
  8
0
 10
50.854167650870778
 20
40.602647460525617
 30
0.0
  0
VERTEX
  5
275D
  8
0
 10
51.539933342250308
 20
42.258232293264342
 30
0.0
  0
VERTEX
  5
275E
  8
0
 10
52.807063114978249
 20
40.991102520536309
 30
0.0
  0
SEQEND
  5
275F
  8
0
  0
POLYLINE
  5
234C
  8
0
 66
     1
 10
0.0
 20
0.0
 30
0.0
 70
     1
  0
VERTEX
  5
2760
  8
0
 10
54.385359134924151
 20
41.644854137437207
 30
0.0
  0
VERTEX
  5
2761
  8
0
 10
57.993839431770247
 20
38.036373840591018
 30
0.0
  0
VERTEX
  5
2762
  8
0
 10
56.040943967662677
 20
42.751080555936468
 30
0.0
  0
VERTEX
  5
2763
  8
0
 10
54.385359134924151
 20
43.436846247316019
 30
0.0
  0
SEQEND
  5
2764
  8
0
  0
POLYLINE
  5
234D
  8
0
 66
     1
 10
0.0
 20
0.0
 30
0.0
 70
     1
  0
VERTEX
  5
2765
  8
0
 10
6.1197103600133911
 20
24.68319304655617
 30
0.0
  0
VERTEX
  5
2766
  8
0
 10
7.3291337669127303
 20
25.89261645345557
 30
0.0
  0
VERTEX
  5
2767
  8
0
 10
8.5385571738121264
 20
24.683193046556259
 30
0.0
  0
VERTEX
  5
2768
  8
0
 10
7.3291337669127978
 20
23.47376963965678
 30
0.0
  0
SEQEND
  5
2769
  8
0
  0
POLYLINE
  5
234E
  8
0
 66
     1
 10
0.0
 20
0.0
 30
0.0
 70
     1
  0
VERTEX
  5
276A
  8
0
 10
4.5687704461719481
 20
40.991102520534959
 30
0.0
  0
VERTEX
  5
276B
  8
0
 10
4.5687704461720378
 20
35.739263425688563
 30
0.0
  0
VERTEX
  5
276C
  8
0
 10
7.3758335611505572
 20
38.546326540667117
 30
0.0
  0
VERTEX
  5
276D
  8
0
 10
10.18289667612912
 20
35.739263425688733
 30
0.0
  0
VERTEX
  5
276E
  8
0
 10
10.18289667612895
 20
40.991102520535172
 30
0.0
  0
VERTEX
  5
276F
  8
0
 10
7.3758335611504551
 20
43.798165635513463
 30
0.0
  0
SEQEND
  5
2770
  8
0
  0
POLYLINE
  5
234F
  8
0
 66
     1
 10
0.0
 20
0.0
 30
0.0
 70
     1
  0
VERTEX
  5
2771
  8
0
 10
5.5593583315887818
 20
11.761192696074589
 30
0.0
  0
VERTEX
  5
2772
  8
0
 10
4.5687704461727199
 20
11.761192696074479
 30
0.0
  0
VERTEX
  5
2773
  8
0
 10
4.568770446172584
 20
14.15268340376865
 30
0.0
  0
VERTEX
  5
2774
  8
0
 10
6.2598097427278496
 20
12.46164410721372
 30
0.0
  0
SEQEND
  5
2775
  8
0
  0
POLYLINE
  5
2350
  8
0
 66
     1
 10
0.0
 20
0.0
 30
0.0
 70
     1
  0
VERTEX
  5
2776
  8
0
 10
8.4918573795745012
 20
12.461644107213621
 30
0.0
  0
VERTEX
  5
2777
  8
0
 10
9.1923087907135255
 20
11.761192696074669
 30
0.0
  0
VERTEX
  5
2778
  8
0
 10
10.182896676129721
 20
11.761192696074669
 30
0.0
  0
VERTEX
  5
2779
  8
0
 10
10.182896676129619
 20
14.15268340376884
 30
0.0
  0
SEQEND
  5
277A
  8
0
  0
POLYLINE
  5
2351
  8
0
 66
     1
 10
0.0
 20
0.0
 30
0.0
 70
     1
  0
VERTEX
  5
277B
  8
0
 10
7.3758335611509214
 20
21.19502220857192
 30
0.0
  0
VERTEX
  5
277C
  8
0
 10
6.213109948489727
 20
20.03229859591065
 30
0.0
  0
VERTEX
  5
277D
  8
0
 10
4.568770446172481
 20
20.03229859591055
 30
0.0
  0
VERTEX
  5
277E
  8
0
 10
4.568770446172481
 20
16.38473104061541
 30
0.0
  0
VERTEX
  5
277F
  8
0
 10
7.3758335611511026
 20
13.5776679256369
 30
0.0
  0
VERTEX
  5
2780
  8
0
 10
10.18289667612952
 20
16.384731040615598
 30
0.0
  0
VERTEX
  5
2781
  8
0
 10
10.182896676129451
 20
20.032298595910731
 30
0.0
  0
VERTEX
  5
2782
  8
0
 10
8.5385571738122064
 20
20.03229859591065
 30
0.0
  0
SEQEND
  5
2783
  8
0
  0
POLYLINE
  5
2352
  8
0
 66
     1
 10
0.0
 20
0.0
 30
0.0
 70
     1
  0
VERTEX
  5
2784
  8
0
 10
4.5687704461721301
 20
33.507215788841762
 30
0.0
  0
VERTEX
  5
2785
  8
0
 10
7.3758335611505572
 20
36.314278903820359
 30
0.0
  0
VERTEX
  5
2786
  8
0
 10
10.18289667612912
 20
33.507215788842011
 30
0.0
  0
VERTEX
  5
2787
  8
0
 10
10.182896676129269
 20
29.3340874972018
 30
0.0
  0
VERTEX
  5
2788
  8
0
 10
8.5385571738119328
 20
29.334087497201569
 30
0.0
  0
VERTEX
  5
2789
  8
0
 10
7.37583356115075
 20
28.171363884540419
 30
0.0
  0
VERTEX
  5
278A
  8
0
 10
6.2131099484893637
 20
29.334087497201711
 30
0.0
  0
VERTEX
  5
278B
  8
0
 10
4.5687704461722198
 20
29.334087497201569
 30
0.0
  0
SEQEND
  5
278C
  8
0
  0
POLYLINE
  5
2353
  8
0
 66
     1
 10
0.0
 20
0.0
 30
0.0
 70
     1
  0
VERTEX
  5
278D
  8
0
 10
11.761192696074881
 20
31.928919768896321
 30
0.0
  0
VERTEX
  5
278E
  8
0
 10
11.761192696074991
 20
27.689747994884581
 30
0.0
  0
VERTEX
  5
278F
  8
0
 10
9.1262653083415781
 20
27.689747994884581
 30
0.0
  0
VERTEX
  5
2790
  8
0
 10
8.4918573795740944
 20
27.055340066117019
 30
0.0
  0
VERTEX
  5
2791
  8
0
 10
10.86400439913494
 20
24.683193046556259
 30
0.0
  0
VERTEX
  5
2792
  8
0
 10
8.4918573795742311
 20
22.311046026995299
 30
0.0
  0
VERTEX
  5
2793
  8
0
 10
9.1262653083418623
 20
21.676638098227851
 30
0.0
  0
VERTEX
  5
2794
  8
0
 10
11.76119269607506
 20
21.67663809822794
 30
0.0
  0
VERTEX
  5
2795
  8
0
 10
11.76119269607516
 20
17.96302706056111
 30
0.0
  0
VERTEX
  5
2796
  8
0
 10
15.47480373374175
 20
21.676638098228018
 30
0.0
  0
VERTEX
  5
2797
  8
0
 10
15.47480373374156
 20
28.215308731229769
 30
0.0
  0
SEQEND
  5
2798
  8
0
  0
POLYLINE
  5
2354
  8
0
 66
     1
 10
0.0
 20
0.0
 30
0.0
 70
     1
  0
VERTEX
  5
2799
  8
0
 10
5.5320022254838017
 20
27.68974799488447
 30
0.0
  0
VERTEX
  5
279A
  8
0
 10
2.9904744262265801
 20
27.689747994884382
 30
0.0
  0
VERTEX
  5
279B
  8
0
 10
2.9904744262260459
 20
48.183524770437678
 30
0.0
  0
VERTEX
  5
279C
  8
0
 10
1.578296019945719
 20
49.595703176717898
 30
0.0
  0
VERTEX
  5
279D
  8
0
 10
1.5782960199457641
 20
7.7801303844313852
 30
0.0
  0
VERTEX
  5
279E
  8
0
 10
2.9904744262269558
 20
9.1923087907126781
 30
0.0
  0
VERTEX
  5
279F
  8
0
 10
2.9904744262266831
 20
21.67663809822767
 30
0.0
  0
VERTEX
  5
27A0
  8
0
 10
5.5320022254839838
 20
21.67663809822777
 30
0.0
  0
VERTEX
  5
27A1
  8
0
 10
6.2131099484894659
 20
22.357745821233401
 30
0.0
  0
VERTEX
  5
27A2
  8
0
 10
3.887662723166704
 20
24.68319304655606
 30
0.0
  0
VERTEX
  5
27A3
  8
0
 10
6.2131099484894659
 20
27.008640271878921
 30
0.0
  0
SEQEND
  5
27A4
  8
0
  0
POLYLINE
  5
2355
  8
0
 66
     1
 10
0.0
 20
0.0
 30
0.0
 70
     1
  0
VERTEX
  5
27A5
  8
0
 10
18.74413905024252
 20
24.945973414728879
 30
0.0
  0
VERTEX
  5
27A6
  8
0
 10
17.053099753687398
 20
26.637012711284012
 30
0.0
  0
VERTEX
  5
27A7
  8
0
 10
17.053099753687501
 20
23.254934118173871
 30
0.0
  0
SEQEND
  5
27A8
  8
0
  0
POLYLINE
  5
2356
  8
0
 66
     1
 10
0.0
 20
0.0
 30
0.0
 70
     1
  0
VERTEX
  5
27A9
  8
0
 10
17.955614448995611
 20
33.688437685480771
 30
0.0
  0
VERTEX
  5
27AA
  8
0
 10
15.47480373374146
 20
32.660852241541953
 30
0.0
  0
VERTEX
  5
27AB
  8
0
 10
15.47480373374156
 20
30.447356368076509
 30
0.0
  0
VERTEX
  5
27AC
  8
0
 10
11.76119269607479
 20
34.160967405743023
 30
0.0
  0
VERTEX
  5
27AD
  8
0
 10
11.76119269607466
 20
39.412806500589511
 30
0.0
  0
VERTEX
  5
27AE
  8
0
 10
13.32637063833049
 20
37.847628558333923
 30
0.0
  0
VERTEX
  5
27AF
  8
0
 10
15.80718135358485
 20
38.875214002272642
 30
0.0
  0
VERTEX
  5
27B0
  8
0
 10
14.288009742894239
 20
35.207609296171263
 30
0.0
  0
SEQEND
  5
27B1
  8
0
  0
POLYLINE
  5
2357
  8
0
 66
     1
 10
0.0
 20
0.0
 30
0.0
 70
     1
  0
VERTEX
  5
27B2
  8
0
 10
22.667225983644389
 20
31.736824287195869
 30
0.0
  0
VERTEX
  5
27B3
  8
0
 10
22.667225983644489
 20
28.869060348131061
 30
0.0
  0
VERTEX
  5
27B4
  8
0
 10
19.860162868665888
 20
26.061997233152269
 30
0.0
  0
VERTEX
  5
27B5
  8
0
 10
17.053099753687292
 20
28.869060348130741
 30
0.0
  0
VERTEX
  5
27B6
  8
0
 10
17.053099753687292
 20
31.606268556701149
 30
0.0
  0
VERTEX
  5
27B7
  8
0
 10
20.017757576268561
 20
32.834270034609773
 30
0.0
  0
SEQEND
  5
27B8
  8
0
  0
POLYLINE
  5
2358
  8
0
 66
     1
 10
0.0
 20
0.0
 30
0.0
 70
     1
  0
VERTEX
  5
27B9
  8
0
 10
22.667225983644599
 20
26.63701271128441
 30
0.0
  0
VERTEX
  5
27BA
  8
0
 10
22.667225983644691
 20
23.254934118173662
 30
0.0
  0
VERTEX
  5
27BB
  8
0
 10
20.976186687089271
 20
24.945973414729071
 30
0.0
  0
SEQEND
  5
27BC
  8
0
  0
POLYLINE
  5
2359
  8
0
 66
     1
 10
0.0
 20
0.0
 30
0.0
 70
     1
  0
VERTEX
  5
27BD
  8
0
 10
4.5687704461718557
 20
45.61464086507609
 30
0.0
  0
VERTEX
  5
27BE
  8
0
 10
4.5687704461718557
 20
43.223150157381632
 30
0.0
  0
VERTEX
  5
27BF
  8
0
 10
6.2598097427269863
 20
44.914189453936849
 30
0.0
  0
VERTEX
  5
27C0
  8
0
 10
5.5593583315876449
 20
45.614640865076183
 30
0.0
  0
SEQEND
  5
27C1
  8
0
  0
POLYLINE
  5
235A
  8
0
 66
     1
 10
0.0
 20
0.0
 30
0.0
 70
     1
  0
VERTEX
  5
27C2
  8
0
 10
15.73097942371472
 20
45.614640865076368
 30
0.0
  0
VERTEX
  5
27C3
  8
0
 10
11.76119269607449
 20
45.614640865076261
 30
0.0
  0
VERTEX
  5
27C4
  8
0
 10
11.761192696074559
 20
41.64485413743617
 30
0.0
  0
VERTEX
  5
27C5
  8
0
 10
13.69669118187408
 20
39.709355651636812
 30
0.0
  0
VERTEX
  5
27C6
  8
0
 10
16.661349004455619
 20
40.937357129545681
 30
0.0
  0
VERTEX
  5
27C7
  8
0
 10
17.758794751869662
 20
43.586825536921602
 30
0.0
  0
SEQEND
  5
27C8
  8
0
  0
POLYLINE
  5
235B
  8
0
 66
     1
 10
0.0
 20
0.0
 30
0.0
 70
     1
  0
VERTEX
  5
27C9
  8
0
 10
14.152683403768989
 20
47.192936885022071
 30
0.0
  0
VERTEX
  5
27CA
  8
0
 10
12.46164410721379
 20
48.883976181577182
 30
0.0
  0
VERTEX
  5
27CB
  8
0
 10
11.76119269607449
 20
48.183524770437678
 30
0.0
  0
VERTEX
  5
27CC
  8
0
 10
11.76119269607449
 20
47.192936885021879
 30
0.0
  0
SEQEND
  5
27CD
  8
0
  0
POLYLINE
  5
235C
  8
0
 66
     1
 10
0.0
 20
0.0
 30
0.0
 70
     1
  0
VERTEX
  5
27CE
  8
0
 10
10.18289667612885
 20
45.614640865076261
 30
0.0
  0
VERTEX
  5
27CF
  8
0
 10
10.18289667612895
 20
43.223150157381717
 30
0.0
  0
VERTEX
  5
27D0
  8
0
 10
8.4918573795737196
 20
44.914189453936849
 30
0.0
  0
VERTEX
  5
27D1
  8
0
 10
9.192308790712957
 20
45.614640865076261
 30
0.0
  0
SEQEND
  5
27D2
  8
0
  0
POLYLINE
  5
235D
  8
0
 66
     1
 10
0.0
 20
0.0
 30
0.0
 70
     1
  0
VERTEX
  5
27D3
  8
0
 10
34.226030183797768
 20
40.427864548284887
 30
0.0
  0
VERTEX
  5
27D4
  8
0
 10
39.412806500589419
 20
45.614640865076801
 30
0.0
  0
VERTEX
  5
27D5
  8
0
 10
32.077597088386653
 20
45.614640865076609
 30
0.0
  0
VERTEX
  5
27D6
  8
0
 10
24.245522003589951
 20
42.370489143429268
 30
0.0
  0
VERTEX
  5
27D7
  8
0
 10
24.24552200359004
 20
39.332145922048312
 30
0.0
  0
VERTEX
  5
27D8
  8
0
 10
26.393955099000959
 20
37.183712826637382
 30
0.0
  0
SEQEND
  5
27D9
  8
0
  0
POLYLINE
  5
235E
  8
0
 66
     1
 10
0.0
 20
0.0
 30
0.0
 70
     1
  0
VERTEX
  5
27DA
  8
0
 10
16.350152870167079
 20
36.06177694704224
 30
0.0
  0
VERTEX
  5
27DB
  8
0
 10
17.869324480857671
 20
39.729381653143733
 30
0.0
  0
VERTEX
  5
27DC
  8
0
 10
20.51879288823347
 20
40.826827400557882
 30
0.0
  0
VERTEX
  5
27DD
  8
0
 10
22.667225983644311
 20
38.678394305147208
 30
0.0
  0
VERTEX
  5
27DE
  8
0
 10
22.667225983644389
 20
35.640051083765798
 30
0.0
  0
VERTEX
  5
27DF
  8
0
 10
20.017757576268391
 20
34.542605336351713
 30
0.0
  0
SEQEND
  5
27E0
  8
0
  0
POLYLINE
  5
235F
  8
0
 66
     1
 10
0.0
 20
0.0
 30
0.0
 70
     1
  0
VERTEX
  5
27E1
  8
0
 10
18.723492131728449
 20
41.791524780416502
 30
0.0
  0
VERTEX
  5
27E2
  8
0
 10
20.889113431777151
 20
42.688554493860963
 30
0.0
  0
VERTEX
  5
27E3
  8
0
 10
22.667225983644219
 20
40.910441941993831
 30
0.0
  0
VERTEX
  5
27E4
  8
0
 10
22.667225983644119
 20
43.425072828270103
 30
0.0
  0
VERTEX
  5
27E5
  8
0
 10
27.95331083384086
 20
45.614640865076723
 30
0.0
  0
VERTEX
  5
27E6
  8
0
 10
22.231693821904191
 20
45.614640865076453
 30
0.0
  0
VERTEX
  5
27E7
  8
0
 10
21.269386243212558
 20
47.937856872727849
 30
0.0
  0
VERTEX
  5
27E8
  8
0
 10
20.307078664521189
 20
45.614640865076538
 30
0.0
  0
VERTEX
  5
27E9
  8
0
 10
17.96302706056149
 20
45.614640865076453
 30
0.0
  0
VERTEX
  5
27EA
  8
0
 10
19.620521845172661
 20
43.957146080465272
 30
0.0
  0
SEQEND
  5
27EB
  8
0
  0
POLYLINE
  5
2360
  8
0
 66
     1
 10
0.0
 20
0.0
 30
0.0
 70
     1
  0
VERTEX
  5
27EC
  8
0
 10
19.252494979680389
 20
52.807063114977929
 30
0.0
  0
VERTEX
  5
27ED
  8
0
 10
20.41521859234166
 20
50.000000000000682
 30
0.0
  0
VERTEX
  5
27EE
  8
0
 10
19.252494979680389
 20
47.192936885022071
 30
0.0
  0
VERTEX
  5
27EF
  8
0
 10
16.38473104061568
 20
47.192936885022171
 30
0.0
  0
VERTEX
  5
27F0
  8
0
 10
13.57766792563706
 20
50.000000000000512
 30
0.0
  0
VERTEX
  5
27F1
  8
0
 10
16.38473104061568
 20
52.807063114977808
 30
0.0
  0
SEQEND
  5
27F2
  8
0
  0
POLYLINE
  5
2361
  8
0
 66
     1
 10
0.0
 20
0.0
 30
0.0
 70
     1
  0
VERTEX
  5
27F3
  8
0
 10
24.24552200359004
 20
37.100098285201582
 30
0.0
  0
VERTEX
  5
27F4
  8
0
 10
24.245522003590128
 20
34.585467398925168
 30
0.0
  0
VERTEX
  5
27F5
  8
0
 10
22.079900703541441
 20
33.688437685480856
 30
0.0
  0
VERTEX
  5
27F6
  8
0
 10
24.245522003590128
 20
32.791407972036723
 30
0.0
  0
VERTEX
  5
27F7
  8
0
 10
24.245522003590189
 20
30.44735636807685
 30
0.0
  0
VERTEX
  5
27F8
  8
0
 10
25.903016788201391
 20
32.104851152688198
 30
0.0
  0
VERTEX
  5
27F9
  8
0
 10
28.226232795852699
 20
31.142543573996772
 30
0.0
  0
VERTEX
  5
27FA
  8
0
 10
27.263925217161159
 20
33.465759581647987
 30
0.0
  0
VERTEX
  5
27FB
  8
0
 10
31.309719405653912
 20
37.511553770140921
 30
0.0
  0
VERTEX
  5
27FC
  8
0
 10
26.023634555457249
 20
35.321985733334309
 30
0.0
  0
SEQEND
  5
27FD
  8
0
  0
POLYLINE
  5
2362
  8
0
 66
     1
 10
0.0
 20
0.0
 30
0.0
 70
     1
  0
VERTEX
  5
27FE
  8
0
 10
41.896912905064482
 20
41.896912905065442
 30
0.0
  0
VERTEX
  5
27FF
  8
0
 10
35.120063062446199
 20
39.089849790086639
 30
0.0
  0
VERTEX
  5
2800
  8
0
 10
29.12565231046413
 20
33.09543903810431
 30
0.0
  0
VERTEX
  5
2801
  8
0
 10
30.288375923125528
 20
30.288375923125962
 30
0.0
  0
VERTEX
  5
2802
  8
0
 10
33.095439038103621
 20
29.125652310464918
 30
0.0
  0
VERTEX
  5
2803
  8
0
 10
39.089849790085921
 20
35.120063062447159
 30
0.0
  0
SEQEND
  5
2804
  8
0
  0
POLYLINE
  5
2363
  8
0
 66
     1
 10
0.0
 20
0.0
 30
0.0
 70
     1
  0
VERTEX
  5
2805
  8
0
 10
23.286277506744849
 20
52.807063114977723
 30
0.0
  0
VERTEX
  5
2806
  8
0
 10
22.123553894083461
 20
50.000000000000682
 30
0.0
  0
VERTEX
  5
2807
  8
0
 10
23.286277506744849
 20
47.192936885022249
 30
0.0
  0
VERTEX
  5
2808
  8
0
 10
31.7636544906334
 20
47.192936885022569
 30
0.0
  0
VERTEX
  5
2809
  8
0
 10
38.540504333251562
 20
50.000000000001037
 30
0.0
  0
VERTEX
  5
280A
  8
0
 10
31.763654490633229
 20
52.807063114977467
 30
0.0
  0
SEQEND
  5
280B
  8
0
  0
POLYLINE
  5
2364
  8
0
 66
     1
 10
0.0
 20
0.0
 30
0.0
 70
     1
  0
VERTEX
  5
280C
  8
0
 10
35.887940745179321
 20
47.192936885022569
 30
0.0
  0
VERTEX
  5
280D
  8
0
 10
40.602647460524388
 20
49.145832349130181
 30
0.0
  0
VERTEX
  5
280E
  8
0
 10
42.258232293263092
 20
48.460066657750588
 30
0.0
  0
VERTEX
  5
280F
  8
0
 10
40.991102520535151
 20
47.192936885022768
 30
0.0
  0
SEQEND
  5
2810
  8
0
  0
POLYLINE
  5
2365
  8
0
 66
     1
 10
0.0
 20
0.0
 30
0.0
 70
     1
  0
VERTEX
  5
2811
  8
0
 10
41.644854137436077
 20
45.614640865076801
 30
0.0
  0
VERTEX
  5
2812
  8
0
 10
38.036373840589931
 20
42.006160568230612
 30
0.0
  0
VERTEX
  5
2813
  8
0
 10
42.751080555935367
 20
43.95905603233831
 30
0.0
  0
VERTEX
  5
2814
  8
0
 10
43.436846247314939
 20
45.614640865076943
 30
0.0
  0
SEQEND
  5
2815
  8
0
  0
POLYLINE
  5
2366
  8
0
 66
     1
 10
0.0
 20
0.0
 30
0.0
 70
     1
  0
VERTEX
  5
2816
  8
0
 10
24.68319304655607
 20
6.119710360014011
 30
0.0
  0
VERTEX
  5
2817
  8
0
 10
25.89261645345546
 20
7.3291337669133716
 30
0.0
  0
VERTEX
  5
2818
  8
0
 10
24.68319304655617
 20
8.5385571738127108
 30
0.0
  0
VERTEX
  5
2819
  8
0
 10
23.473769639656659
 20
7.3291337669133716
 30
0.0
  0
SEQEND
  5
281A
  8
0
  0
POLYLINE
  5
2367
  8
0
 66
     1
 10
0.0
 20
0.0
 30
0.0
 70
     1
  0
VERTEX
  5
281B
  8
0
 10
40.991102520534952
 20
4.5687704461729544
 30
0.0
  0
VERTEX
  5
281C
  8
0
 10
35.739263425688527
 20
4.5687704461729419
 30
0.0
  0
VERTEX
  5
281D
  8
0
 10
38.546326540667053
 20
7.3758335611514161
 30
0.0
  0
VERTEX
  5
281E
  8
0
 10
35.739263425688527
 20
10.182896676129941
 30
0.0
  0
VERTEX
  5
281F
  8
0
 10
40.991102520534952
 20
10.182896676129941
 30
0.0
  0
VERTEX
  5
2820
  8
0
 10
43.798165635513357
 20
7.375833561151472
 30
0.0
  0
SEQEND
  5
2821
  8
0
  0
POLYLINE
  5
2368
  8
0
 66
     1
 10
0.0
 20
0.0
 30
0.0
 70
     1
  0
VERTEX
  5
2822
  8
0
 10
11.76119269607449
 20
5.5593583315890163
 30
0.0
  0
VERTEX
  5
2823
  8
0
 10
11.76119269607449
 20
4.5687704461729544
 30
0.0
  0
VERTEX
  5
2824
  8
0
 10
14.15268340376865
 20
4.5687704461729544
 30
0.0
  0
VERTEX
  5
2825
  8
0
 10
12.461644107213621
 20
6.2598097427280841
 30
0.0
  0
SEQEND
  5
2826
  8
0
  0
POLYLINE
  5
2369
  8
0
 66
     1
 10
0.0
 20
0.0
 30
0.0
 70
     1
  0
VERTEX
  5
2827
  8
0
 10
12.46164410721352
 20
8.4918573795747712
 30
0.0
  0
VERTEX
  5
2828
  8
0
 10
11.76119269607449
 20
9.192308790713815
 30
0.0
  0
VERTEX
  5
2829
  8
0
 10
11.76119269607449
 20
10.182896676129941
 30
0.0
  0
VERTEX
  5
282A
  8
0
 10
14.15268340376865
 20
10.182896676129911
 30
0.0
  0
SEQEND
  5
282B
  8
0
  0
POLYLINE
  5
236A
  8
0
 66
     1
 10
0.0
 20
0.0
 30
0.0
 70
     1
  0
VERTEX
  5
282C
  8
0
 10
21.195022208571789
 20
7.3758335611514161
 30
0.0
  0
VERTEX
  5
282D
  8
0
 10
20.032298595910529
 20
6.2131099484901648
 30
0.0
  0
VERTEX
  5
282E
  8
0
 10
20.032298595910529
 20
4.5687704461729419
 30
0.0
  0
VERTEX
  5
282F
  8
0
 10
16.38473104061541
 20
4.5687704461729544
 30
0.0
  0
VERTEX
  5
2830
  8
0
 10
13.577667925636799
 20
7.3758335611513699
 30
0.0
  0
VERTEX
  5
2831
  8
0
 10
16.38473104061541
 20
10.182896676129911
 30
0.0
  0
VERTEX
  5
2832
  8
0
 10
20.032298595910529
 20
10.182896676129911
 30
0.0
  0
VERTEX
  5
2833
  8
0
 10
20.032298595910529
 20
8.5385571738127108
 30
0.0
  0
SEQEND
  5
2834
  8
0
  0
POLYLINE
  5
236B
  8
0
 66
     1
 10
0.0
 20
0.0
 30
0.0
 70
     1
  0
VERTEX
  5
2835
  8
0
 10
33.507215788841769
 20
4.5687704461729419
 30
0.0
  0
VERTEX
  5
2836
  8
0
 10
36.314278903820288
 20
7.375833561151472
 30
0.0
  0
VERTEX
  5
2837
  8
0
 10
33.507215788841769
 20
10.182896676129941
 30
0.0
  0
VERTEX
  5
2838
  8
0
 10
29.334087497201569
 20
10.182896676129941
 30
0.0
  0
VERTEX
  5
2839
  8
0
 10
29.334087497201459
 20
8.5385571738125972
 30
0.0
  0
VERTEX
  5
283A
  8
0
 10
28.171363884540281
 20
7.3758335611513699
 30
0.0
  0
VERTEX
  5
283B
  8
0
 10
29.334087497201569
 20
6.2131099484900627
 30
0.0
  0
VERTEX
  5
283C
  8
0
 10
29.334087497201569
 20
4.5687704461729082
 30
0.0
  0
SEQEND
  5
283D
  8
0
  0
POLYLINE
  5
236C
  8
0
 66
     1
 10
0.0
 20
0.0
 30
0.0
 70
     1
  0
VERTEX
  5
283E
  8
0
 10
31.928919768896119
 20
11.76119269607557
 30
0.0
  0
VERTEX
  5
283F
  8
0
 10
27.689747994884389
 20
11.76119269607562
 30
0.0
  0
VERTEX
  5
2840
  8
0
 10
27.689747994884389
 20
9.1262653083421732
 30
0.0
  0
VERTEX
  5
2841
  8
0
 10
27.05534006611693
 20
8.4918573795747143
 30
0.0
  0
VERTEX
  5
2842
  8
0
 10
24.68319304655607
 20
10.86400439913556
 30
0.0
  0
VERTEX
  5
2843
  8
0
 10
22.311046026995189
 20
8.4918573795747712
 30
0.0
  0
VERTEX
  5
2844
  8
0
 10
21.676638098227659
 20
9.1262653083423118
 30
0.0
  0
VERTEX
  5
2845
  8
0
 10
21.676638098227748
 20
11.76119269607562
 30
0.0
  0
VERTEX
  5
2846
  8
0
 10
17.96302706056094
 20
11.76119269607557
 30
0.0
  0
VERTEX
  5
2847
  8
0
 10
21.676638098227748
 20
15.47480373374235
 30
0.0
  0
VERTEX
  5
2848
  8
0
 10
28.215308731229442
 20
15.47480373374227
 30
0.0
  0
SEQEND
  5
2849
  8
0
  0
POLYLINE
  5
236D
  8
0
 66
     1
 10
0.0
 20
0.0
 30
0.0
 70
     1
  0
VERTEX
  5
284A
  8
0
 10
27.689747994884389
 20
5.5320022254845007
 30
0.0
  0
VERTEX
  5
284B
  8
0
 10
27.689747994884389
 20
2.9904744262272458
 30
0.0
  0
VERTEX
  5
284C
  8
0
 10
48.183524770437671
 20
2.9904744262272458
 30
0.0
  0
VERTEX
  5
284D
  8
0
 10
49.595703176719127
 20
1.5782960199457019
 30
0.0
  0
VERTEX
  5
284E
  8
0
 10
7.78013038443122
 20
1.5782960199457361
 30
0.0
  0
VERTEX
  5
284F
  8
0
 10
9.1923087907126622
 20
2.9904744262272231
 30
0.0
  0
VERTEX
  5
2850
  8
0
 10
21.676638098227659
 20
2.9904744262272458
 30
0.0
  0
VERTEX
  5
2851
  8
0
 10
21.676638098227659
 20
5.5320022254844439
 30
0.0
  0
VERTEX
  5
2852
  8
0
 10
22.357745821233291
 20
6.2131099484900059
 30
0.0
  0
VERTEX
  5
2853
  8
0
 10
24.68319304655607
 20
3.8876627231672778
 30
0.0
  0
VERTEX
  5
2854
  8
0
 10
27.008640271878839
 20
6.2131099484900627
 30
0.0
  0
SEQEND
  5
2855
  8
0
  0
POLYLINE
  5
236E
  8
0
 66
     1
 10
0.0
 20
0.0
 30
0.0
 70
     1
  0
VERTEX
  5
2856
  8
0
 10
24.945973414728499
 20
18.744139050243181
 30
0.0
  0
VERTEX
  5
2857
  8
0
 10
26.637012711283631
 20
17.053099753688041
 30
0.0
  0
VERTEX
  5
2858
  8
0
 10
23.254934118173459
 20
17.053099753688041
 30
0.0
  0
SEQEND
  5
2859
  8
0
  0
POLYLINE
  5
236F
  8
0
 66
     1
 10
0.0
 20
0.0
 30
0.0
 70
     1
  0
VERTEX
  5
285A
  8
0
 10
33.688437685480388
 20
17.955614448996471
 30
0.0
  0
VERTEX
  5
285B
  8
0
 10
32.660852241541662
 20
15.47480373374227
 30
0.0
  0
VERTEX
  5
285C
  8
0
 10
30.447356368076189
 20
15.47480373374227
 30
0.0
  0
VERTEX
  5
285D
  8
0
 10
34.160967405742781
 20
11.76119269607562
 30
0.0
  0
VERTEX
  5
285E
  8
0
 10
39.412806500589348
 20
11.76119269607562
 30
0.0
  0
VERTEX
  5
285F
  8
0
 10
37.847628558333589
 20
13.326370638331371
 30
0.0
  0
VERTEX
  5
2860
  8
0
 10
38.875214002272394
 20
15.80718135358569
 30
0.0
  0
VERTEX
  5
2861
  8
0
 10
35.207609296170993
 20
14.28800974289512
 30
0.0
  0
SEQEND
  5
2862
  8
0
  0
POLYLINE
  5
2370
  8
0
 66
     1
 10
0.0
 20
0.0
 30
0.0
 70
     1
  0
VERTEX
  5
2863
  8
0
 10
31.73682428719534
 20
22.667225983645171
 30
0.0
  0
VERTEX
  5
2864
  8
0
 10
28.869060348130549
 20
22.667225983645221
 30
0.0
  0
VERTEX
  5
2865
  8
0
 10
26.06199723315186
 20
19.860162868666521
 30
0.0
  0
VERTEX
  5
2866
  8
0
 10
28.869060348130361
 20
17.053099753688041
 30
0.0
  0
VERTEX
  5
2867
  8
0
 10
31.606268556700812
 20
17.053099753688041
 30
0.0
  0
VERTEX
  5
2868
  8
0
 10
32.834270034609418
 20
20.017757576269389
 30
0.0
  0
SEQEND
  5
2869
  8
0
  0
POLYLINE
  5
2371
  8
0
 66
     1
 10
0.0
 20
0.0
 30
0.0
 70
     1
  0
VERTEX
  5
286A
  8
0
 10
26.637012711283891
 20
22.667225983645171
 30
0.0
  0
VERTEX
  5
286B
  8
0
 10
23.25493411817321
 20
22.667225983645171
 30
0.0
  0
VERTEX
  5
286C
  8
0
 10
24.945973414728591
 20
20.976186687089861
 30
0.0
  0
SEQEND
  5
286D
  8
0
  0
POLYLINE
  5
2372
  8
0
 66
     1
 10
0.0
 20
0.0
 30
0.0
 70
     1
  0
VERTEX
  5
286E
  8
0
 10
45.614640865076019
 20
4.5687704461729419
 30
0.0
  0
VERTEX
  5
286F
  8
0
 10
43.223150157381617
 20
4.5687704461729419
 30
0.0
  0
VERTEX
  5
2870
  8
0
 10
44.91418945393675
 20
6.2598097427281063
 30
0.0
  0
VERTEX
  5
2871
  8
0
 10
45.614640865076019
 20
5.5593583315887773
 30
0.0
  0
SEQEND
  5
2872
  8
0
  0
POLYLINE
  5
2373
  8
0
 66
     1
 10
0.0
 20
0.0
 30
0.0
 70
     1
  0
VERTEX
  5
2873
  8
0
 10
45.614640865076019
 20
15.730979423715841
 30
0.0
  0
VERTEX
  5
2874
  8
0
 10
45.614640865076019
 20
11.76119269607562
 30
0.0
  0
VERTEX
  5
2875
  8
0
 10
41.644854137436013
 20
11.76119269607562
 30
0.0
  0
VERTEX
  5
2876
  8
0
 10
39.709355651636493
 20
13.696691181875041
 30
0.0
  0
VERTEX
  5
2877
  8
0
 10
40.937357129545312
 20
16.661349004456579
 30
0.0
  0
VERTEX
  5
2878
  8
0
 10
43.586825536921218
 20
17.758794751870742
 30
0.0
  0
SEQEND
  5
2879
  8
0
  0
POLYLINE
  5
2374
  8
0
 66
     1
 10
0.0
 20
0.0
 30
0.0
 70
     1
  0
VERTEX
  5
287A
  8
0
 10
47.192936885021737
 20
14.152683403770119
 30
0.0
  0
VERTEX
  5
287B
  8
0
 10
48.883976181576998
 20
12.46164410721495
 30
0.0
  0
VERTEX
  5
287C
  8
0
 10
48.183524770437501
 20
11.76119269607562
 30
0.0
  0
VERTEX
  5
287D
  8
0
 10
47.192936885021659
 20
11.76119269607562
 30
0.0
  0
SEQEND
  5
287E
  8
0
  0
POLYLINE
  5
2375
  8
0
 66
     1
 10
0.0
 20
0.0
 30
0.0
 70
     1
  0
VERTEX
  5
287F
  8
0
 10
45.614640865076019
 20
10.182896676129941
 30
0.0
  0
VERTEX
  5
2880
  8
0
 10
43.223150157381539
 20
10.18289667612998
 30
0.0
  0
VERTEX
  5
2881
  8
0
 10
44.91418945393675
 20
8.4918573795747712
 30
0.0
  0
VERTEX
  5
2882
  8
0
 10
45.614640865076019
 20
9.1923087907140655
 30
0.0
  0
SEQEND
  5
2883
  8
0
  0
POLYLINE
  5
2376
  8
0
 66
     1
 10
0.0
 20
0.0
 30
0.0
 70
     1
  0
VERTEX
  5
2884
  8
0
 10
52.807063114978249
 20
4.568770446173283
 30
0.0
  0
VERTEX
  5
2885
  8
0
 10
51.16272361266109
 20
4.568770446173283
 30
0.0
  0
VERTEX
  5
2886
  8
0
 10
50.000000000000178
 20
3.4060468335118972
 30
0.0
  0
VERTEX
  5
2887
  8
0
 10
48.837276387338889
 20
4.568770446173283
 30
0.0
  0
VERTEX
  5
2888
  8
0
 10
47.192936885021737
 20
4.568770446173283
 30
0.0
  0
VERTEX
  5
2889
  8
0
 10
47.192936885021737
 20
6.2131099484903807
 30
0.0
  0
VERTEX
  5
288A
  8
0
 10
46.030213272360378
 20
7.3758335611518024
 30
0.0
  0
VERTEX
  5
288B
  8
0
 10
47.192936885021737
 20
8.5385571738132011
 30
0.0
  0
VERTEX
  5
288C
  8
0
 10
47.192936885021737
 20
10.182896676130261
 30
0.0
  0
VERTEX
  5
288D
  8
0
 10
48.837276387338527
 20
10.182896676129941
 30
0.0
  0
VERTEX
  5
288E
  8
0
 10
50.000000000000178
 20
11.34562028879162
 30
0.0
  0
VERTEX
  5
288F
  8
0
 10
51.162723612661473
 20
10.182896676129941
 30
0.0
  0
VERTEX
  5
2890
  8
0
 10
52.807063114978249
 20
10.182896676129941
 30
0.0
  0
VERTEX
  5
2891
  8
0
 10
52.807063114978249
 20
8.5385571738131212
 30
0.0
  0
VERTEX
  5
2892
  8
0
 10
53.969786727639601
 20
7.3758335611518024
 30
0.0
  0
VERTEX
  5
2893
  8
0
 10
52.807063114978249
 20
6.2131099484903807
 30
0.0
  0
SEQEND
  5
2894
  8
0
  0
POLYLINE
  5
2377
  8
0
 66
     1
 10
0.0
 20
0.0
 30
0.0
 70
     1
  0
VERTEX
  5
2895
  8
0
 10
40.427864548284077
 20
34.226030183798677
 30
0.0
  0
VERTEX
  5
2896
  8
0
 10
45.614640865075849
 20
39.41280650059052
 30
0.0
  0
VERTEX
  5
2897
  8
0
 10
45.614640865075849
 20
32.077597088387783
 30
0.0
  0
VERTEX
  5
2898
  8
0
 10
42.370489143428657
 20
24.245522003590949
 30
0.0
  0
VERTEX
  5
2899
  8
0
 10
39.332145922047737
 20
24.245522003590949
 30
0.0
  0
VERTEX
  5
289A
  8
0
 10
37.183712826636828
 20
26.39395509900179
 30
0.0
  0
SEQEND
  5
289B
  8
0
  0
POLYLINE
  5
2378
  8
0
 66
     1
 10
0.0
 20
0.0
 30
0.0
 70
     1
  0
VERTEX
  5
289C
  8
0
 10
36.061776947041857
 20
16.350152870167971
 30
0.0
  0
VERTEX
  5
289D
  8
0
 10
39.729381653143349
 20
17.869324480858591
 30
0.0
  0
VERTEX
  5
289E
  8
0
 10
40.82682740055742
 20
20.518792888234469
 30
0.0
  0
VERTEX
  5
289F
  8
0
 10
38.678394305146689
 20
22.667225983645221
 30
0.0
  0
VERTEX
  5
28A0
  8
0
 10
35.640051083765357
 20
22.667225983645292
 30
0.0
  0
VERTEX
  5
28A1
  8
0
 10
34.542605336351293
 20
20.017757576269268
 30
0.0
  0
SEQEND
  5
28A2
  8
0
  0
POLYLINE
  5
2379
  8
0
 66
     1
 10
0.0
 20
0.0
 30
0.0
 70
     1
  0
VERTEX
  5
28A3
  8
0
 10
41.791524780416097
 20
18.72349213172944
 30
0.0
  0
VERTEX
  5
28A4
  8
0
 10
42.688554493860437
 20
20.889113431778181
 30
0.0
  0
VERTEX
  5
28A5
  8
0
 10
40.910441941993348
 20
22.667225983645221
 30
0.0
  0
VERTEX
  5
28A6
  8
0
 10
43.42507282826962
 20
22.667225983645221
 30
0.0
  0
VERTEX
  5
28A7
  8
0
 10
45.614640865076019
 20
27.953310833842
 30
0.0
  0
VERTEX
  5
28A8
  8
0
 10
45.614640865075927
 20
22.23169382190526
 30
0.0
  0
VERTEX
  5
28A9
  8
0
 10
47.937856872727323
 20
21.269386243213749
 30
0.0
  0
VERTEX
  5
28AA
  8
0
 10
45.614640865076019
 20
20.30707866452228
 30
0.0
  0
VERTEX
  5
28AB
  8
0
 10
45.614640865076019
 20
17.963027060562538
 30
0.0
  0
VERTEX
  5
28AC
  8
0
 10
43.957146080464909
 20
19.620521845173698
 30
0.0
  0
SEQEND
  5
28AD
  8
0
  0
POLYLINE
  5
237A
  8
0
 66
     1
 10
0.0
 20
0.0
 30
0.0
 70
     1
  0
VERTEX
  5
28AE
  8
0
 10
37.100098285200957
 20
24.245522003590949
 30
0.0
  0
VERTEX
  5
28AF
  8
0
 10
34.585467398924571
 20
24.245522003590949
 30
0.0
  0
VERTEX
  5
28B0
  8
0
 10
33.688437685480388
 20
22.07990070354224
 30
0.0
  0
VERTEX
  5
28B1
  8
0
 10
32.791407972036119
 20
24.245522003590949
 30
0.0
  0
VERTEX
  5
28B2
  8
0
 10
30.44735636807626
 20
24.245522003590899
 30
0.0
  0
VERTEX
  5
28B3
  8
0
 10
32.104851152687672
 20
25.903016788202169
 30
0.0
  0
VERTEX
  5
28B4
  8
0
 10
31.142543573996129
 20
28.226232795853409
 30
0.0
  0
VERTEX
  5
28B5
  8
0
 10
33.46575958164739
 20
27.263925217162029
 30
0.0
  0
VERTEX
  5
28B6
  8
0
 10
37.511553770140289
 20
31.30971940565486
 30
0.0
  0
VERTEX
  5
28B7
  8
0
 10
35.32198573333369
 20
26.023634555458081
 30
0.0
  0
SEQEND
  5
28B8
  8
0
  0
POLYLINE
  5
237B
  8
0
 66
     1
 10
0.0
 20
0.0
 30
0.0
 70
     1
  0
VERTEX
  5
28B9
  8
0
 10
47.192936885021659
 20
35.887940745180423
 30
0.0
  0
VERTEX
  5
28BA
  8
0
 10
49.145832349129194
 20
40.602647460525617
 30
0.0
  0
VERTEX
  5
28BB
  8
0
 10
48.460066657749643
 20
42.258232293264342
 30
0.0
  0
VERTEX
  5
28BC
  8
0
 10
47.192936885021737
 20
40.991102520536309
 30
0.0
  0
SEQEND
  5
28BD
  8
0
  0
POLYLINE
  5
237C
  8
0
 66
     1
 10
0.0
 20
0.0
 30
0.0
 70
     1
  0
VERTEX
  5
28BE
  8
0
 10
45.614640865075849
 20
41.644854137437207
 30
0.0
  0
VERTEX
  5
28BF
  8
0
 10
42.006160568229717
 20
38.036373840591018
 30
0.0
  0
VERTEX
  5
28C0
  8
0
 10
43.959056032337301
 20
42.751080555936468
 30
0.0
  0
VERTEX
  5
28C1
  8
0
 10
45.614640865075849
 20
43.436846247316019
 30
0.0
  0
SEQEND
  5
28C2
  8
0
  0
POLYLINE
  5
237D
  8
0
 66
     1
 10
0.0
 20
0.0
 30
0.0
 70
     1
  0
VERTEX
  5
28C3
  8
0
 10
93.880289639986572
 20
75.316806953443844
 30
0.0
  0
VERTEX
  5
28C4
  8
0
 10
92.670866233087281
 20
74.107383546544497
 30
0.0
  0
VERTEX
  5
28C5
  8
0
 10
91.461442826187863
 20
75.316806953443759
 30
0.0
  0
VERTEX
  5
28C6
  8
0
 10
92.670866233087196
 20
76.526230360343249
 30
0.0
  0
SEQEND
  5
28C7
  8
0
  0
POLYLINE
  5
237E
  8
0
 66
     1
 10
0.0
 20
0.0
 30
0.0
 70
     1
  0
VERTEX
  5
28C8
  8
0
 10
95.431229553828061
 20
59.008897479465013
 30
0.0
  0
VERTEX
  5
28C9
  8
0
 10
95.431229553827976
 20
64.260736574311451
 30
0.0
  0
VERTEX
  5
28CA
  8
0
 10
92.624166438849471
 20
61.453673459332919
 30
0.0
  0
VERTEX
  5
28CB
  8
0
 10
89.817103323870882
 20
64.260736574311295
 30
0.0
  0
VERTEX
  5
28CC
  8
0
 10
89.817103323871066
 20
59.008897479464849
 30
0.0
  0
VERTEX
  5
28CD
  8
0
 10
92.624166438849514
 20
56.201834364486551
 30
0.0
  0
SEQEND
  5
28CE
  8
0
  0
POLYLINE
  5
237F
  8
0
 66
     1
 10
0.0
 20
0.0
 30
0.0
 70
     1
  0
VERTEX
  5
28CF
  8
0
 10
94.440641668411203
 20
88.238807303925427
 30
0.0
  0
VERTEX
  5
28D0
  8
0
 10
95.431229553827336
 20
88.238807303925526
 30
0.0
  0
VERTEX
  5
28D1
  8
0
 10
95.431229553827393
 20
85.84731659623138
 30
0.0
  0
VERTEX
  5
28D2
  8
0
 10
93.740190257272204
 20
87.538355892786356
 30
0.0
  0
SEQEND
  5
28D3
  8
0
  0
POLYLINE
  5
2380
  8
0
 66
     1
 10
0.0
 20
0.0
 30
0.0
 70
     1
  0
VERTEX
  5
28D4
  8
0
 10
91.508142620425474
 20
87.538355892786413
 30
0.0
  0
VERTEX
  5
28D5
  8
0
 10
90.807691209286475
 20
88.238807303925341
 30
0.0
  0
VERTEX
  5
28D6
  8
0
 10
89.817103323870271
 20
88.238807303925341
 30
0.0
  0
VERTEX
  5
28D7
  8
0
 10
89.817103323870356
 20
85.847316596231195
 30
0.0
  0
SEQEND
  5
28D8
  8
0
  0
POLYLINE
  5
2381
  8
0
 66
     1
 10
0.0
 20
0.0
 30
0.0
 70
     1
  0
VERTEX
  5
28D9
  8
0
 10
92.624166438849059
 20
78.804977791428087
 30
0.0
  0
VERTEX
  5
28DA
  8
0
 10
93.786890051510284
 20
79.967701404089382
 30
0.0
  0
VERTEX
  5
28DB
  8
0
 10
95.431229553827492
 20
79.967701404089496
 30
0.0
  0
VERTEX
  5
28DC
  8
0
 10
95.431229553827492
 20
83.615268959384579
 30
0.0
  0
VERTEX
  5
28DD
  8
0
 10
92.624166438848874
 20
86.422332074363069
 30
0.0
  0
VERTEX
  5
28DE
  8
0
 10
89.817103323870498
 20
83.615268959384423
 30
0.0
  0
VERTEX
  5
28DF
  8
0
 10
89.817103323870541
 20
79.967701404089283
 30
0.0
  0
VERTEX
  5
28E0
  8
0
 10
91.461442826187806
 20
79.967701404089382
 30
0.0
  0
SEQEND
  5
28E1
  8
0
  0
POLYLINE
  5
2382
  8
0
 66
     1
 10
0.0
 20
0.0
 30
0.0
 70
     1
  0
VERTEX
  5
28E2
  8
0
 10
95.431229553827876
 20
66.492784211158224
 30
0.0
  0
VERTEX
  5
28E3
  8
0
 10
92.624166438849471
 20
63.685721096179613
 30
0.0
  0
VERTEX
  5
28E4
  8
0
 10
89.817103323870882
 20
66.492784211158025
 30
0.0
  0
VERTEX
  5
28E5
  8
0
 10
89.817103323870768
 20
70.665912502798264
 30
0.0
  0
VERTEX
  5
28E6
  8
0
 10
91.46144282618809
 20
70.665912502798435
 30
0.0
  0
VERTEX
  5
28E7
  8
0
 10
92.624166438849286
 20
71.828636115459631
 30
0.0
  0
VERTEX
  5
28E8
  8
0
 10
93.786890051510625
 20
70.665912502798321
 30
0.0
  0
VERTEX
  5
28E9
  8
0
 10
95.431229553827748
 20
70.665912502798435
 30
0.0
  0
SEQEND
  5
28EA
  8
0
  0
POLYLINE
  5
2383
  8
0
 66
     1
 10
0.0
 20
0.0
 30
0.0
 70
     1
  0
VERTEX
  5
28EB
  8
0
 10
88.238807303925114
 20
68.071080231103679
 30
0.0
  0
VERTEX
  5
28EC
  8
0
 10
88.238807303924986
 20
72.31025200511543
 30
0.0
  0
VERTEX
  5
28ED
  8
0
 10
90.873734691658456
 20
72.31025200511543
 30
0.0
  0
VERTEX
  5
28EE
  8
0
 10
91.508142620425886
 20
72.944659933883017
 30
0.0
  0
VERTEX
  5
28EF
  8
0
 10
89.13599560086503
 20
75.316806953443759
 30
0.0
  0
VERTEX
  5
28F0
  8
0
 10
91.508142620425787
 20
77.688953973004743
 30
0.0
  0
VERTEX
  5
28F1
  8
0
 10
90.873734691658115
 20
78.323361901772188
 30
0.0
  0
VERTEX
  5
28F2
  8
0
 10
88.238807303924929
 20
78.323361901772103
 30
0.0
  0
VERTEX
  5
28F3
  8
0
 10
88.238807303924844
 20
82.036972939438868
 30
0.0
  0
VERTEX
  5
28F4
  8
0
 10
84.525196266258277
 20
78.323361901772032
 30
0.0
  0
VERTEX
  5
28F5
  8
0
 10
84.525196266258448
 20
71.784691268770288
 30
0.0
  0
SEQEND
  5
28F6
  8
0
  0
POLYLINE
  5
2384
  8
0
 66
     1
 10
0.0
 20
0.0
 30
0.0
 70
     1
  0
VERTEX
  5
28F7
  8
0
 10
94.467997774516178
 20
72.310252005115586
 30
0.0
  0
VERTEX
  5
28F8
  8
0
 10
97.009525573773416
 20
72.3102520051157
 30
0.0
  0
VERTEX
  5
28F9
  8
0
 10
97.009525573773956
 20
51.816475229562322
 30
0.0
  0
VERTEX
  5
28FA
  8
0
 10
98.421703980054374
 20
50.404296823282053
 30
0.0
  0
VERTEX
  5
28FB
  8
0
 10
98.421703980054275
 20
92.219869615568655
 30
0.0
  0
VERTEX
  5
28FC
  8
0
 10
97.009525573773061
 20
90.807691209287384
 30
0.0
  0
VERTEX
  5
28FD
  8
0
 10
97.009525573773303
 20
78.323361901772387
 30
0.0
  0
VERTEX
  5
28FE
  8
0
 10
94.467997774515993
 20
78.323361901772302
 30
0.0
  0
VERTEX
  5
28FF
  8
0
 10
93.786890051510568
 20
77.642254178766578
 30
0.0
  0
VERTEX
  5
2900
  8
0
 10
96.112337276833273
 20
75.316806953443944
 30
0.0
  0
VERTEX
  5
2901
  8
0
 10
93.786890051510568
 20
72.991359728121097
 30
0.0
  0
SEQEND
  5
2902
  8
0
  0
POLYLINE
  5
2385
  8
0
 66
     1
 10
0.0
 20
0.0
 30
0.0
 70
     1
  0
VERTEX
  5
2903
  8
0
 10
81.255860949757505
 20
75.054026585271117
 30
0.0
  0
VERTEX
  5
2904
  8
0
 10
82.946900246312666
 20
73.362987288716027
 30
0.0
  0
VERTEX
  5
2905
  8
0
 10
82.946900246312524
 20
76.745065881826164
 30
0.0
  0
SEQEND
  5
2906
  8
0
  0
POLYLINE
  5
2386
  8
0
 66
     1
 10
0.0
 20
0.0
 30
0.0
 70
     1
  0
VERTEX
  5
2907
  8
0
 10
82.044385551004382
 20
66.311562314519236
 30
0.0
  0
VERTEX
  5
2908
  8
0
 10
84.525196266258547
 20
67.339147758458054
 30
0.0
  0
VERTEX
  5
2909
  8
0
 10
84.525196266258448
 20
69.55264363192353
 30
0.0
  0
VERTEX
  5
290A
  8
0
 10
88.238807303925171
 20
65.83903259425702
 30
0.0
  0
VERTEX
  5
290B
  8
0
 10
88.238807303925327
 20
60.587193499410461
 30
0.0
  0
VERTEX
  5
290C
  8
0
 10
86.673629361669555
 20
62.152371441666133
 30
0.0
  0
VERTEX
  5
290D
  8
0
 10
84.192818646415191
 20
61.1247859977274
 30
0.0
  0
VERTEX
  5
290E
  8
0
 10
85.711990257105754
 20
64.792390703828715
 30
0.0
  0
SEQEND
  5
290F
  8
0
  0
POLYLINE
  5
2387
  8
0
 66
     1
 10
0.0
 20
0.0
 30
0.0
 70
     1
  0
VERTEX
  5
2910
  8
0
 10
77.3327740163556
 20
68.263175712804113
 30
0.0
  0
VERTEX
  5
2911
  8
0
 10
77.332774016355472
 20
71.130939651868999
 30
0.0
  0
VERTEX
  5
2912
  8
0
 10
80.139837131334104
 20
73.938002766847774
 30
0.0
  0
VERTEX
  5
2913
  8
0
 10
82.946900246312737
 20
71.130939651869255
 30
0.0
  0
VERTEX
  5
2914
  8
0
 10
82.946900246312737
 20
68.393731443298847
 30
0.0
  0
VERTEX
  5
2915
  8
0
 10
79.982242423731449
 20
67.165729965390213
 30
0.0
  0
SEQEND
  5
2916
  8
0
  0
POLYLINE
  5
2388
  8
0
 66
     1
 10
0.0
 20
0.0
 30
0.0
 70
     1
  0
VERTEX
  5
2917
  8
0
 10
77.332774016355401
 20
73.362987288715615
 30
0.0
  0
VERTEX
  5
2918
  8
0
 10
77.332774016355302
 20
76.745065881826335
 30
0.0
  0
VERTEX
  5
2919
  8
0
 10
79.023813312910718
 20
75.054026585270961
 30
0.0
  0
SEQEND
  5
291A
  8
0
  0
POLYLINE
  5
2389
  8
0
 66
     1
 10
0.0
 20
0.0
 30
0.0
 70
     1
  0
VERTEX
  5
291B
  8
0
 10
95.431229553828132
 20
54.385359134923966
 30
0.0
  0
VERTEX
  5
291C
  8
0
 10
95.431229553828132
 20
56.776849842618411
 30
0.0
  0
VERTEX
  5
291D
  8
0
 10
93.740190257273014
 20
55.0858105460632
 30
0.0
  0
VERTEX
  5
291E
  8
0
 10
94.440641668412354
 20
54.385359134923867
 30
0.0
  0
SEQEND
  5
291F
  8
0
  0
POLYLINE
  5
238A
  8
0
 66
     1
 10
0.0
 20
0.0
 30
0.0
 70
     1
  0
VERTEX
  5
2920
  8
0
 10
84.269020576285286
 20
54.385359134923689
 30
0.0
  0
VERTEX
  5
2921
  8
0
 10
88.238807303925498
 20
54.385359134923789
 30
0.0
  0
VERTEX
  5
2922
  8
0
 10
88.238807303925412
 20
58.355145862563859
 30
0.0
  0
VERTEX
  5
2923
  8
0
 10
86.303308818125956
 20
60.29064434836323
 30
0.0
  0
VERTEX
  5
2924
  8
0
 10
83.338650995544427
 20
59.062642870454312
 30
0.0
  0
VERTEX
  5
2925
  8
0
 10
82.241205248130314
 20
56.413174463078398
 30
0.0
  0
SEQEND
  5
2926
  8
0
  0
POLYLINE
  5
238B
  8
0
 66
     1
 10
0.0
 20
0.0
 30
0.0
 70
     1
  0
VERTEX
  5
2927
  8
0
 10
85.847316596230968
 20
52.807063114977929
 30
0.0
  0
VERTEX
  5
2928
  8
0
 10
87.538355892786171
 20
51.116023818422804
 30
0.0
  0
VERTEX
  5
2929
  8
0
 10
88.238807303925498
 20
51.816475229562322
 30
0.0
  0
VERTEX
  5
292A
  8
0
 10
88.238807303925498
 20
52.807063114978128
 30
0.0
  0
SEQEND
  5
292B
  8
0
  0
POLYLINE
  5
238C
  8
0
 66
     1
 10
0.0
 20
0.0
 30
0.0
 70
     1
  0
VERTEX
  5
292C
  8
0
 10
89.817103323871137
 20
54.385359134923789
 30
0.0
  0
VERTEX
  5
292D
  8
0
 10
89.817103323871066
 20
56.776849842618333
 30
0.0
  0
VERTEX
  5
292E
  8
0
 10
91.508142620426284
 20
55.0858105460632
 30
0.0
  0
VERTEX
  5
292F
  8
0
 10
90.807691209287086
 20
54.385359134923789
 30
0.0
  0
SEQEND
  5
2930
  8
0
  0
POLYLINE
  5
238D
  8
0
 66
     1
 10
0.0
 20
0.0
 30
0.0
 70
     1
  0
VERTEX
  5
2931
  8
0
 10
95.431229553827876
 20
47.192936885021808
 30
0.0
  0
VERTEX
  5
2932
  8
0
 10
95.431229553827876
 20
48.83727638733891
 30
0.0
  0
VERTEX
  5
2933
  8
0
 10
96.593953166489314
 20
49.999999999999822
 30
0.0
  0
VERTEX
  5
2934
  8
0
 10
95.431229553827876
 20
51.162723612661111
 30
0.0
  0
VERTEX
  5
2935
  8
0
 10
95.431229553827876
 20
52.807063114978249
 30
0.0
  0
VERTEX
  5
2936
  8
0
 10
93.786890051510724
 20
52.807063114978128
 30
0.0
  0
VERTEX
  5
2937
  8
0
 10
92.624166438849315
 20
53.969786727639509
 30
0.0
  0
VERTEX
  5
2938
  8
0
 10
91.461442826187977
 20
52.807063114978128
 30
0.0
  0
VERTEX
  5
2939
  8
0
 10
89.817103323870882
 20
52.807063114978057
 30
0.0
  0
VERTEX
  5
293A
  8
0
 10
89.817103323871251
 20
51.16272361266126
 30
0.0
  0
VERTEX
  5
293B
  8
0
 10
88.654379711209572
 20
49.999999999999623
 30
0.0
  0
VERTEX
  5
293C
  8
0
 10
89.817103323871251
 20
48.837276387338711
 30
0.0
  0
VERTEX
  5
293D
  8
0
 10
89.817103323871251
 20
47.192936885021972
 30
0.0
  0
VERTEX
  5
293E
  8
0
 10
91.461442826187977
 20
47.192936885021879
 30
0.0
  0
VERTEX
  5
293F
  8
0
 10
92.624166438849315
 20
46.03021327236052
 30
0.0
  0
VERTEX
  5
2940
  8
0
 10
93.786890051510724
 20
47.192936885021879
 30
0.0
  0
SEQEND
  5
2941
  8
0
  0
POLYLINE
  5
238E
  8
0
 66
     1
 10
0.0
 20
0.0
 30
0.0
 70
     1
  0
VERTEX
  5
2942
  8
0
 10
65.773969816202225
 20
59.57213545171517
 30
0.0
  0
VERTEX
  5
2943
  8
0
 10
60.587193499410567
 20
54.385359134923171
 30
0.0
  0
VERTEX
  5
2944
  8
0
 10
67.922402911613332
 20
54.38535913492337
 30
0.0
  0
VERTEX
  5
2945
  8
0
 10
75.75447799641006
 20
57.629510856570761
 30
0.0
  0
VERTEX
  5
2946
  8
0
 10
75.754477996409975
 20
60.667854077951731
 30
0.0
  0
VERTEX
  5
2947
  8
0
 10
73.606044900999066
 20
62.816287173362603
 30
0.0
  0
SEQEND
  5
2948
  8
0
  0
POLYLINE
  5
238F
  8
0
 66
     1
 10
0.0
 20
0.0
 30
0.0
 70
     1
  0
VERTEX
  5
2949
  8
0
 10
83.649847129832892
 20
63.938223052957738
 30
0.0
  0
VERTEX
  5
294A
  8
0
 10
82.130675519142329
 20
60.270618346856281
 30
0.0
  0
VERTEX
  5
294B
  8
0
 10
79.481207111766508
 20
59.173172599442118
 30
0.0
  0
VERTEX
  5
294C
  8
0
 10
77.332774016355671
 20
61.321605694852863
 30
0.0
  0
VERTEX
  5
294D
  8
0
 10
77.3327740163556
 20
64.359948916234188
 30
0.0
  0
VERTEX
  5
294E
  8
0
 10
79.982242423731634
 20
65.457394663648344
 30
0.0
  0
SEQEND
  5
294F
  8
0
  0
POLYLINE
  5
2390
  8
0
 66
     1
 10
0.0
 20
0.0
 30
0.0
 70
     1
  0
VERTEX
  5
2950
  8
0
 10
81.276507868271537
 20
58.208475219583512
 30
0.0
  0
VERTEX
  5
2951
  8
0
 10
79.110886568222853
 20
57.311445506139059
 30
0.0
  0
VERTEX
  5
2952
  8
0
 10
77.332774016355785
 20
59.08955805800619
 30
0.0
  0
VERTEX
  5
2953
  8
0
 10
77.33277401635587
 20
56.574927171729911
 30
0.0
  0
VERTEX
  5
2954
  8
0
 10
72.046689166159155
 20
54.385359134923277
 30
0.0
  0
VERTEX
  5
2955
  8
0
 10
77.768306178095827
 20
54.385359134923583
 30
0.0
  0
VERTEX
  5
2956
  8
0
 10
78.73061375678742
 20
52.062143127272208
 30
0.0
  0
VERTEX
  5
2957
  8
0
 10
79.692921335478772
 20
54.385359134923469
 30
0.0
  0
VERTEX
  5
2958
  8
0
 10
82.036972939438499
 20
54.385359134923583
 30
0.0
  0
VERTEX
  5
2959
  8
0
 10
80.379478154827353
 20
56.042853919534721
 30
0.0
  0
SEQEND
  5
295A
  8
0
  0
POLYLINE
  5
2391
  8
0
 66
     1
 10
0.0
 20
0.0
 30
0.0
 70
     1
  0
VERTEX
  5
295B
  8
0
 10
75.754477996409975
 20
62.899901714798489
 30
0.0
  0
VERTEX
  5
295C
  8
0
 10
75.754477996409875
 20
65.414532601074811
 30
0.0
  0
VERTEX
  5
295D
  8
0
 10
77.920099296458588
 20
66.311562314519122
 30
0.0
  0
VERTEX
  5
295E
  8
0
 10
75.754477996409875
 20
67.20859202796332
 30
0.0
  0
VERTEX
  5
295F
  8
0
 10
75.754477996409761
 20
69.552643631923189
 30
0.0
  0
VERTEX
  5
2960
  8
0
 10
74.09698321179863
 20
67.895148847311773
 30
0.0
  0
VERTEX
  5
2961
  8
0
 10
71.77376720414729
 20
68.857456426003225
 30
0.0
  0
VERTEX
  5
2962
  8
0
 10
72.736074782838841
 20
66.534240418352042
 30
0.0
  0
VERTEX
  5
2963
  8
0
 10
68.690280594346063
 20
62.488446229859079
 30
0.0
  0
VERTEX
  5
2964
  8
0
 10
73.976365444542765
 20
64.678014266665699
 30
0.0
  0
SEQEND
  5
2965
  8
0
  0
POLYLINE
  5
2392
  8
0
 66
     1
 10
0.0
 20
0.0
 30
0.0
 70
     1
  0
VERTEX
  5
2966
  8
0
 10
58.103087094935503
 20
58.103087094934558
 30
0.0
  0
VERTEX
  5
2967
  8
0
 10
64.879936937553765
 20
60.910150209913347
 30
0.0
  0
VERTEX
  5
2968
  8
0
 10
70.874347689535881
 20
66.904560961895712
 30
0.0
  0
VERTEX
  5
2969
  8
0
 10
69.711624076874529
 20
69.711624076874003
 30
0.0
  0
VERTEX
  5
296A
  8
0
 10
66.904560961896351
 20
70.874347689535085
 30
0.0
  0
VERTEX
  5
296B
  8
0
 10
60.910150209914057
 20
64.879936937552884
 30
0.0
  0
SEQEND
  5
296C
  8
0
  0
POLYLINE
  5
2393
  8
0
 66
     1
 10
0.0
 20
0.0
 30
0.0
 70
     1
  0
VERTEX
  5
296D
  8
0
 10
64.112059254820679
 20
52.807063114977467
 30
0.0
  0
VERTEX
  5
296E
  8
0
 10
59.397352539475648
 20
50.854167650869847
 30
0.0
  0
VERTEX
  5
296F
  8
0
 10
57.741767706736887
 20
51.539933342249419
 30
0.0
  0
VERTEX
  5
2970
  8
0
 10
59.008897479464849
 20
52.807063114977311
 30
0.0
  0
SEQEND
  5
2971
  8
0
  0
POLYLINE
  5
2394
  8
0
 66
     1
 10
0.0
 20
0.0
 30
0.0
 70
     1
  0
VERTEX
  5
2972
  8
0
 10
58.355145862563951
 20
54.385359134923171
 30
0.0
  0
VERTEX
  5
2973
  8
0
 10
61.963626159410069
 20
57.993839431769473
 30
0.0
  0
VERTEX
  5
2974
  8
0
 10
57.248919444064633
 20
56.040943967661697
 30
0.0
  0
VERTEX
  5
2975
  8
0
 10
56.563153752685047
 20
54.385359134923107
 30
0.0
  0
SEQEND
  5
2976
  8
0
  0
POLYLINE
  5
2395
  8
0
 66
     1
 10
0.0
 20
0.0
 30
0.0
 70
     1
  0
VERTEX
  5
2977
  8
0
 10
75.316806953443944
 20
93.880289639986046
 30
0.0
  0
VERTEX
  5
2978
  8
0
 10
74.107383546544568
 20
92.670866233086599
 30
0.0
  0
VERTEX
  5
2979
  8
0
 10
75.316806953443844
 20
91.461442826187323
 30
0.0
  0
VERTEX
  5
297A
  8
0
 10
76.52623036034332
 20
92.670866233086599
 30
0.0
  0
SEQEND
  5
297B
  8
0
  0
POLYLINE
  5
2396
  8
0
 66
     1
 10
0.0
 20
0.0
 30
0.0
 70
     1
  0
VERTEX
  5
297C
  8
0
 10
59.008897479465041
 20
95.431229553827038
 30
0.0
  0
VERTEX
  5
297D
  8
0
 10
64.26073657431148
 20
95.431229553827109
 30
0.0
  0
VERTEX
  5
297E
  8
0
 10
61.45367345933294
 20
92.624166438848604
 30
0.0
  0
VERTEX
  5
297F
  8
0
 10
64.26073657431148
 20
89.817103323870114
 30
0.0
  0
VERTEX
  5
2980
  8
0
 10
59.008897479465041
 20
89.817103323870114
 30
0.0
  0
VERTEX
  5
2981
  8
0
 10
56.20183436448665
 20
92.624166438848519
 30
0.0
  0
SEQEND
  5
2982
  8
0
  0
POLYLINE
  5
2397
  8
0
 66
     1
 10
0.0
 20
0.0
 30
0.0
 70
     1
  0
VERTEX
  5
2983
  8
0
 10
88.238807303925498
 20
94.440641668411004
 30
0.0
  0
VERTEX
  5
2984
  8
0
 10
88.238807303925498
 20
95.431229553827038
 30
0.0
  0
VERTEX
  5
2985
  8
0
 10
85.84731659623138
 20
95.431229553827038
 30
0.0
  0
VERTEX
  5
2986
  8
0
 10
87.538355892786399
 20
93.740190257271905
 30
0.0
  0
SEQEND
  5
2987
  8
0
  0
POLYLINE
  5
2398
  8
0
 66
     1
 10
0.0
 20
0.0
 30
0.0
 70
     1
  0
VERTEX
  5
2988
  8
0
 10
87.538355892786484
 20
91.508142620425204
 30
0.0
  0
VERTEX
  5
2989
  8
0
 10
88.238807303925498
 20
90.807691209286205
 30
0.0
  0
VERTEX
  5
298A
  8
0
 10
88.238807303925498
 20
89.817103323870114
 30
0.0
  0
VERTEX
  5
298B
  8
0
 10
85.84731659623138
 20
89.817103323870114
 30
0.0
  0
SEQEND
  5
298C
  8
0
  0
POLYLINE
  5
2399
  8
0
 66
     1
 10
0.0
 20
0.0
 30
0.0
 70
     1
  0
VERTEX
  5
298D
  8
0
 10
78.8049777914282
 20
92.624166438848604
 30
0.0
  0
VERTEX
  5
298E
  8
0
 10
79.967701404089496
 20
93.786890051509857
 30
0.0
  0
VERTEX
  5
298F
  8
0
 10
79.967701404089496
 20
95.431229553827109
 30
0.0
  0
VERTEX
  5
2990
  8
0
 10
83.615268959384579
 20
95.431229553827038
 30
0.0
  0
VERTEX
  5
2991
  8
0
 10
86.422332074363212
 20
92.624166438848604
 30
0.0
  0
VERTEX
  5
2992
  8
0
 10
83.615268959384579
 20
89.817103323870114
 30
0.0
  0
VERTEX
  5
2993
  8
0
 10
79.967701404089496
 20
89.817103323870114
 30
0.0
  0
VERTEX
  5
2994
  8
0
 10
79.967701404089496
 20
91.461442826187323
 30
0.0
  0
SEQEND
  5
2995
  8
0
  0
POLYLINE
  5
239A
  8
0
 66
     1
 10
0.0
 20
0.0
 30
0.0
 70
     1
  0
VERTEX
  5
2996
  8
0
 10
66.492784211158209
 20
95.431229553827109
 30
0.0
  0
VERTEX
  5
2997
  8
0
 10
63.685721096179691
 20
92.624166438848604
 30
0.0
  0
VERTEX
  5
2998
  8
0
 10
66.492784211158209
 20
89.817103323870114
 30
0.0
  0
VERTEX
  5
2999
  8
0
 10
70.665912502798435
 20
89.817103323870114
 30
0.0
  0
VERTEX
  5
299A
  8
0
 10
70.665912502798534
 20
91.461442826187394
 30
0.0
  0
VERTEX
  5
299B
  8
0
 10
71.828636115459702
 20
92.624166438848604
 30
0.0
  0
VERTEX
  5
299C
  8
0
 10
70.665912502798435
 20
93.786890051509957
 30
0.0
  0
VERTEX
  5
299D
  8
0
 10
70.665912502798435
 20
95.431229553827109
 30
0.0
  0
SEQEND
  5
299E
  8
0
  0
POLYLINE
  5
239B
  8
0
 66
     1
 10
0.0
 20
0.0
 30
0.0
 70
     1
  0
VERTEX
  5
299F
  8
0
 10
68.071080231103863
 20
88.238807303924418
 30
0.0
  0
VERTEX
  5
29A0
  8
0
 10
72.310252005115629
 20
88.238807303924375
 30
0.0
  0
VERTEX
  5
29A1
  8
0
 10
72.310252005115629
 20
90.873734691657845
 30
0.0
  0
VERTEX
  5
29A2
  8
0
 10
72.944659933883102
 20
91.508142620425303
 30
0.0
  0
VERTEX
  5
29A3
  8
0
 10
75.316806953443944
 20
89.135995600864476
 30
0.0
  0
VERTEX
  5
29A4
  8
0
 10
77.688953973004857
 20
91.508142620425204
 30
0.0
  0
VERTEX
  5
29A5
  8
0
 10
78.323361901772373
 20
90.873734691657717
 30
0.0
  0
VERTEX
  5
29A6
  8
0
 10
78.323361901772273
 20
88.238807303924375
 30
0.0
  0
VERTEX
  5
29A7
  8
0
 10
82.036972939439096
 20
88.238807303924418
 30
0.0
  0
VERTEX
  5
29A8
  8
0
 10
78.323361901772273
 20
84.525196266257652
 30
0.0
  0
VERTEX
  5
29A9
  8
0
 10
71.784691268770572
 20
84.525196266257723
 30
0.0
  0
SEQEND
  5
29AA
  8
0
  0
POLYLINE
  5
239C
  8
0
 66
     1
 10
0.0
 20
0.0
 30
0.0
 70
     1
  0
VERTEX
  5
29AB
  8
0
 10
72.310252005115629
 20
94.467997774515595
 30
0.0
  0
VERTEX
  5
29AC
  8
0
 10
72.310252005115629
 20
97.009525573772777
 30
0.0
  0
VERTEX
  5
29AD
  8
0
 10
51.8164752295623
 20
97.009525573772777
 30
0.0
  0
VERTEX
  5
29AE
  8
0
 10
50.404296823280767
 20
98.421703980054303
 30
0.0
  0
VERTEX
  5
29AF
  8
0
 10
92.219869615568697
 20
98.421703980054275
 30
0.0
  0
VERTEX
  5
29B0
  8
0
 10
90.807691209287356
 20
97.009525573772862
 30
0.0
  0
VERTEX
  5
29B1
  8
0
 10
78.323361901772373
 20
97.009525573772777
 30
0.0
  0
VERTEX
  5
29B2
  8
0
 10
78.323361901772373
 20
94.467997774515595
 30
0.0
  0
VERTEX
  5
29B3
  8
0
 10
77.642254178766677
 20
93.786890051510014
 30
0.0
  0
VERTEX
  5
29B4
  8
0
 10
75.316806953443944
 20
96.112337276832776
 30
0.0
  0
VERTEX
  5
29B5
  8
0
 10
72.991359728121154
 20
93.786890051509957
 30
0.0
  0
SEQEND
  5
29B6
  8
0
  0
POLYLINE
  5
239D
  8
0
 66
     1
 10
0.0
 20
0.0
 30
0.0
 70
     1
  0
VERTEX
  5
29B7
  8
0
 10
75.054026585271501
 20
81.255860949756823
 30
0.0
  0
VERTEX
  5
29B8
  8
0
 10
73.362987288716369
 20
82.946900246311984
 30
0.0
  0
VERTEX
  5
29B9
  8
0
 10
76.745065881826534
 20
82.946900246311984
 30
0.0
  0
SEQEND
  5
29BA
  8
0
  0
POLYLINE
  5
239E
  8
0
 66
     1
 10
0.0
 20
0.0
 30
0.0
 70
     1
  0
VERTEX
  5
29BB
  8
0
 10
66.311562314519577
 20
82.044385551003586
 30
0.0
  0
VERTEX
  5
29BC
  8
0
 10
67.339147758458338
 20
84.525196266257808
 30
0.0
  0
VERTEX
  5
29BD
  8
0
 10
69.5526436319238
 20
84.525196266257723
 30
0.0
  0
VERTEX
  5
29BE
  8
0
 10
65.839032594257205
 20
88.238807303924375
 30
0.0
  0
VERTEX
  5
29BF
  8
0
 10
60.587193499410638
 20
88.238807303924375
 30
0.0
  0
VERTEX
  5
29C0
  8
0
 10
62.152371441666403
 20
86.673629361668645
 30
0.0
  0
VERTEX
  5
29C1
  8
0
 10
61.12478599772767
 20
84.192818646414324
 30
0.0
  0
VERTEX
  5
29C2
  8
0
 10
64.792390703828985
 20
85.711990257104944
 30
0.0
  0
SEQEND
  5
29C3
  8
0
  0
POLYLINE
  5
239F
  8
0
 66
     1
 10
0.0
 20
0.0
 30
0.0
 70
     1
  0
VERTEX
  5
29C4
  8
0
 10
68.263175712804653
 20
77.332774016354847
 30
0.0
  0
VERTEX
  5
29C5
  8
0
 10
71.130939651869454
 20
77.332774016354804
 30
0.0
  0
VERTEX
  5
29C6
  8
0
 10
73.938002766848157
 20
80.139837131333508
 30
0.0
  0
VERTEX
  5
29C7
  8
0
 10
71.130939651869639
 20
82.946900246311984
 30
0.0
  0
VERTEX
  5
29C8
  8
0
 10
68.393731443299174
 20
82.946900246311984
 30
0.0
  0
VERTEX
  5
29C9
  8
0
 10
67.165729965390597
 20
79.982242423730625
 30
0.0
  0
SEQEND
  5
29CA
  8
0
  0
POLYLINE
  5
23A0
  8
0
 66
     1
 10
0.0
 20
0.0
 30
0.0
 70
     1
  0
VERTEX
  5
29CB
  8
0
 10
73.362987288716099
 20
77.332774016354847
 30
0.0
  0
VERTEX
  5
29CC
  8
0
 10
76.745065881826847
 20
77.332774016354847
 30
0.0
  0
VERTEX
  5
29CD
  8
0
 10
75.054026585271373
 20
79.023813312910164
 30
0.0
  0
SEQEND
  5
29CE
  8
0
  0
POLYLINE
  5
23A1
  8
0
 66
     1
 10
0.0
 20
0.0
 30
0.0
 70
     1
  0
VERTEX
  5
29CF
  8
0
 10
54.385359134923966
 20
95.431229553827109
 30
0.0
  0
VERTEX
  5
29D0
  8
0
 10
56.77684984261839
 20
95.431229553827109
 30
0.0
  0
VERTEX
  5
29D1
  8
0
 10
55.0858105460633
 20
93.740190257271905
 30
0.0
  0
VERTEX
  5
29D2
  8
0
 10
54.385359134923966
 20
94.440641668411203
 30
0.0
  0
SEQEND
  5
29D3
  8
0
  0
POLYLINE
  5
23A2
  8
0
 66
     1
 10
0.0
 20
0.0
 30
0.0
 70
     1
  0
VERTEX
  5
29D4
  8
0
 10
54.385359134923966
 20
84.269020576284206
 30
0.0
  0
VERTEX
  5
29D5
  8
0
 10
54.385359134923966
 20
88.238807303924375
 30
0.0
  0
VERTEX
  5
29D6
  8
0
 10
58.355145862564058
 20
88.238807303924375
 30
0.0
  0
VERTEX
  5
29D7
  8
0
 10
60.2906443483635
 20
86.303308818124975
 30
0.0
  0
VERTEX
  5
29D8
  8
0
 10
59.062642870454667
 20
83.338650995543418
 30
0.0
  0
VERTEX
  5
29D9
  8
0
 10
56.413174463078761
 20
82.241205248129305
 30
0.0
  0
SEQEND
  5
29DA
  8
0
  0
POLYLINE
  5
23A3
  8
0
 66
     1
 10
0.0
 20
0.0
 30
0.0
 70
     1
  0
VERTEX
  5
29DB
  8
0
 10
52.807063114978249
 20
85.847316596229945
 30
0.0
  0
VERTEX
  5
29DC
  8
0
 10
51.116023818423017
 20
87.538355892785091
 30
0.0
  0
VERTEX
  5
29DD
  8
0
 10
51.816475229562478
 20
88.238807303924375
 30
0.0
  0
VERTEX
  5
29DE
  8
0
 10
52.80706311497832
 20
88.238807303924375
 30
0.0
  0
SEQEND
  5
29DF
  8
0
  0
POLYLINE
  5
23A4
  8
0
 66
     1
 10
0.0
 20
0.0
 30
0.0
 70
     1
  0
VERTEX
  5
29E0
  8
0
 10
54.385359134923966
 20
89.817103323870114
 30
0.0
  0
VERTEX
  5
29E1
  8
0
 10
56.776849842618503
 20
89.817103323870015
 30
0.0
  0
VERTEX
  5
29E2
  8
0
 10
55.0858105460633
 20
91.508142620425204
 30
0.0
  0
VERTEX
  5
29E3
  8
0
 10
54.385359134923966
 20
90.807691209285906
 30
0.0
  0
SEQEND
  5
29E4
  8
0
  0
POLYLINE
  5
23A5
  8
0
 66
     1
 10
0.0
 20
0.0
 30
0.0
 70
     1
  0
VERTEX
  5
29E5
  8
0
 10
59.572135451715873
 20
65.773969816201301
 30
0.0
  0
VERTEX
  5
29E6
  8
0
 10
54.385359134924151
 20
60.58719349940948
 30
0.0
  0
VERTEX
  5
29E7
  8
0
 10
54.385359134924151
 20
67.922402911612252
 30
0.0
  0
VERTEX
  5
29E8
  8
0
 10
57.629510856571329
 20
75.754477996409065
 30
0.0
  0
VERTEX
  5
29E9
  8
0
 10
60.667854077952263
 20
75.754477996409065
 30
0.0
  0
VERTEX
  5
29EA
  8
0
 10
62.816287173363179
 20
73.606044900998199
 30
0.0
  0
SEQEND
  5
29EB
  8
0
  0
POLYLINE
  5
23A6
  8
0
 66
     1
 10
0.0
 20
0.0
 30
0.0
 70
     1
  0
VERTEX
  5
29EC
  8
0
 10
63.938223052958172
 20
83.649847129832054
 30
0.0
  0
VERTEX
  5
29ED
  8
0
 10
60.270618346856651
 20
82.130675519141462
 30
0.0
  0
VERTEX
  5
29EE
  8
0
 10
59.173172599442552
 20
79.481207111765599
 30
0.0
  0
VERTEX
  5
29EF
  8
0
 10
61.321605694853289
 20
77.332774016354804
 30
0.0
  0
VERTEX
  5
29F0
  8
0
 10
64.359948916234686
 20
77.332774016354804
 30
0.0
  0
VERTEX
  5
29F1
  8
0
 10
65.457394663648685
 20
79.982242423730781
 30
0.0
  0
SEQEND
  5
29F2
  8
0
  0
POLYLINE
  5
23A7
  8
0
 66
     1
 10
0.0
 20
0.0
 30
0.0
 70
     1
  0
VERTEX
  5
29F3
  8
0
 10
58.208475219583903
 20
81.276507868270627
 30
0.0
  0
VERTEX
  5
29F4
  8
0
 10
57.311445506139542
 20
79.110886568221858
 30
0.0
  0
VERTEX
  5
29F5
  8
0
 10
59.089558058006652
 20
77.332774016354804
 30
0.0
  0
VERTEX
  5
29F6
  8
0
 10
56.574927171730337
 20
77.332774016354804
 30
0.0
  0
VERTEX
  5
29F7
  8
0
 10
54.385359134923966
 20
72.04668916615806
 30
0.0
  0
VERTEX
  5
29F8
  8
0
 10
54.385359134924038
 20
77.768306178094747
 30
0.0
  0
VERTEX
  5
29F9
  8
0
 10
52.062143127272662
 20
78.730613756786269
 30
0.0
  0
VERTEX
  5
29FA
  8
0
 10
54.385359134923966
 20
79.692921335477735
 30
0.0
  0
VERTEX
  5
29FB
  8
0
 10
54.385359134923966
 20
82.036972939437476
 30
0.0
  0
VERTEX
  5
29FC
  8
0
 10
56.042853919535062
 20
80.379478154826288
 30
0.0
  0
SEQEND
  5
29FD
  8
0
  0
POLYLINE
  5
23A8
  8
0
 66
     1
 10
0.0
 20
0.0
 30
0.0
 70
     1
  0
VERTEX
  5
29FE
  8
0
 10
47.192936885021659
 20
80.747505020318499
 30
0.0
  0
VERTEX
  5
29FF
  8
0
 10
49.999999999999808
 20
79.584781407657204
 30
0.0
  0
VERTEX
  5
2A00
  8
0
 10
52.80706311497832
 20
80.747505020318499
 30
0.0
  0
VERTEX
  5
2A01
  8
0
 10
52.807063114978249
 20
83.615268959383215
 30
0.0
  0
VERTEX
  5
2A02
  8
0
 10
49.999999999999808
 20
86.422332074361677
 30
0.0
  0
VERTEX
  5
2A03
  8
0
 10
47.192936885021737
 20
83.615268959383215
 30
0.0
  0
SEQEND
  5
2A04
  8
0
  0
POLYLINE
  5
23A9
  8
0
 66
     1
 10
0.0
 20
0.0
 30
0.0
 70
     1
  0
VERTEX
  5
2A05
  8
0
 10
62.899901714799029
 20
75.754477996409065
 30
0.0
  0
VERTEX
  5
2A06
  8
0
 10
65.414532601075422
 20
75.754477996409065
 30
0.0
  0
VERTEX
  5
2A07
  8
0
 10
66.311562314519577
 20
77.920099296457792
 30
0.0
  0
VERTEX
  5
2A08
  8
0
 10
67.208592027963888
 20
75.754477996409065
 30
0.0
  0
VERTEX
  5
2A09
  8
0
 10
69.552643631923729
 20
75.754477996409136
 30
0.0
  0
VERTEX
  5
2A0A
  8
0
 10
67.895148847312313
 20
74.096983211797848
 30
0.0
  0
VERTEX
  5
2A0B
  8
0
 10
68.857456426003864
 20
71.773767204146594
 30
0.0
  0
VERTEX
  5
2A0C
  8
0
 10
66.53424041835261
 20
72.736074782838003
 30
0.0
  0
VERTEX
  5
2A0D
  8
0
 10
62.48844622985969
 20
68.690280594345111
 30
0.0
  0
VERTEX
  5
2A0E
  8
0
 10
64.678014266666267
 20
73.976365444541997
 30
0.0
  0
SEQEND
  5
2A0F
  8
0
  0
POLYLINE
  5
23AA
  8
0
 66
     1
 10
0.0
 20
0.0
 30
0.0
 70
     1
  0
VERTEX
  5
2A10
  8
0
 10
47.192936885021737
 20
76.713722493254053
 30
0.0
  0
VERTEX
  5
2A11
  8
0
 10
49.999999999999808
 20
77.876446105915335
 30
0.0
  0
VERTEX
  5
2A12
  8
0
 10
52.807063114978249
 20
76.713722493254053
 30
0.0
  0
VERTEX
  5
2A13
  8
0
 10
52.807063114978249
 20
68.236345509365492
 30
0.0
  0
VERTEX
  5
2A14
  8
0
 10
49.999999999999808
 20
61.459495666747358
 30
0.0
  0
VERTEX
  5
2A15
  8
0
 10
47.192936885021737
 20
68.236345509365592
 30
0.0
  0
SEQEND
  5
2A16
  8
0
  0
POLYLINE
  5
23AB
  8
0
 66
     1
 10
0.0
 20
0.0
 30
0.0
 70
     1
  0
VERTEX
  5
2A17
  8
0
 10
52.80706311497832
 20
64.112059254819584
 30
0.0
  0
VERTEX
  5
2A18
  8
0
 10
50.854167650870778
 20
59.397352539474383
 30
0.0
  0
VERTEX
  5
2A19
  8
0
 10
51.539933342250308
 20
57.741767706735658
 30
0.0
  0
VERTEX
  5
2A1A
  8
0
 10
52.807063114978249
 20
59.00889747946367
 30
0.0
  0
SEQEND
  5
2A1B
  8
0
  0
POLYLINE
  5
23AD
  8
0
 66
     1
 10
0.0
 20
0.0
 30
0.0
 70
     1
  0
VERTEX
  5
2A1C
  8
0
 10
54.385359134924151
 20
58.355145862562857
 30
0.0
  0
VERTEX
  5
2A1D
  8
0
 10
57.993839431770247
 20
61.963626159409003
 30
0.0
  0
VERTEX
  5
2A1E
  8
0
 10
56.040943967662677
 20
57.248919444063553
 30
0.0
  0
VERTEX
  5
2A1F
  8
0
 10
54.385359134924151
 20
56.56315375268403
 30
0.0
  0
SEQEND
  5
2A20
  8
0
  0
POLYLINE
  5
23AE
  8
0
 66
     1
 10
0.0
 20
0.0
 30
0.0
 70
     1
  0
VERTEX
  5
2A21
  8
0
 10
6.1197103600133911
 20
75.316806953443844
 30
0.0
  0
VERTEX
  5
2A22
  8
0
 10
7.3291337669127303
 20
74.107383546544497
 30
0.0
  0
VERTEX
  5
2A23
  8
0
 10
8.5385571738121264
 20
75.316806953443759
 30
0.0
  0
VERTEX
  5
2A24
  8
0
 10
7.3291337669127978
 20
76.526230360343249
 30
0.0
  0
SEQEND
  5
2A25
  8
0
  0
POLYLINE
  5
23AF
  8
0
 66
     1
 10
0.0
 20
0.0
 30
0.0
 70
     1
  0
VERTEX
  5
2A26
  8
0
 10
4.5687704461719481
 20
59.008897479465013
 30
0.0
  0
VERTEX
  5
2A27
  8
0
 10
4.5687704461720378
 20
64.260736574311451
 30
0.0
  0
VERTEX
  5
2A28
  8
0
 10
7.3758335611505572
 20
61.453673459332919
 30
0.0
  0
VERTEX
  5
2A29
  8
0
 10
10.18289667612912
 20
64.260736574311295
 30
0.0
  0
VERTEX
  5
2A2A
  8
0
 10
10.18289667612895
 20
59.008897479464849
 30
0.0
  0
VERTEX
  5
2A2B
  8
0
 10
7.3758335611504551
 20
56.201834364486551
 30
0.0
  0
SEQEND
  5
2A2C
  8
0
  0
POLYLINE
  5
23B0
  8
0
 66
     1
 10
0.0
 20
0.0
 30
0.0
 70
     1
  0
VERTEX
  5
2A2D
  8
0
 10
5.5593583315887818
 20
88.238807303925427
 30
0.0
  0
VERTEX
  5
2A2E
  8
0
 10
4.5687704461727199
 20
88.238807303925526
 30
0.0
  0
VERTEX
  5
2A2F
  8
0
 10
4.568770446172584
 20
85.84731659623138
 30
0.0
  0
VERTEX
  5
2A30
  8
0
 10
6.2598097427278496
 20
87.538355892786356
 30
0.0
  0
SEQEND
  5
2A31
  8
0
  0
POLYLINE
  5
23B1
  8
0
 66
     1
 10
0.0
 20
0.0
 30
0.0
 70
     1
  0
VERTEX
  5
2A32
  8
0
 10
8.4918573795745012
 20
87.538355892786413
 30
0.0
  0
VERTEX
  5
2A33
  8
0
 10
9.1923087907135255
 20
88.238807303925341
 30
0.0
  0
VERTEX
  5
2A34
  8
0
 10
10.182896676129721
 20
88.238807303925341
 30
0.0
  0
VERTEX
  5
2A35
  8
0
 10
10.182896676129619
 20
85.847316596231195
 30
0.0
  0
SEQEND
  5
2A36
  8
0
  0
POLYLINE
  5
23B2
  8
0
 66
     1
 10
0.0
 20
0.0
 30
0.0
 70
     1
  0
VERTEX
  5
2A37
  8
0
 10
7.3758335611509214
 20
78.804977791428087
 30
0.0
  0
VERTEX
  5
2A38
  8
0
 10
6.213109948489727
 20
79.967701404089382
 30
0.0
  0
VERTEX
  5
2A39
  8
0
 10
4.568770446172481
 20
79.967701404089496
 30
0.0
  0
VERTEX
  5
2A3A
  8
0
 10
4.568770446172481
 20
83.615268959384579
 30
0.0
  0
VERTEX
  5
2A3B
  8
0
 10
7.3758335611511026
 20
86.422332074363069
 30
0.0
  0
VERTEX
  5
2A3C
  8
0
 10
10.18289667612952
 20
83.615268959384423
 30
0.0
  0
VERTEX
  5
2A3D
  8
0
 10
10.182896676129451
 20
79.967701404089283
 30
0.0
  0
VERTEX
  5
2A3E
  8
0
 10
8.5385571738122064
 20
79.967701404089382
 30
0.0
  0
SEQEND
  5
2A3F
  8
0
  0
POLYLINE
  5
23B3
  8
0
 66
     1
 10
0.0
 20
0.0
 30
0.0
 70
     1
  0
VERTEX
  5
2A40
  8
0
 10
4.5687704461721301
 20
66.492784211158224
 30
0.0
  0
VERTEX
  5
2A41
  8
0
 10
7.3758335611505572
 20
63.685721096179613
 30
0.0
  0
VERTEX
  5
2A42
  8
0
 10
10.18289667612912
 20
66.492784211158025
 30
0.0
  0
VERTEX
  5
2A43
  8
0
 10
10.182896676129269
 20
70.665912502798264
 30
0.0
  0
VERTEX
  5
2A44
  8
0
 10
8.5385571738119328
 20
70.665912502798435
 30
0.0
  0
VERTEX
  5
2A45
  8
0
 10
7.37583356115075
 20
71.828636115459631
 30
0.0
  0
VERTEX
  5
2A46
  8
0
 10
6.2131099484893637
 20
70.665912502798321
 30
0.0
  0
VERTEX
  5
2A47
  8
0
 10
4.5687704461722198
 20
70.665912502798435
 30
0.0
  0
SEQEND
  5
2A48
  8
0
  0
POLYLINE
  5
23B4
  8
0
 66
     1
 10
0.0
 20
0.0
 30
0.0
 70
     1
  0
VERTEX
  5
2A49
  8
0
 10
11.761192696074881
 20
68.071080231103679
 30
0.0
  0
VERTEX
  5
2A4A
  8
0
 10
11.761192696074991
 20
72.31025200511543
 30
0.0
  0
VERTEX
  5
2A4B
  8
0
 10
9.1262653083415781
 20
72.31025200511543
 30
0.0
  0
VERTEX
  5
2A4C
  8
0
 10
8.4918573795740944
 20
72.944659933883017
 30
0.0
  0
VERTEX
  5
2A4D
  8
0
 10
10.86400439913494
 20
75.316806953443759
 30
0.0
  0
VERTEX
  5
2A4E
  8
0
 10
8.4918573795742311
 20
77.688953973004743
 30
0.0
  0
VERTEX
  5
2A4F
  8
0
 10
9.1262653083418623
 20
78.323361901772188
 30
0.0
  0
VERTEX
  5
2A50
  8
0
 10
11.76119269607506
 20
78.323361901772103
 30
0.0
  0
VERTEX
  5
2A51
  8
0
 10
11.76119269607516
 20
82.036972939438868
 30
0.0
  0
VERTEX
  5
2A52
  8
0
 10
15.47480373374175
 20
78.323361901772032
 30
0.0
  0
VERTEX
  5
2A53
  8
0
 10
15.47480373374156
 20
71.784691268770288
 30
0.0
  0
SEQEND
  5
2A54
  8
0
  0
POLYLINE
  5
23B5
  8
0
 66
     1
 10
0.0
 20
0.0
 30
0.0
 70
     1
  0
VERTEX
  5
2A55
  8
0
 10
5.5320022254838017
 20
72.310252005115586
 30
0.0
  0
VERTEX
  5
2A56
  8
0
 10
2.9904744262265801
 20
72.3102520051157
 30
0.0
  0
VERTEX
  5
2A57
  8
0
 10
2.9904744262260459
 20
51.816475229562322
 30
0.0
  0
VERTEX
  5
2A58
  8
0
 10
1.578296019945719
 20
50.404296823282081
 30
0.0
  0
VERTEX
  5
2A59
  8
0
 10
1.578296019945719
 20
92.219869615568683
 30
0.0
  0
VERTEX
  5
2A5A
  8
0
 10
2.9904744262269558
 20
90.807691209287384
 30
0.0
  0
VERTEX
  5
2A5B
  8
0
 10
2.9904744262266831
 20
78.323361901772387
 30
0.0
  0
VERTEX
  5
2A5C
  8
0
 10
5.5320022254839838
 20
78.323361901772302
 30
0.0
  0
VERTEX
  5
2A5D
  8
0
 10
6.2131099484894659
 20
77.642254178766578
 30
0.0
  0
VERTEX
  5
2A5E
  8
0
 10
3.887662723166704
 20
75.316806953443944
 30
0.0
  0
VERTEX
  5
2A5F
  8
0
 10
6.2131099484894659
 20
72.991359728121097
 30
0.0
  0
SEQEND
  5
2A60
  8
0
  0
POLYLINE
  5
23B6
  8
0
 66
     1
 10
0.0
 20
0.0
 30
0.0
 70
     1
  0
VERTEX
  5
2A61
  8
0
 10
18.74413905024252
 20
75.054026585271117
 30
0.0
  0
VERTEX
  5
2A62
  8
0
 10
17.053099753687398
 20
73.362987288716027
 30
0.0
  0
VERTEX
  5
2A63
  8
0
 10
17.053099753687501
 20
76.745065881826164
 30
0.0
  0
SEQEND
  5
2A64
  8
0
  0
POLYLINE
  5
23B7
  8
0
 66
     1
 10
0.0
 20
0.0
 30
0.0
 70
     1
  0
VERTEX
  5
2A65
  8
0
 10
17.955614448995611
 20
66.311562314519236
 30
0.0
  0
VERTEX
  5
2A66
  8
0
 10
15.47480373374146
 20
67.339147758458054
 30
0.0
  0
VERTEX
  5
2A67
  8
0
 10
15.47480373374156
 20
69.55264363192353
 30
0.0
  0
VERTEX
  5
2A68
  8
0
 10
11.76119269607479
 20
65.83903259425702
 30
0.0
  0
VERTEX
  5
2A69
  8
0
 10
11.76119269607466
 20
60.587193499410461
 30
0.0
  0
VERTEX
  5
2A6A
  8
0
 10
13.32637063833049
 20
62.152371441666133
 30
0.0
  0
VERTEX
  5
2A6B
  8
0
 10
15.80718135358485
 20
61.1247859977274
 30
0.0
  0
VERTEX
  5
2A6C
  8
0
 10
14.288009742894239
 20
64.792390703828715
 30
0.0
  0
SEQEND
  5
2A6D
  8
0
  0
POLYLINE
  5
23B8
  8
0
 66
     1
 10
0.0
 20
0.0
 30
0.0
 70
     1
  0
VERTEX
  5
2A6E
  8
0
 10
22.667225983644389
 20
68.263175712804113
 30
0.0
  0
VERTEX
  5
2A6F
  8
0
 10
22.667225983644489
 20
71.130939651868999
 30
0.0
  0
VERTEX
  5
2A70
  8
0
 10
19.860162868665888
 20
73.938002766847774
 30
0.0
  0
VERTEX
  5
2A71
  8
0
 10
17.053099753687292
 20
71.130939651869255
 30
0.0
  0
VERTEX
  5
2A72
  8
0
 10
17.053099753687292
 20
68.393731443298847
 30
0.0
  0
VERTEX
  5
2A73
  8
0
 10
20.017757576268561
 20
67.165729965390213
 30
0.0
  0
SEQEND
  5
2A74
  8
0
  0
POLYLINE
  5
23B9
  8
0
 66
     1
 10
0.0
 20
0.0
 30
0.0
 70
     1
  0
VERTEX
  5
2A75
  8
0
 10
22.667225983644599
 20
73.362987288715615
 30
0.0
  0
VERTEX
  5
2A76
  8
0
 10
22.667225983644691
 20
76.745065881826335
 30
0.0
  0
VERTEX
  5
2A77
  8
0
 10
20.976186687089271
 20
75.054026585270961
 30
0.0
  0
SEQEND
  5
2A78
  8
0
  0
POLYLINE
  5
23BA
  8
0
 66
     1
 10
0.0
 20
0.0
 30
0.0
 70
     1
  0
VERTEX
  5
2A79
  8
0
 10
4.5687704461718557
 20
54.385359134923966
 30
0.0
  0
VERTEX
  5
2A7A
  8
0
 10
4.5687704461718557
 20
56.776849842618411
 30
0.0
  0
VERTEX
  5
2A7B
  8
0
 10
6.2598097427269863
 20
55.0858105460632
 30
0.0
  0
VERTEX
  5
2A7C
  8
0
 10
5.5593583315876449
 20
54.385359134923867
 30
0.0
  0
SEQEND
  5
2A7D
  8
0
  0
POLYLINE
  5
23BB
  8
0
 66
     1
 10
0.0
 20
0.0
 30
0.0
 70
     1
  0
VERTEX
  5
2A7E
  8
0
 10
15.73097942371472
 20
54.385359134923689
 30
0.0
  0
VERTEX
  5
2A7F
  8
0
 10
11.76119269607449
 20
54.385359134923789
 30
0.0
  0
VERTEX
  5
2A80
  8
0
 10
11.761192696074559
 20
58.355145862563859
 30
0.0
  0
VERTEX
  5
2A81
  8
0
 10
13.69669118187408
 20
60.29064434836323
 30
0.0
  0
VERTEX
  5
2A82
  8
0
 10
16.661349004455619
 20
59.062642870454312
 30
0.0
  0
VERTEX
  5
2A83
  8
0
 10
17.758794751869662
 20
56.413174463078398
 30
0.0
  0
SEQEND
  5
2A84
  8
0
  0
POLYLINE
  5
23BC
  8
0
 66
     1
 10
0.0
 20
0.0
 30
0.0
 70
     1
  0
VERTEX
  5
2A85
  8
0
 10
14.152683403768989
 20
52.807063114977929
 30
0.0
  0
VERTEX
  5
2A86
  8
0
 10
12.46164410721379
 20
51.116023818422804
 30
0.0
  0
VERTEX
  5
2A87
  8
0
 10
11.76119269607449
 20
51.816475229562322
 30
0.0
  0
VERTEX
  5
2A88
  8
0
 10
11.76119269607449
 20
52.807063114978128
 30
0.0
  0
SEQEND
  5
2A89
  8
0
  0
POLYLINE
  5
23BD
  8
0
 66
     1
 10
0.0
 20
0.0
 30
0.0
 70
     1
  0
VERTEX
  5
2A8A
  8
0
 10
10.18289667612885
 20
54.385359134923789
 30
0.0
  0
VERTEX
  5
2A8B
  8
0
 10
10.18289667612895
 20
56.776849842618333
 30
0.0
  0
VERTEX
  5
2A8C
  8
0
 10
8.4918573795737196
 20
55.0858105460632
 30
0.0
  0
VERTEX
  5
2A8D
  8
0
 10
9.192308790712957
 20
54.385359134923789
 30
0.0
  0
SEQEND
  5
2A8E
  8
0
  0
POLYLINE
  5
23BE
  8
0
 66
     1
 10
0.0
 20
0.0
 30
0.0
 70
     1
  0
VERTEX
  5
2A8F
  8
0
 10
4.5687704461721301
 20
47.192936885021808
 30
0.0
  0
VERTEX
  5
2A90
  8
0
 10
4.5687704461721301
 20
48.83727638733891
 30
0.0
  0
VERTEX
  5
2A91
  8
0
 10
3.406046833510652
 20
49.999999999999822
 30
0.0
  0
VERTEX
  5
2A92
  8
0
 10
4.5687704461721301
 20
51.162723612661111
 30
0.0
  0
VERTEX
  5
2A93
  8
0
 10
4.5687704461721301
 20
52.807063114978249
 30
0.0
  0
VERTEX
  5
2A94
  8
0
 10
6.2131099484892607
 20
52.807063114978128
 30
0.0
  0
VERTEX
  5
2A95
  8
0
 10
7.3758335611506478
 20
53.969786727639509
 30
0.0
  0
VERTEX
  5
2A96
  8
0
 10
8.5385571738120234
 20
52.807063114978128
 30
0.0
  0
VERTEX
  5
2A97
  8
0
 10
10.18289667612912
 20
52.807063114978057
 30
0.0
  0
VERTEX
  5
2A98
  8
0
 10
10.18289667612876
 20
51.16272361266126
 30
0.0
  0
VERTEX
  5
2A99
  8
0
 10
11.34562028879045
 20
49.999999999999623
 30
0.0
  0
VERTEX
  5
2A9A
  8
0
 10
10.18289667612876
 20
48.837276387338711
 30
0.0
  0
VERTEX
  5
2A9B
  8
0
 10
10.18289667612876
 20
47.192936885021972
 30
0.0
  0
VERTEX
  5
2A9C
  8
0
 10
8.5385571738120234
 20
47.192936885021879
 30
0.0
  0
VERTEX
  5
2A9D
  8
0
 10
7.3758335611506478
 20
46.03021327236052
 30
0.0
  0
VERTEX
  5
2A9E
  8
0
 10
6.2131099484892607
 20
47.192936885021879
 30
0.0
  0
SEQEND
  5
2A9F
  8
0
  0
POLYLINE
  5
23BF
  8
0
 66
     1
 10
0.0
 20
0.0
 30
0.0
 70
     1
  0
VERTEX
  5
2AA0
  8
0
 10
34.226030183797768
 20
59.57213545171517
 30
0.0
  0
VERTEX
  5
2AA1
  8
0
 10
39.412806500589419
 20
54.385359134923171
 30
0.0
  0
VERTEX
  5
2AA2
  8
0
 10
32.077597088386653
 20
54.38535913492337
 30
0.0
  0
VERTEX
  5
2AA3
  8
0
 10
24.245522003589951
 20
57.629510856570761
 30
0.0
  0
VERTEX
  5
2AA4
  8
0
 10
24.24552200359004
 20
60.667854077951731
 30
0.0
  0
VERTEX
  5
2AA5
  8
0
 10
26.393955099000959
 20
62.816287173362603
 30
0.0
  0
SEQEND
  5
2AA6
  8
0
  0
POLYLINE
  5
23C0
  8
0
 66
     1
 10
0.0
 20
0.0
 30
0.0
 70
     1
  0
VERTEX
  5
2AA7
  8
0
 10
16.350152870167079
 20
63.938223052957738
 30
0.0
  0
VERTEX
  5
2AA8
  8
0
 10
17.869324480857671
 20
60.270618346856281
 30
0.0
  0
VERTEX
  5
2AA9
  8
0
 10
20.51879288823347
 20
59.173172599442118
 30
0.0
  0
VERTEX
  5
2AAA
  8
0
 10
22.667225983644311
 20
61.321605694852863
 30
0.0
  0
VERTEX
  5
2AAB
  8
0
 10
22.667225983644389
 20
64.359948916234188
 30
0.0
  0
VERTEX
  5
2AAC
  8
0
 10
20.017757576268391
 20
65.457394663648344
 30
0.0
  0
SEQEND
  5
2AAD
  8
0
  0
POLYLINE
  5
23C1
  8
0
 66
     1
 10
0.0
 20
0.0
 30
0.0
 70
     1
  0
VERTEX
  5
2AAE
  8
0
 10
18.723492131728449
 20
58.208475219583512
 30
0.0
  0
VERTEX
  5
2AAF
  8
0
 10
20.889113431777151
 20
57.311445506139059
 30
0.0
  0
VERTEX
  5
2AB0
  8
0
 10
22.667225983644219
 20
59.08955805800619
 30
0.0
  0
VERTEX
  5
2AB1
  8
0
 10
22.667225983644119
 20
56.574927171729911
 30
0.0
  0
VERTEX
  5
2AB2
  8
0
 10
27.95331083384086
 20
54.385359134923277
 30
0.0
  0
VERTEX
  5
2AB3
  8
0
 10
22.231693821904191
 20
54.385359134923583
 30
0.0
  0
VERTEX
  5
2AB4
  8
0
 10
21.269386243212558
 20
52.062143127272208
 30
0.0
  0
VERTEX
  5
2AB5
  8
0
 10
20.307078664521189
 20
54.385359134923469
 30
0.0
  0
VERTEX
  5
2AB6
  8
0
 10
17.96302706056149
 20
54.385359134923583
 30
0.0
  0
VERTEX
  5
2AB7
  8
0
 10
19.620521845172661
 20
56.042853919534721
 30
0.0
  0
SEQEND
  5
2AB8
  8
0
  0
POLYLINE
  5
23C2
  8
0
 66
     1
 10
0.0
 20
0.0
 30
0.0
 70
     1
  0
VERTEX
  5
2AB9
  8
0
 10
24.24552200359004
 20
62.899901714798489
 30
0.0
  0
VERTEX
  5
2ABA
  8
0
 10
24.245522003590128
 20
65.414532601074811
 30
0.0
  0
VERTEX
  5
2ABB
  8
0
 10
22.079900703541441
 20
66.311562314519122
 30
0.0
  0
VERTEX
  5
2ABC
  8
0
 10
24.245522003590128
 20
67.20859202796332
 30
0.0
  0
VERTEX
  5
2ABD
  8
0
 10
24.245522003590189
 20
69.552643631923189
 30
0.0
  0
VERTEX
  5
2ABE
  8
0
 10
25.903016788201391
 20
67.895148847311773
 30
0.0
  0
VERTEX
  5
2ABF
  8
0
 10
28.226232795852699
 20
68.857456426003225
 30
0.0
  0
VERTEX
  5
2AC0
  8
0
 10
27.263925217161159
 20
66.534240418352042
 30
0.0
  0
VERTEX
  5
2AC1
  8
0
 10
31.309719405653912
 20
62.488446229859079
 30
0.0
  0
VERTEX
  5
2AC2
  8
0
 10
26.023634555457249
 20
64.678014266665699
 30
0.0
  0
SEQEND
  5
2AC3
  8
0
  0
POLYLINE
  5
23C3
  8
0
 66
     1
 10
0.0
 20
0.0
 30
0.0
 70
     1
  0
VERTEX
  5
2AC4
  8
0
 10
41.896912905064482
 20
58.103087094934558
 30
0.0
  0
VERTEX
  5
2AC5
  8
0
 10
35.120063062446199
 20
60.910150209913347
 30
0.0
  0
VERTEX
  5
2AC6
  8
0
 10
29.12565231046413
 20
66.904560961895712
 30
0.0
  0
VERTEX
  5
2AC7
  8
0
 10
30.288375923125528
 20
69.711624076874003
 30
0.0
  0
VERTEX
  5
2AC8
  8
0
 10
33.095439038103621
 20
70.874347689535085
 30
0.0
  0
VERTEX
  5
2AC9
  8
0
 10
39.089849790085921
 20
64.879936937552884
 30
0.0
  0
SEQEND
  5
2ACA
  8
0
  0
POLYLINE
  5
23C4
  8
0
 66
     1
 10
0.0
 20
0.0
 30
0.0
 70
     1
  0
VERTEX
  5
2ACB
  8
0
 10
35.887940745179321
 20
52.807063114977467
 30
0.0
  0
VERTEX
  5
2ACC
  8
0
 10
40.602647460524388
 20
50.854167650869847
 30
0.0
  0
VERTEX
  5
2ACD
  8
0
 10
42.258232293263092
 20
51.539933342249419
 30
0.0
  0
VERTEX
  5
2ACE
  8
0
 10
40.991102520535151
 20
52.807063114977311
 30
0.0
  0
SEQEND
  5
2ACF
  8
0
  0
POLYLINE
  5
23C5
  8
0
 66
     1
 10
0.0
 20
0.0
 30
0.0
 70
     1
  0
VERTEX
  5
2AD0
  8
0
 10
41.644854137436077
 20
54.385359134923171
 30
0.0
  0
VERTEX
  5
2AD1
  8
0
 10
38.036373840589931
 20
57.993839431769473
 30
0.0
  0
VERTEX
  5
2AD2
  8
0
 10
42.751080555935367
 20
56.040943967661697
 30
0.0
  0
VERTEX
  5
2AD3
  8
0
 10
43.436846247314939
 20
54.385359134923107
 30
0.0
  0
SEQEND
  5
2AD4
  8
0
  0
POLYLINE
  5
23C6
  8
0
 66
     1
 10
0.0
 20
0.0
 30
0.0
 70
     1
  0
VERTEX
  5
2AD5
  8
0
 10
47.192936885021659
 20
45.7989331659588
 30
0.0
  0
VERTEX
  5
2AD6
  8
0
 10
47.192936885021737
 20
43.223150157382847
 30
0.0
  0
VERTEX
  5
2AD7
  8
0
 10
49.014290517250657
 20
45.044503789611909
 30
0.0
  0
VERTEX
  5
2AD8
  8
0
 10
49.999999999999901
 20
42.664790587798421
 30
0.0
  0
VERTEX
  5
2AD9
  8
0
 10
50.985709482749307
 20
45.044503789611909
 30
0.0
  0
VERTEX
  5
2ADA
  8
0
 10
52.807063114978249
 20
43.223150157382847
 30
0.0
  0
VERTEX
  5
2ADB
  8
0
 10
52.80706311497832
 20
45.7989331659588
 30
0.0
  0
VERTEX
  5
2ADC
  8
0
 10
55.186776316791729
 20
44.813223683209301
 30
0.0
  0
VERTEX
  5
2ADD
  8
0
 10
54.201066834042351
 20
47.192936885022768
 30
0.0
  0
VERTEX
  5
2ADE
  8
0
 10
56.776849842618297
 20
47.192936885022839
 30
0.0
  0
VERTEX
  5
2ADF
  8
0
 10
54.955496210389292
 20
49.014290517251709
 30
0.0
  0
VERTEX
  5
2AE0
  8
0
 10
57.335209412202772
 20
49.999999999998963
 30
0.0
  0
VERTEX
  5
2AE1
  8
0
 10
54.955496210389292
 20
50.985709482748277
 30
0.0
  0
VERTEX
  5
2AE2
  8
0
 10
56.776849842618297
 20
52.807063114977197
 30
0.0
  0
VERTEX
  5
2AE3
  8
0
 10
54.201066834042351
 20
52.807063114977311
 30
0.0
  0
VERTEX
  5
2AE4
  8
0
 10
55.186776316791729
 20
55.186776316790677
 30
0.0
  0
VERTEX
  5
2AE5
  8
0
 10
52.80706311497832
 20
54.2010668340412
 30
0.0
  0
VERTEX
  5
2AE6
  8
0
 10
52.807063114978249
 20
56.776849842617139
 30
0.0
  0
VERTEX
  5
2AE7
  8
0
 10
50.985709482749307
 20
54.955496210388077
 30
0.0
  0
VERTEX
  5
2AE8
  8
0
 10
49.999999999999901
 20
57.335209412201593
 30
0.0
  0
VERTEX
  5
2AE9
  8
0
 10
49.014290517250657
 20
54.955496210388077
 30
0.0
  0
VERTEX
  5
2AEA
  8
0
 10
47.192936885021737
 20
56.776849842617139
 30
0.0
  0
VERTEX
  5
2AEB
  8
0
 10
47.192936885021659
 20
54.2010668340412
 30
0.0
  0
VERTEX
  5
2AEC
  8
0
 10
44.81322368320825
 20
55.186776316790748
 30
0.0
  0
VERTEX
  5
2AED
  8
0
 10
45.798933165957664
 20
52.807063114977311
 30
0.0
  0
VERTEX
  5
2AEE
  8
0
 10
43.223150157381717
 20
52.807063114977197
 30
0.0
  0
VERTEX
  5
2AEF
  8
0
 10
45.044503789610658
 20
50.985709482748277
 30
0.0
  0
VERTEX
  5
2AF0
  8
0
 10
42.664790587797221
 20
49.999999999998963
 30
0.0
  0
VERTEX
  5
2AF1
  8
0
 10
45.044503789610658
 20
49.014290517251709
 30
0.0
  0
VERTEX
  5
2AF2
  8
0
 10
43.223150157381717
 20
47.192936885022839
 30
0.0
  0
VERTEX
  5
2AF3
  8
0
 10
45.798933165957664
 20
47.192936885022768
 30
0.0
  0
VERTEX
  5
2AF4
  8
0
 10
44.81322368320825
 20
44.813223683209301
 30
0.0
  0
SEQEND
  5
2AF5
  8
0
  0
POLYLINE
  5
23C7
  8
0
 66
     1
 10
0.0
 20
0.0
 30
0.0
 70
     1
  0
VERTEX
  5
2AF6
  8
0
 10
24.68319304655607
 20
93.880289639986046
 30
0.0
  0
VERTEX
  5
2AF7
  8
0
 10
25.89261645345546
 20
92.670866233086599
 30
0.0
  0
VERTEX
  5
2AF8
  8
0
 10
24.68319304655617
 20
91.461442826187323
 30
0.0
  0
VERTEX
  5
2AF9
  8
0
 10
23.473769639656659
 20
92.670866233086599
 30
0.0
  0
SEQEND
  5
2AFA
  8
0
  0
POLYLINE
  5
23C8
  8
0
 66
     1
 10
0.0
 20
0.0
 30
0.0
 70
     1
  0
VERTEX
  5
2AFB
  8
0
 10
40.991102520534952
 20
95.431229553827038
 30
0.0
  0
VERTEX
  5
2AFC
  8
0
 10
35.739263425688527
 20
95.431229553827109
 30
0.0
  0
VERTEX
  5
2AFD
  8
0
 10
38.546326540667053
 20
92.624166438848604
 30
0.0
  0
VERTEX
  5
2AFE
  8
0
 10
35.739263425688527
 20
89.817103323870114
 30
0.0
  0
VERTEX
  5
2AFF
  8
0
 10
40.991102520534952
 20
89.817103323870114
 30
0.0
  0
VERTEX
  5
2B00
  8
0
 10
43.798165635513357
 20
92.624166438848519
 30
0.0
  0
SEQEND
  5
2B01
  8
0
  0
POLYLINE
  5
23C9
  8
0
 66
     1
 10
0.0
 20
0.0
 30
0.0
 70
     1
  0
VERTEX
  5
2B02
  8
0
 10
11.76119269607449
 20
94.440641668411004
 30
0.0
  0
VERTEX
  5
2B03
  8
0
 10
11.76119269607449
 20
95.431229553827038
 30
0.0
  0
VERTEX
  5
2B04
  8
0
 10
14.15268340376865
 20
95.431229553827038
 30
0.0
  0
VERTEX
  5
2B05
  8
0
 10
12.461644107213621
 20
93.740190257271905
 30
0.0
  0
SEQEND
  5
2B06
  8
0
  0
POLYLINE
  5
23CA
  8
0
 66
     1
 10
0.0
 20
0.0
 30
0.0
 70
     1
  0
VERTEX
  5
2B07
  8
0
 10
12.46164410721352
 20
91.508142620425204
 30
0.0
  0
VERTEX
  5
2B08
  8
0
 10
11.76119269607449
 20
90.807691209286205
 30
0.0
  0
VERTEX
  5
2B09
  8
0
 10
11.76119269607449
 20
89.817103323870114
 30
0.0
  0
VERTEX
  5
2B0A
  8
0
 10
14.15268340376865
 20
89.817103323870114
 30
0.0
  0
SEQEND
  5
2B0B
  8
0
  0
POLYLINE
  5
23CB
  8
0
 66
     1
 10
0.0
 20
0.0
 30
0.0
 70
     1
  0
VERTEX
  5
2B0C
  8
0
 10
21.195022208571789
 20
92.624166438848604
 30
0.0
  0
VERTEX
  5
2B0D
  8
0
 10
20.032298595910529
 20
93.786890051509857
 30
0.0
  0
VERTEX
  5
2B0E
  8
0
 10
20.032298595910529
 20
95.431229553827109
 30
0.0
  0
VERTEX
  5
2B0F
  8
0
 10
16.38473104061541
 20
95.431229553827038
 30
0.0
  0
VERTEX
  5
2B10
  8
0
 10
13.577667925636799
 20
92.624166438848604
 30
0.0
  0
VERTEX
  5
2B11
  8
0
 10
16.38473104061541
 20
89.817103323870114
 30
0.0
  0
VERTEX
  5
2B12
  8
0
 10
20.032298595910529
 20
89.817103323870114
 30
0.0
  0
VERTEX
  5
2B13
  8
0
 10
20.032298595910529
 20
91.461442826187323
 30
0.0
  0
SEQEND
  5
2B14
  8
0
  0
POLYLINE
  5
23CC
  8
0
 66
     1
 10
0.0
 20
0.0
 30
0.0
 70
     1
  0
VERTEX
  5
2B15
  8
0
 10
33.507215788841769
 20
95.431229553827109
 30
0.0
  0
VERTEX
  5
2B16
  8
0
 10
36.314278903820288
 20
92.624166438848604
 30
0.0
  0
VERTEX
  5
2B17
  8
0
 10
33.507215788841769
 20
89.817103323870114
 30
0.0
  0
VERTEX
  5
2B18
  8
0
 10
29.334087497201569
 20
89.817103323870114
 30
0.0
  0
VERTEX
  5
2B19
  8
0
 10
29.334087497201459
 20
91.461442826187394
 30
0.0
  0
VERTEX
  5
2B1A
  8
0
 10
28.171363884540281
 20
92.624166438848604
 30
0.0
  0
VERTEX
  5
2B1B
  8
0
 10
29.334087497201569
 20
93.786890051509957
 30
0.0
  0
VERTEX
  5
2B1C
  8
0
 10
29.334087497201569
 20
95.431229553827109
 30
0.0
  0
SEQEND
  5
2B1D
  8
0
  0
POLYLINE
  5
23CD
  8
0
 66
     1
 10
0.0
 20
0.0
 30
0.0
 70
     1
  0
VERTEX
  5
2B1E
  8
0
 10
31.928919768896119
 20
88.238807303924418
 30
0.0
  0
VERTEX
  5
2B1F
  8
0
 10
27.689747994884389
 20
88.238807303924375
 30
0.0
  0
VERTEX
  5
2B20
  8
0
 10
27.689747994884389
 20
90.873734691657845
 30
0.0
  0
VERTEX
  5
2B21
  8
0
 10
27.05534006611693
 20
91.508142620425303
 30
0.0
  0
VERTEX
  5
2B22
  8
0
 10
24.68319304655607
 20
89.135995600864476
 30
0.0
  0
VERTEX
  5
2B23
  8
0
 10
22.311046026995189
 20
91.508142620425204
 30
0.0
  0
VERTEX
  5
2B24
  8
0
 10
21.676638098227659
 20
90.873734691657717
 30
0.0
  0
VERTEX
  5
2B25
  8
0
 10
21.676638098227748
 20
88.238807303924375
 30
0.0
  0
VERTEX
  5
2B26
  8
0
 10
17.96302706056094
 20
88.238807303924418
 30
0.0
  0
VERTEX
  5
2B27
  8
0
 10
21.676638098227748
 20
84.525196266257652
 30
0.0
  0
VERTEX
  5
2B28
  8
0
 10
28.215308731229442
 20
84.525196266257723
 30
0.0
  0
SEQEND
  5
2B29
  8
0
  0
POLYLINE
  5
23CE
  8
0
 66
     1
 10
0.0
 20
0.0
 30
0.0
 70
     1
  0
VERTEX
  5
2B2A
  8
0
 10
27.689747994884389
 20
94.467997774515595
 30
0.0
  0
VERTEX
  5
2B2B
  8
0
 10
27.689747994884389
 20
97.009525573772777
 30
0.0
  0
VERTEX
  5
2B2C
  8
0
 10
48.183524770437671
 20
97.009525573772777
 30
0.0
  0
VERTEX
  5
2B2D
  8
0
 10
49.595703176719219
 20
98.421703980054403
 30
0.0
  0
VERTEX
  5
2B2E
  8
0
 10
7.78013038443122
 20
98.421703980054403
 30
0.0
  0
VERTEX
  5
2B2F
  8
0
 10
9.1923087907126622
 20
97.009525573772862
 30
0.0
  0
VERTEX
  5
2B30
  8
0
 10
21.676638098227659
 20
97.009525573772777
 30
0.0
  0
VERTEX
  5
2B31
  8
0
 10
21.676638098227659
 20
94.467997774515595
 30
0.0
  0
VERTEX
  5
2B32
  8
0
 10
22.357745821233291
 20
93.786890051510014
 30
0.0
  0
VERTEX
  5
2B33
  8
0
 10
24.68319304655607
 20
96.112337276832776
 30
0.0
  0
VERTEX
  5
2B34
  8
0
 10
27.008640271878839
 20
93.786890051509957
 30
0.0
  0
SEQEND
  5
2B35
  8
0
  0
POLYLINE
  5
23CF
  8
0
 66
     1
 10
0.0
 20
0.0
 30
0.0
 70
     1
  0
VERTEX
  5
2B36
  8
0
 10
24.945973414728499
 20
81.255860949756823
 30
0.0
  0
VERTEX
  5
2B37
  8
0
 10
26.637012711283631
 20
82.946900246311984
 30
0.0
  0
VERTEX
  5
2B38
  8
0
 10
23.254934118173459
 20
82.946900246311984
 30
0.0
  0
SEQEND
  5
2B39
  8
0
  0
POLYLINE
  5
23D0
  8
0
 66
     1
 10
0.0
 20
0.0
 30
0.0
 70
     1
  0
VERTEX
  5
2B3A
  8
0
 10
33.688437685480388
 20
82.044385551003586
 30
0.0
  0
VERTEX
  5
2B3B
  8
0
 10
32.660852241541662
 20
84.525196266257808
 30
0.0
  0
VERTEX
  5
2B3C
  8
0
 10
30.447356368076189
 20
84.525196266257723
 30
0.0
  0
VERTEX
  5
2B3D
  8
0
 10
34.160967405742781
 20
88.238807303924375
 30
0.0
  0
VERTEX
  5
2B3E
  8
0
 10
39.412806500589348
 20
88.238807303924375
 30
0.0
  0
VERTEX
  5
2B3F
  8
0
 10
37.847628558333589
 20
86.673629361668645
 30
0.0
  0
VERTEX
  5
2B40
  8
0
 10
38.875214002272394
 20
84.192818646414324
 30
0.0
  0
VERTEX
  5
2B41
  8
0
 10
35.207609296170993
 20
85.711990257104944
 30
0.0
  0
SEQEND
  5
2B42
  8
0
  0
POLYLINE
  5
23D1
  8
0
 66
     1
 10
0.0
 20
0.0
 30
0.0
 70
     1
  0
VERTEX
  5
2B43
  8
0
 10
31.73682428719534
 20
77.332774016354847
 30
0.0
  0
VERTEX
  5
2B44
  8
0
 10
28.869060348130549
 20
77.332774016354804
 30
0.0
  0
VERTEX
  5
2B45
  8
0
 10
26.06199723315186
 20
80.139837131333508
 30
0.0
  0
VERTEX
  5
2B46
  8
0
 10
28.869060348130361
 20
82.946900246311984
 30
0.0
  0
VERTEX
  5
2B47
  8
0
 10
31.606268556700812
 20
82.946900246311984
 30
0.0
  0
VERTEX
  5
2B48
  8
0
 10
32.834270034609418
 20
79.982242423730625
 30
0.0
  0
SEQEND
  5
2B49
  8
0
  0
POLYLINE
  5
23D2
  8
0
 66
     1
 10
0.0
 20
0.0
 30
0.0
 70
     1
  0
VERTEX
  5
2B4A
  8
0
 10
26.637012711283891
 20
77.332774016354847
 30
0.0
  0
VERTEX
  5
2B4B
  8
0
 10
23.25493411817321
 20
77.332774016354847
 30
0.0
  0
VERTEX
  5
2B4C
  8
0
 10
24.945973414728591
 20
79.023813312910164
 30
0.0
  0
SEQEND
  5
2B4D
  8
0
  0
POLYLINE
  5
23D3
  8
0
 66
     1
 10
0.0
 20
0.0
 30
0.0
 70
     1
  0
VERTEX
  5
2B4E
  8
0
 10
45.614640865076019
 20
95.431229553827109
 30
0.0
  0
VERTEX
  5
2B4F
  8
0
 10
43.223150157381617
 20
95.431229553827109
 30
0.0
  0
VERTEX
  5
2B50
  8
0
 10
44.91418945393675
 20
93.740190257271905
 30
0.0
  0
VERTEX
  5
2B51
  8
0
 10
45.614640865076019
 20
94.440641668411203
 30
0.0
  0
SEQEND
  5
2B52
  8
0
  0
POLYLINE
  5
23D4
  8
0
 66
     1
 10
0.0
 20
0.0
 30
0.0
 70
     1
  0
VERTEX
  5
2B53
  8
0
 10
45.614640865076019
 20
84.269020576284206
 30
0.0
  0
VERTEX
  5
2B54
  8
0
 10
45.614640865076019
 20
88.238807303924375
 30
0.0
  0
VERTEX
  5
2B55
  8
0
 10
41.644854137436013
 20
88.238807303924375
 30
0.0
  0
VERTEX
  5
2B56
  8
0
 10
39.709355651636493
 20
86.303308818124975
 30
0.0
  0
VERTEX
  5
2B57
  8
0
 10
40.937357129545312
 20
83.338650995543418
 30
0.0
  0
VERTEX
  5
2B58
  8
0
 10
43.586825536921218
 20
82.241205248129305
 30
0.0
  0
SEQEND
  5
2B59
  8
0
  0
POLYLINE
  5
23D5
  8
0
 66
     1
 10
0.0
 20
0.0
 30
0.0
 70
     1
  0
VERTEX
  5
2B5A
  8
0
 10
47.192936885021737
 20
85.847316596229945
 30
0.0
  0
VERTEX
  5
2B5B
  8
0
 10
48.883976181576998
 20
87.538355892785091
 30
0.0
  0
VERTEX
  5
2B5C
  8
0
 10
48.183524770437501
 20
88.238807303924375
 30
0.0
  0
VERTEX
  5
2B5D
  8
0
 10
47.192936885021659
 20
88.238807303924375
 30
0.0
  0
SEQEND
  5
2B5E
  8
0
  0
POLYLINE
  5
23D6
  8
0
 66
     1
 10
0.0
 20
0.0
 30
0.0
 70
     1
  0
VERTEX
  5
2B5F
  8
0
 10
45.614640865076019
 20
89.817103323870114
 30
0.0
  0
VERTEX
  5
2B60
  8
0
 10
43.223150157381539
 20
89.817103323870015
 30
0.0
  0
VERTEX
  5
2B61
  8
0
 10
44.91418945393675
 20
91.508142620425204
 30
0.0
  0
VERTEX
  5
2B62
  8
0
 10
45.614640865076019
 20
90.807691209285906
 30
0.0
  0
SEQEND
  5
2B63
  8
0
  0
POLYLINE
  5
23D7
  8
0
 66
     1
 10
0.0
 20
0.0
 30
0.0
 70
     1
  0
VERTEX
  5
2B64
  8
0
 10
52.807063114978249
 20
95.431229553826711
 30
0.0
  0
VERTEX
  5
2B65
  8
0
 10
51.16272361266109
 20
95.431229553826711
 30
0.0
  0
VERTEX
  5
2B66
  8
0
 10
50.000000000000178
 20
96.593953166488191
 30
0.0
  0
VERTEX
  5
2B67
  8
0
 10
48.837276387338889
 20
95.431229553826711
 30
0.0
  0
VERTEX
  5
2B68
  8
0
 10
47.192936885021737
 20
95.431229553826711
 30
0.0
  0
VERTEX
  5
2B69
  8
0
 10
47.192936885021737
 20
93.786890051509616
 30
0.0
  0
VERTEX
  5
2B6A
  8
0
 10
46.030213272360378
 20
92.624166438848235
 30
0.0
  0
VERTEX
  5
2B6B
  8
0
 10
47.192936885021737
 20
91.461442826186897
 30
0.0
  0
VERTEX
  5
2B6C
  8
0
 10
47.192936885021737
 20
89.817103323869716
 30
0.0
  0
VERTEX
  5
2B6D
  8
0
 10
48.837276387338527
 20
89.817103323870114
 30
0.0
  0
VERTEX
  5
2B6E
  8
0
 10
50.000000000000178
 20
88.654379711208378
 30
0.0
  0
VERTEX
  5
2B6F
  8
0
 10
51.162723612661473
 20
89.817103323870114
 30
0.0
  0
VERTEX
  5
2B70
  8
0
 10
52.807063114978249
 20
89.817103323870114
 30
0.0
  0
VERTEX
  5
2B71
  8
0
 10
52.807063114978249
 20
91.461442826186897
 30
0.0
  0
VERTEX
  5
2B72
  8
0
 10
53.969786727639601
 20
92.624166438848235
 30
0.0
  0
VERTEX
  5
2B73
  8
0
 10
52.807063114978249
 20
93.786890051509616
 30
0.0
  0
SEQEND
  5
2B74
  8
0
  0
POLYLINE
  5
23D8
  8
0
 66
     1
 10
0.0
 20
0.0
 30
0.0
 70
     1
  0
VERTEX
  5
2B75
  8
0
 10
40.427864548284077
 20
65.773969816201301
 30
0.0
  0
VERTEX
  5
2B76
  8
0
 10
45.614640865075849
 20
60.58719349940948
 30
0.0
  0
VERTEX
  5
2B77
  8
0
 10
45.614640865075849
 20
67.922402911612252
 30
0.0
  0
VERTEX
  5
2B78
  8
0
 10
42.370489143428657
 20
75.754477996409065
 30
0.0
  0
VERTEX
  5
2B79
  8
0
 10
39.332145922047737
 20
75.754477996409065
 30
0.0
  0
VERTEX
  5
2B7A
  8
0
 10
37.183712826636828
 20
73.606044900998199
 30
0.0
  0
SEQEND
  5
2B7B
  8
0
  0
POLYLINE
  5
23D9
  8
0
 66
     1
 10
0.0
 20
0.0
 30
0.0
 70
     1
  0
VERTEX
  5
2B7C
  8
0
 10
36.061776947041857
 20
83.649847129832054
 30
0.0
  0
VERTEX
  5
2B7D
  8
0
 10
39.729381653143349
 20
82.130675519141462
 30
0.0
  0
VERTEX
  5
2B7E
  8
0
 10
40.82682740055742
 20
79.481207111765599
 30
0.0
  0
VERTEX
  5
2B7F
  8
0
 10
38.678394305146689
 20
77.332774016354804
 30
0.0
  0
VERTEX
  5
2B80
  8
0
 10
35.640051083765357
 20
77.332774016354804
 30
0.0
  0
VERTEX
  5
2B81
  8
0
 10
34.542605336351293
 20
79.982242423730781
 30
0.0
  0
SEQEND
  5
2B82
  8
0
  0
POLYLINE
  5
23DA
  8
0
 66
     1
 10
0.0
 20
0.0
 30
0.0
 70
     1
  0
VERTEX
  5
2B83
  8
0
 10
41.791524780416097
 20
81.276507868270627
 30
0.0
  0
VERTEX
  5
2B84
  8
0
 10
42.688554493860437
 20
79.110886568221858
 30
0.0
  0
VERTEX
  5
2B85
  8
0
 10
40.910441941993348
 20
77.332774016354804
 30
0.0
  0
VERTEX
  5
2B86
  8
0
 10
43.42507282826962
 20
77.332774016354804
 30
0.0
  0
VERTEX
  5
2B87
  8
0
 10
45.614640865076019
 20
72.04668916615806
 30
0.0
  0
VERTEX
  5
2B88
  8
0
 10
45.614640865075927
 20
77.768306178094747
 30
0.0
  0
VERTEX
  5
2B89
  8
0
 10
47.937856872727323
 20
78.730613756786269
 30
0.0
  0
VERTEX
  5
2B8A
  8
0
 10
45.614640865076019
 20
79.692921335477735
 30
0.0
  0
VERTEX
  5
2B8B
  8
0
 10
45.614640865076019
 20
82.036972939437476
 30
0.0
  0
VERTEX
  5
2B8C
  8
0
 10
43.957146080464909
 20
80.379478154826288
 30
0.0
  0
SEQEND
  5
2B8D
  8
0
  0
POLYLINE
  5
23DB
  8
0
 66
     1
 10
0.0
 20
0.0
 30
0.0
 70
     1
  0
VERTEX
  5
2B8E
  8
0
 10
37.100098285200957
 20
75.754477996409065
 30
0.0
  0
VERTEX
  5
2B8F
  8
0
 10
34.585467398924571
 20
75.754477996409065
 30
0.0
  0
VERTEX
  5
2B90
  8
0
 10
33.688437685480388
 20
77.920099296457792
 30
0.0
  0
VERTEX
  5
2B91
  8
0
 10
32.791407972036119
 20
75.754477996409065
 30
0.0
  0
VERTEX
  5
2B92
  8
0
 10
30.44735636807626
 20
75.754477996409136
 30
0.0
  0
VERTEX
  5
2B93
  8
0
 10
32.104851152687672
 20
74.096983211797848
 30
0.0
  0
VERTEX
  5
2B94
  8
0
 10
31.142543573996129
 20
71.773767204146594
 30
0.0
  0
VERTEX
  5
2B95
  8
0
 10
33.46575958164739
 20
72.736074782838003
 30
0.0
  0
VERTEX
  5
2B96
  8
0
 10
37.511553770140289
 20
68.690280594345111
 30
0.0
  0
VERTEX
  5
2B97
  8
0
 10
35.32198573333369
 20
73.976365444541997
 30
0.0
  0
SEQEND
  5
2B98
  8
0
  0
POLYLINE
  5
23DC
  8
0
 66
     1
 10
0.0
 20
0.0
 30
0.0
 70
     1
  0
VERTEX
  5
2B99
  8
0
 10
47.192936885021659
 20
64.112059254819584
 30
0.0
  0
VERTEX
  5
2B9A
  8
0
 10
49.145832349129194
 20
59.397352539474383
 30
0.0
  0
VERTEX
  5
2B9B
  8
0
 10
48.460066657749643
 20
57.741767706735658
 30
0.0
  0
VERTEX
  5
2B9C
  8
0
 10
47.192936885021737
 20
59.00889747946367
 30
0.0
  0
SEQEND
  5
2B9D
  8
0
  0
POLYLINE
  5
23DD
  8
0
 66
     1
 10
0.0
 20
0.0
 30
0.0
 70
     1
  0
VERTEX
  5
2B9E
  8
0
 10
45.614640865075849
 20
58.355145862562857
 30
0.0
  0
VERTEX
  5
2B9F
  8
0
 10
42.006160568229717
 20
61.963626159409003
 30
0.0
  0
VERTEX
  5
2BA0
  8
0
 10
43.959056032337301
 20
57.248919444063553
 30
0.0
  0
VERTEX
  5
2BA1
  8
0
 10
45.614640865075849
 20
56.56315375268403
 30
0.0
  0
SEQEND
  5
2BA2
  8
0
  0
ENDSEC
  0
EOF
